<svg xmlns="http://www.w3.org/2000/svg" id="Layer_1" data-name="Layer 1" viewBox="0 0 1826.09 412.05"><path d="M481.6,125.66l.14-4.79a43.94,43.94,0,0,1,4.73-1.06c3.62-.71,5.82-1.34,6.59-1.91a12.51,12.51,0,0,0,2.86-4.09l14.24-37.28,16.7-43.83h7.68l.63,1.27L547.43,63q4.16,9.24,7.47,18t5.71,14.21q1.41,3.32,3.87,10a96.9,96.9,0,0,0,3.88,9,11,11,0,0,0,2.11,3.45A8,8,0,0,0,574.6,119a27.06,27.06,0,0,1,6.17,1.62,24.84,24.84,0,0,1,.35,3.46c0,.33,0,.85-.07,1.55q-5.22,0-11.49-.49t-11.29-.5q-5.57,0-8,.15l-12,.63-3.46.14c0-1.64.07-3.22.21-4.72l7.83-1.7a14.71,14.71,0,0,0,4.1-1.41,2.26,2.26,0,0,0,.7-1.62,5.72,5.72,0,0,0-.35-1.9l-2.8-6.92L538.93,93.5,512,93.43q-1.5,3.39-6.22,16.57a19.22,19.22,0,0,0-1.34,5.08,3.1,3.1,0,0,0,1,2.61c1.08.9,3.15,1.53,6.21,1.91.42.09,2.09.35,5,.77,0,1.7.07,2.87.07,3.53a10.23,10.23,0,0,1-.14,1.62q-4.38,0-20.88-1.2l-2.89.5a62.73,62.73,0,0,1-9.95.84ZM514.78,86q16.49.21,19.44.21l1.76-.07q-2.12-6.27-5.5-14.63T525,58.8Z" transform="translate(-45.04 -28.41)" style="fill:#4b4d4a"></path><path d="M577.51,125.66l.21-4.79c5.88-.76,9.62-2,11.22-3.6q1.54-1.69,2.4-8.82l.92-25.11,1-25.53c.1-1.55.14-2.49.14-2.82q0-9.94-1.16-11.5c-.78-1-3.8-2.05-9.06-3-1.32-.29-2.36-.52-3.11-.71-.09-1.17-.14-2.16-.14-3V34.6q2.61-.21,6.13-.21l20.63.71,2,.14,3.24.14a22.67,22.67,0,0,1,2.44,3.74q2.58,5.16,6.88,15.11l.81,1.89,11,23.93,1.16,2.46,2.26,4.79q1.08,2.33,2.37,5t2.31,4.9A41.93,41.93,0,0,0,643,93.5q2.82-6.5,5.5-11.92,4.65-9.6,12.63-29.34,1.26-3.18,4.19-9.56c1.95-4.26,3-6.5,3.21-6.74a4.08,4.08,0,0,1,2.54-.56c.47,0,1.2,0,2.18-.07,2.45-.14,5.38-.26,8.81-.36q7.39-.06,11.87-.45t5-.39a12.87,12.87,0,0,1,1.69.14c0,.66.07,1.18.07,1.55l-.14,2.12c0,.42,0,1.06-.07,1.9a39.09,39.09,0,0,0-10.79,3c-1.93.95-2.89,2.12-2.89,3.53v1.06L688.09,69q.21,3,1.14,29.42.21,5.92.93,15a16,16,0,0,1,.14,1.76,2.78,2.78,0,0,0,.74,2.19q.66.5,12.66,4.09c0,.75.07,1.32.07,1.69,0,1,0,2-.07,3q-1.91,0-9.59-.82a138,138,0,0,0-14.39-.81q-10.23,0-19.89.85c-.85.09-1.67.16-2.47.21l.14-4.87a39.23,39.23,0,0,1,7.69-1.9c2.25-.38,3.69-1,4.3-1.9s.92-3.39.92-7.48c0-1.55,0-2.92-.07-4.09q-.36-7.41-.43-20.6l-1.2-24.9c-.14-3.52-.3-6-.49-7.33L650.66,92.79c-.43.94-1.06,2.31-1.91,4.09-1.08,2.31-1.81,3.88-2.18,4.73q-5.43,13-7.55,20-.57,1.77-1.69,4.59l-5.42-.07-3.81-10.8q-1.7-4.23-5.79-12.83-2.4-5-3.74-8.12c-.42-.84-.73-1.48-.92-1.9l-.85-1.76a2.2,2.2,0,0,0-.21-.71L606.08,67.33l-6.43-13.75-.56,33.36-.49,21.65q0,5.37,2,7.66t8.64,3.91l3.39.85v5.15q-4.1-.07-8.78-.6a114.31,114.31,0,0,0-12.45-.53Q589.79,125,577.51,125.66Z" transform="translate(-45.04 -28.41)" style="fill:#4b4d4a"></path><path d="M706.3,34.39c2.68.14,5,.35,7,.64a95.81,95.81,0,0,0,12.91.77q2.53,0,13-.42,15.74-.65,28.43-.64l12.77-.14a109.62,109.62,0,0,1,12.69,1.06,5.46,5.46,0,0,1,1.27,3.81V54l.14,2.89c0,.28,0,.71-.07,1.27l-2.89.14c-.38,0-1.17,0-2.4-.14-.42-.94-1-2.33-1.69-4.16l-2.82-5a32.59,32.59,0,0,0-4.52-6.49,19,19,0,0,0-4.51-.56c-.47,0-1.9-.17-4.3-.35Q764.76,41,757.22,41q-8.61,0-15.38.28-.21,1.77-.21,13.9l.07,11.85v8.89a26.31,26.31,0,0,0,3,.21q12.66,0,18-.5c3.58-.33,5.79-.78,6.64-1.37a7.37,7.37,0,0,0,2.27-3.07,99.44,99.44,0,0,0,2.47-10.37l.92-.07,4.09.07c.18,4.19.28,7.36.28,9.52,0,4.94,0,8.11-.11,9.53s-.1,2.51-.1,3.31q0,1.9.21,6.1t.21,6.24V97.1h-5c-.19-.76-.54-2.31-1.06-4.66q-1.41-6.56-2.54-8.18a5.17,5.17,0,0,0-2.83-1.91c-.94-.32-4.43-.49-10.46-.49q-10.68,0-16,.56v2.4q0,8.4.29,14L741.84,114a3.75,3.75,0,0,0,1.91,3.67q2.89,1.49,17.7,1.48a79.84,79.84,0,0,0,16.65-1.48,16.54,16.54,0,0,0,8.32-4.72q4.8-4.73,8-13.26c1.46-.15,2.66-.22,3.6-.22.52,0,1.29,0,2.33.07-.14,1.18-.26,2.17-.35,3l-.42,2.11L797,118l-1.25,8q-4.59.22-7.27.22-3.94,0-21.1-.71-12.08-.49-29.09-.49-8.46,0-20.82.7h-3l-8.54.28v-4.86a42.46,42.46,0,0,1,5.36-.78q7.34-.84,10.16-2.26a14.52,14.52,0,0,0,.78-5.14c0-.8,0-2.17-.07-4.09l.07-2.19L722,80.1l.07-8-.35-11.29.07-8-.63-8.75c0-.23,0-.7-.14-1.41a3.49,3.49,0,0,0-2.12-1l-2.12-.43a46,46,0,0,0-7.75-1c-.9,0-1.93-.15-3.11-.29Z" transform="translate(-45.04 -28.41)" style="fill:#4b4d4a"></path><path d="M808.13,121.36a16.26,16.26,0,0,1,5.43-1.45,29.88,29.88,0,0,0,6.49-1.51,17.35,17.35,0,0,0,.43-2.05c.09-.66.14-2.91.14-6.77l-.07-15.73.28-8.46-.14-6.56.14-3.81q.21-7.69.21-14.39,0-14.67-.35-18.76L816.53,41c-3.81-.23-6.35-.47-7.62-.7l-.14-4.24.28-.77a40.85,40.85,0,0,1,6.49-.57q1.62,0,6.56-.07c3.38.28,5.22.43,5.5.43l3.74-.22,8.81-.42a172.33,172.33,0,0,1,17.43-.85q14.46,0,23,7.38t8.54,16.89a20.35,20.35,0,0,1-4.61,12.94q-4.61,5.82-14.16,8.78a40.66,40.66,0,0,0,2.25,3.46c2,2.82,3.56,5.22,4.77,7.19l11.25,18.27q4.23,7.28,5.54,8.5a17.11,17.11,0,0,0,5.4,2.72,22.32,22.32,0,0,1,4.86,2.4,6.54,6.54,0,0,1,.43,2.11c0,.42,0,1-.08,1.62h-1.9l-1.41.07-3.67-.49h-2.89a37.7,37.7,0,0,0-5.57-.35l-7.06-.07c-.51,0-2.16.16-4.93.49l-3,.35-2.39-4.65q-3-5.3-4.17-7.9-3.11-6.84-10.65-21.8-3.52-6.9-4.93-7.83c-1.41-1-3.84-1.48-7.27-1.48-.94,0-2.54.05-4.8.14a48.68,48.68,0,0,0-.21,4.87l.36,15.66-.43,13.26A16,16,0,0,0,845,118a59,59,0,0,1,9.45,2.68,35.42,35.42,0,0,1-.28,5.22l-1.69-.07-2.89.14q-15.16-1.34-18-1.34c-1.22,0-2.09,0-2.61.07l-9.73.64a73.87,73.87,0,0,1-8.12.49h-3c-.09-1.17-.14-1.92-.14-2.25A15.92,15.92,0,0,1,808.13,121.36Zm31.74-45.64c2.26.1,3.91.14,4.94.14q12,0,17-4.3a14.39,14.39,0,0,0,5-11.49,27.71,27.71,0,0,0-1.23-8.36,15,15,0,0,0-3.06-5.82,16.24,16.24,0,0,0-6.83-4.16q-3.09-1.06-9.92-1.06a38.28,38.28,0,0,0-5.55.35l-.15,1.34.15,9.52L840,57.67l.07,7.69q-.14,3.24-.21,8.39Z" transform="translate(-45.04 -28.41)" style="fill:#4b4d4a"></path><path d="M905.1,125.73v-5.08c.94-.28,2.48-.68,4.63-1.19a31.45,31.45,0,0,0,6.8-2.33,12.11,12.11,0,0,0,1.27-6.07l-.07-8.32.14-16.08-.07-3.81q.57-14,.56-14.39l-.14-9.38.21-3.81-.35-8-.14-3a16.19,16.19,0,0,0-.49-2.26q-2.9-1.34-9.38-1.7A21,21,0,0,1,905.6,40l-.14-6.2,20.16.84c2.49.1,4,.14,4.66.14q4.15,0,13.32-.56c3.43-.24,5.6-.38,6.49-.42.06.89.08,1.64.08,2.25,0,.8,0,1.84-.17,3.11q-2.81,1-6.44,1.87a45.94,45.94,0,0,0-5.94,1.79,25.31,25.31,0,0,0-.42,5.29,46.75,46.75,0,0,0,.21,4.94Q937.2,65,937.2,71.42L937.27,90l-.36,9.45.29,14.11-.22,2.68a4.62,4.62,0,0,0,.43,1.62,68.28,68.28,0,0,0,7.78,1.27l4.28.57a27.06,27.06,0,0,1,.28,3.52c0,.52,0,1.32-.07,2.4a12.08,12.08,0,0,0-1.41.07c-1.5.1-2.37.14-2.6.14a14.23,14.23,0,0,1-1.83-.21q-1-.14-9.37-1L922,124.53c-2.48,0-6.1.24-10.84.71C908.06,125.52,906,125.69,905.1,125.73Z" transform="translate(-45.04 -28.41)" style="fill:#4b4d4a"></path><path d="M1039.6,35.87q.92,2.12,3.74,12.06a37.65,37.65,0,0,1,1.34,9.6h-6.42q-6.78-9.6-14-13.79a31.3,31.3,0,0,0-16.08-4.2,21.34,21.34,0,0,0-17.63,8.53q-9.11,11.58-9.1,32.24,0,12,1.55,17.07a44.23,44.23,0,0,0,6.42,13.47,20.88,20.88,0,0,0,7.76,6.28,28.74,28.74,0,0,0,13.26,3.17,26.71,26.71,0,0,0,15-4.81q7.23-4.81,13.86-14.38a43.32,43.32,0,0,1,6.84-.56,51.72,51.72,0,0,1-.92,5.55q-.21,1.13-1.62,8.93l-.64,2.11-1,3.3q-4.3,3.32-12.1,5a94.28,94.28,0,0,1-19.15,1.65,79.81,79.81,0,0,1-16.4-1.62,39.28,39.28,0,0,1-13.23-5.15,48.32,48.32,0,0,1-12.62-11,41.4,41.4,0,0,1-6.81-12.91,51.51,51.51,0,0,1-2.22-15.66q0-21,13.86-34.7t35.37-13.68a145,145,0,0,1,16.47.88A103.57,103.57,0,0,1,1039.6,35.87Z" transform="translate(-45.04 -28.41)" style="fill:#4b4d4a"></path><path d="M1045.3,125.66l.14-4.79a43.6,43.6,0,0,1,4.72-1.06c3.62-.71,5.82-1.34,6.6-1.91a12.53,12.53,0,0,0,2.85-4.09l14.24-37.28,16.71-43.83h7.67l.64,1.27L1111.13,63q4.15,9.24,7.47,18t5.7,14.21q1.41,3.32,3.88,10a96.42,96.42,0,0,0,3.87,9,10.93,10.93,0,0,0,2.12,3.45,8,8,0,0,0,4.13,1.41,27.06,27.06,0,0,1,6.17,1.62,26.52,26.52,0,0,1,.35,3.46c0,.33,0,.85-.07,1.55q-5.22,0-11.5-.49t-11.28-.5q-5.58,0-8,.15l-12,.63-3.46.14c0-1.64.07-3.22.21-4.72l7.83-1.7a14.58,14.58,0,0,0,4.09-1.41,2.23,2.23,0,0,0,.71-1.62,5.5,5.5,0,0,0-.36-1.9l-2.8-6.92-5.53-13.82-26.93-.07q-1.5,3.39-6.21,16.57a19.22,19.22,0,0,0-1.34,5.08,3.1,3.1,0,0,0,1,2.61c1.08.9,3.15,1.53,6.2,1.91.43.09,2.1.35,5,.77.05,1.7.07,2.87.07,3.53a9.18,9.18,0,0,1-.14,1.62q-4.37,0-20.88-1.2l-2.89.5a62.61,62.61,0,0,1-9.94.84ZM1078.48,86q16.47.21,19.44.21l1.76-.07q-2.12-6.27-5.5-14.63t-5.5-12.73Z" transform="translate(-45.04 -28.41)" style="fill:#4b4d4a"></path><path d="M1139.09,40l-.28-4.93h6l2-.08q4.23-.21,5.86-.21c.56,0,2.21,0,4.93.14.61,0,1.13.07,1.56.07s1.9,0,4.44-.14,4-.14,4.3-.14c.52,0,1.25,0,2.19.07q10.86,9.88,17.7,17t49.94,49.87V99.85l-.28-8.19q-.21-7.18-.57-11.39t-.42-10q-.07-5.82-.49-10.55-.85-9.24-.85-10.65-.08-4.58-1-5.57-1.47-1.55-6.77-2.33a20.2,20.2,0,0,1-5.78-1.62l.07-4.16,1.83-.21,13.9-.43,15.52-.42c1,0,2-.07,3-.07l.07,4.58a14.64,14.64,0,0,1-3.32,1.27,29.38,29.38,0,0,0-5.22,1.49,22.34,22.34,0,0,0-3.88,2.46,4.4,4.4,0,0,0-.63,2.61c0,.29,0,1.27.14,3,0,.84.07,2.82.07,5.92q.07,10.23.57,16.15c.09,1.27.16,2.71.21,4.31l.77,24.75c0,1.74.07,3,.07,3.67v8.68l.22,3.67-.22,3.8c.19,1.93.29,3.08.29,3.46v3.74l-8.12.28-8.39-8.68-17.14-17-12-12-8.82-9q-8.6-8.48-15.66-14.89l-11.49-10.36.63,26.23c0,1.6.07,3.25.07,4.94l-.07,5,.43,9.24q.21,5.79.77,12.55a15.56,15.56,0,0,0,.35,2.58,18.25,18.25,0,0,0,.85,2.15q2.74,1,12,1.48c.42.1,1,.26,1.83.5l.29,5.71-2.75.07q-2.27,0-14.25-1.06-11.22.15-15,.42c-2.49.19-3.85.29-4.09.29a13.12,13.12,0,0,1-2.32-.29c-.1-1.08-.14-2-.14-2.82,0-.51,0-1.36.07-2.54a19.54,19.54,0,0,1,3.24-.35c.28,0,1.2,0,2.75.14q5.93,0,7-.88c.73-.59,1.14-2.17,1.23-4.76q.5-11.22.5-13.68V97.17l.14-22.93-.21-14.32q-.08-8.18-1.06-11.35a6.08,6.08,0,0,0-1.62-2.82,16.37,16.37,0,0,0-5.51-3.81Q1146.78,41.16,1139.09,40Z" transform="translate(-45.04 -28.41)" style="fill:#4b4d4a"></path><path d="M486.33,270.12l.21-4.8q8.82-1.12,11.21-3.6c1-1.13,1.84-4.06,2.4-8.81l.92-25.11,1.06-25.54c.09-1.55.14-2.49.14-2.82q0-9.94-1.17-11.5t-9.06-3c-1.32-.28-2.35-.52-3.1-.7-.1-1.18-.14-2.17-.14-3v-2.18q2.59-.21,6.12-.21l20.63.7c.47,0,1.13.1,2,.14l3.23.14a22.18,22.18,0,0,1,2.44,3.75q2.59,5.16,6.89,15.11l.81,1.88,11,23.94L543,227q1.17,2.49,2.26,4.8l2.37,5,2.31,4.89a38.25,38.25,0,0,0,1.9-3.74q2.82-6.48,5.5-11.92Q562,216.45,570,196.69c.85-2.12,2.24-5.3,4.2-9.56s3-6.5,3.21-6.73a4,4,0,0,1,2.53-.57c.47,0,1.2,0,2.19-.07q3.66-.21,8.8-.35,7.41-.07,11.87-.46t5-.39a12.74,12.74,0,0,1,1.69.14c0,.66.08,1.18.08,1.56l-.15,2.11c0,.43,0,1.06-.07,1.91a38.84,38.84,0,0,0-10.79,3q-2.9,1.41-2.89,3.53v1l1.21,21.59q.21,3,1.14,29.41.21,5.93.93,15a16.18,16.18,0,0,1,.14,1.77c0,1.13.29,1.86.74,2.18s4.67,1.7,12.66,4.09c0,.76.07,1.32.07,1.7,0,1,0,2-.07,3q-1.9,0-9.59-.81a137.84,137.84,0,0,0-14.39-.81q-10.23,0-19.89.84c-.85.1-1.67.17-2.47.22l.14-4.87A39.15,39.15,0,0,1,574,263.2c2.26-.37,3.69-1,4.3-1.9s.92-3.39.92-7.48c0-1.55,0-2.91-.07-4.09q-.36-7.39-.42-20.59l-1.2-24.9c-.14-3.53-.31-6-.5-7.34l-17.56,40.35c-.42.94-1.06,2.3-1.9,4.09-1.09,2.3-1.81,3.88-2.19,4.72q-5.43,13.05-7.55,20c-.37,1.17-.94,2.7-1.69,4.58l-5.42-.07-3.81-10.79q-1.7-4.23-5.79-12.84c-1.6-3.34-2.84-6-3.74-8.11-.42-.85-.73-1.48-.92-1.91l-.84-1.76a2.65,2.65,0,0,0-.21-.7l-10.52-22.65L508.47,198l-.56,33.36-.49,21.66q0,5.35,2,7.65t8.64,3.92l3.38.84v5.15c-2.73-.05-5.65-.25-8.78-.6a116.92,116.92,0,0,0-12.45-.53Q498.6,269.48,486.33,270.12Z" transform="translate(-45.04 -28.41)" style="fill:#4b4d4a"></path><path d="M615.11,178.85q4,.21,7,.63a94.17,94.17,0,0,0,12.91.78q2.54,0,13-.43,15.72-.63,28.42-.63l12.77-.14a111.55,111.55,0,0,1,12.7,1.05,5.55,5.55,0,0,1,1.27,3.81v14.53l.14,2.9c0,.28,0,.7-.07,1.27l-2.9.14c-.37,0-1.17,0-2.39-.14-.43-.94-1-2.33-1.7-4.17l-2.82-5A32.64,32.64,0,0,0,689,187a19.07,19.07,0,0,0-4.52-.57l-4.3-.35q-6.55-.57-14.11-.56-8.6,0-15.37.28c-.14,1.17-.21,5.81-.21,13.89l.07,11.85v8.89a26.17,26.17,0,0,0,3,.21q12.65,0,18-.49t6.65-1.38a7.29,7.29,0,0,0,2.26-3.07A96.86,96.86,0,0,0,683,205.3l.92-.07,4.09.07c.19,4.18.28,7.36.28,9.52q0,7.41-.1,9.52c-.07,1.41-.11,2.52-.11,3.31q0,1.9.21,6.11t.21,6.24v1.55h-5c-.19-.75-.55-2.3-1.06-4.66-.95-4.37-1.8-7.09-2.55-8.18a5.16,5.16,0,0,0-2.83-1.9q-1.41-.5-10.46-.49-10.66,0-16,.56v2.4q0,8.39.28,14l-.14,15.24a3.75,3.75,0,0,0,1.9,3.67q2.9,1.47,17.71,1.48a80.49,80.49,0,0,0,16.64-1.48,16.59,16.59,0,0,0,8.33-4.73q4.78-4.73,8-13.26c1.45-.14,2.65-.21,3.59-.21.52,0,1.3,0,2.33.07-.14,1.17-.25,2.16-.35,3l-.41,2.12-2.57,13.33-1.25,8c-3.06.14-5.49.21-7.27.21q-4,0-21.11-.7-12.07-.5-29.08-.5-8.48,0-20.83.71h-3l-8.54.28V265.6a44.82,44.82,0,0,1,5.36-.77q7.33-.85,10.15-2.26a14.58,14.58,0,0,0,.78-5.15c0-.8,0-2.16-.07-4.09l.07-2.19-.21-26.59.07-8-.36-11.28.08-8-.64-8.75c0-.24,0-.71-.14-1.41a3.44,3.44,0,0,0-2.12-1c-.51-.09-1.22-.23-2.11-.42a45.18,45.18,0,0,0-7.76-1c-.89-.05-1.93-.14-3.1-.28Z" transform="translate(-45.04 -28.41)" style="fill:#4b4d4a"></path><path d="M714.55,264.33c.7-.18,2.16-.47,4.37-.84,4.37-.76,7.24-1.76,8.61-3q1.26-1.2,1.62-4.58.06-.85.49-21.5l-.07-7.75.07-9.37-.21-24v-2.82a3.81,3.81,0,0,0-1-2.82c-.33-.33-1.24-.49-2.75-.49a24.9,24.9,0,0,0-4.23.42,44.8,44.8,0,0,0-5.57.57l-1.34.21-.07-6.21a87.75,87.75,0,0,1,11.92-2.61,198.63,198.63,0,0,1,31.6-2.12q15.66,0,22.92,1.77,11,2.75,17.92,8.17a47.92,47.92,0,0,1,13.86,16.81,47.2,47.2,0,0,1,4.62,20.83q0,14.24-6.21,24.42a44.76,44.76,0,0,1-17.85,16.32q-8.18,4.36-22.21,4.37l-14.46-.57-4.24-.2-5.71.13-1.69-.13-5.93.13-7.83-.07q-.42,0-7.19.45c-1.51.09-3.48.15-5.93.19-1.5,0-2.63,0-3.38.07C714.59,269,714.55,267.11,714.55,264.33Zm34.21-78.47c-.1,1.45-.14,2.48-.14,3.09l.14,12v10.43q.13,5.07.14,8.87l-.14,6.7.21,11.2-.21,6.9q0,9.65,3.59,13.1,5.22,4.94,14.39,4.93,7,0,10.3-1.33a28.58,28.58,0,0,0,11-7.12q4.05-4.43,6.17-12.56a66.46,66.46,0,0,0,2.12-16.8q0-14.22-4.55-23.23a31.52,31.52,0,0,0-12.45-13.55,39.27,39.27,0,0,0-30.54-2.61Z" transform="translate(-45.04 -28.41)" style="fill:#4b4d4a"></path><path d="M826,270.19v-5.08q1.39-.42,4.62-1.2a30.72,30.72,0,0,0,6.8-2.33,12.07,12.07,0,0,0,1.27-6.06l-.07-8.33.14-16.08-.07-3.81q.57-14,.57-14.39l-.14-9.38.21-3.81-.35-8-.15-3a15.08,15.08,0,0,0-.49-2.26c-1.93-.89-5.05-1.45-9.38-1.69-1,0-1.86-.12-2.47-.21l-.14-6.21,20.17.85c2.49.09,4,.14,4.65.14q4.15,0,13.33-.57l6.48-.42c.06.9.09,1.65.09,2.26,0,.8-.06,1.83-.17,3.1q-2.82,1-6.44,1.87a47.1,47.1,0,0,0-6,1.8,25.25,25.25,0,0,0-.42,5.29,46.88,46.88,0,0,0,.21,4.94q-.21,11.91-.21,18.34l.07,18.62-.35,9.45.28,14.11-.21,2.68a4.9,4.9,0,0,0,.42,1.62,73.19,73.19,0,0,0,7.79,1.27c.42.05,1.84.23,4.27.56a27.45,27.45,0,0,1,.29,3.53c0,.52,0,1.32-.08,2.4a10,10,0,0,0-1.4.07c-1.51.09-2.37.14-2.61.14a14.23,14.23,0,0,1-1.83-.21q-1-.15-9.37-1L842.88,269q-3.74,0-10.85.7C828.93,270,826.92,270.14,826,270.19Z" transform="translate(-45.04 -28.41)" style="fill:#4b4d4a"></path><path d="M960.47,180.33q.91,2.11,3.74,12.06a37.14,37.14,0,0,1,1.34,9.59h-6.42q-6.76-9.58-14-13.79a31.33,31.33,0,0,0-16.09-4.2,21.35,21.35,0,0,0-17.63,8.54q-9.09,11.57-9.1,32.23,0,12,1.55,17.07a44.58,44.58,0,0,0,6.42,13.47,20.87,20.87,0,0,0,7.76,6.28,28.68,28.68,0,0,0,13.26,3.18,26.7,26.7,0,0,0,15-4.82q7.23-4.81,13.86-14.37A41.15,41.15,0,0,1,967,245a49.34,49.34,0,0,1-.92,5.55c-.14.75-.68,3.73-1.62,8.92l-.63,2.11-1,3.31q-4.3,3.32-12.1,5a94.14,94.14,0,0,1-19.15,1.66,79.81,79.81,0,0,1-16.4-1.62A39.52,39.52,0,0,1,902,264.76a48.58,48.58,0,0,1-12.63-11,41.58,41.58,0,0,1-6.8-12.91,51.49,51.49,0,0,1-2.22-15.65q0-21,13.86-34.71t35.37-13.68a145,145,0,0,1,16.47.88A101.94,101.94,0,0,1,960.47,180.33Z" transform="translate(-45.04 -28.41)" style="fill:#4b4d4a"></path><path d="M966.17,270.12l.14-4.8c.9-.28,2.47-.63,4.73-1.06,3.62-.7,5.82-1.34,6.59-1.9a12.75,12.75,0,0,0,2.86-4.09L994.73,221l16.71-43.84h7.67l.63,1.27L1032,207.48q4.15,9.24,7.47,18t5.71,14.22q1.41,3.32,3.87,9.94a94.66,94.66,0,0,0,3.88,9,11.08,11.08,0,0,0,2.11,3.46,8.17,8.17,0,0,0,4.13,1.41,25.94,25.94,0,0,1,6.17,1.62,25,25,0,0,1,.36,3.45c0,.33,0,.85-.08,1.56-3.47,0-7.31-.17-11.49-.5s-8-.49-11.29-.49q-5.56,0-8,.14l-12,.64-3.46.14c0-1.65.08-3.22.22-4.73l7.83-1.69a14.73,14.73,0,0,0,4.09-1.41,2.23,2.23,0,0,0,.7-1.63,5.76,5.76,0,0,0-.35-1.9l-2.8-6.91L1023.5,238l-26.92-.07q-1.5,3.39-6.22,16.58a18.88,18.88,0,0,0-1.33,5.08,3.13,3.13,0,0,0,1,2.61c1.08.89,3.15,1.53,6.21,1.9.42.1,2.09.35,5,.78,0,1.69.07,2.87.07,3.52a10.46,10.46,0,0,1-.14,1.63q-4.38,0-20.88-1.2l-2.89.49a61.63,61.63,0,0,1-9.95.85Zm33.18-39.64q16.49.21,19.44.21l1.76-.07q-2.12-6.28-5.5-14.64t-5.5-12.73Z" transform="translate(-45.04 -28.41)" style="fill:#4b4d4a"></path><path d="M1062.44,264.33a49.29,49.29,0,0,1,6.17-1.21c2.65-.39,4.22-.58,4.69-.58,1.83-.05,3.06-.34,3.67-.89a12.16,12.16,0,0,0,.42-2.82l-.14-9,.42-9.18v-5.86l.07-6.91-.14-7.35.28-15.74.07-7.13v-1c-.33-4.94-.64-7.66-1-8.15s-1.66-1.12-4-1.87l-2.68-1.06a18.81,18.81,0,0,0-3.18-1,8.89,8.89,0,0,1-3.45-1.48q-.15-1.83-.15-2.82c0-.38,0-.94.08-1.7a2.75,2.75,0,0,1,1.33-.35q1.69,0,12.28.56l10.08-.07,7.48.15q4.88,0,12.49-.59c1.5-.13,2.37-.19,2.61-.19a1.77,1.77,0,0,1,1.48.56,5,5,0,0,1,.56,2.78,3.48,3.48,0,0,1-.77,2.44c-.29.33-1.32.62-3.11.85l-8.74,2.05c-.24.09-.64.28-1.2.56a8.52,8.52,0,0,0-.43.85l-.07,2-.21,4.45v2c0,.24,0,1.53-.16,3.89,0,.61,0,1.22,0,1.83,0,.76,0,2,.14,3.82q.21,4.23.21,7.41,0,3.67-.21,8.4c0,1.18-.07,2.71-.07,4.59l-.28,33.47c0,1.41.23,2.33.7,2.75l6.7.27,4.17-.07,4.44.07q11.36,0,17.84-2.6,4.88-2,6.35-3.93a20.32,20.32,0,0,0,3.92-4.57,42.72,42.72,0,0,0,3.42-8.15h2.26a28.71,28.71,0,0,1,3.8.28v2q0,5.07-1.27,17.73a28.31,28.31,0,0,1-1,6.19,18.59,18.59,0,0,1-2,.28h-2.61l-3.67.07q-.63,0-8.39-.57-1.41-.06-13.47-.49t-23.63-.42l-14.39.42q-8.33.21-15.59.78h-1.06c-.28,0-.72,0-1.34-.07a8.14,8.14,0,0,1-.14-1.34A13.52,13.52,0,0,1,1062.44,264.33Z" transform="translate(-45.04 -28.41)" style="fill:#4b4d4a"></path><path d="M1239.45,180.89a47.5,47.5,0,0,1,1.27,7.27,105.48,105.48,0,0,1,.85,11.28,14.63,14.63,0,0,1-.29,2.75l-.7.21-5.08-.35-.85-.14q-3.11-9.32-6.2-12.63a16.89,16.89,0,0,0-12.63-5.64q-6.91,0-11,3.64a11.6,11.6,0,0,0-4,9q0,4.51,4,8.68t16.8,8A81.22,81.22,0,0,1,1232,217a30.2,30.2,0,0,1,9.28,6.13,26.06,26.06,0,0,1,5.81,8.43,27.91,27.91,0,0,1,1.59,10.12,36.05,36.05,0,0,1-2.47,13.06,19.68,19.68,0,0,1-4.3,6.42,40.69,40.69,0,0,1-6.56,5,32.31,32.31,0,0,1-9.21,4.13,49,49,0,0,1-12.23,1.27,59.58,59.58,0,0,1-11.78-1.41l-8.47-2.47a13.9,13.9,0,0,1-4.44-1.77,2.6,2.6,0,0,1-.64-1.34v-.77c0-.52-.11-3.74-.35-9.66q-.13-4.59-.14-6.49v-2.68l6.56-.14c2.25,5.23,3.71,8.4,4.37,9.48a23.27,23.27,0,0,0,4.82,5.84,20.07,20.07,0,0,0,6.3,3.54,23.57,23.57,0,0,0,8,1.31,25.11,25.11,0,0,0,8.38-1.63,15.43,15.43,0,0,0,7.36-5.33,13,13,0,0,0,2.78-7.94q0-5.23-4.87-9.68-3-2.76-15.94-7.34t-18-8.19a24.77,24.77,0,0,1-7.9-9.64,26.92,26.92,0,0,1-2.89-11.61,25.61,25.61,0,0,1,8-19.05q8-7.83,23.7-7.83a61.52,61.52,0,0,1,10,1.2A76.11,76.11,0,0,1,1239.45,180.89Z" transform="translate(-45.04 -28.41)" style="fill:#4b4d4a"></path><path d="M1257.49,174.9h4.37c.33.52.57.9.71,1.14a26.14,26.14,0,0,0,3,4.5c.61.14,3.84.21,9.67.21q5.43,0,9.66-.05l1.41-.16,8.54-.07,15.94.07h21.79l4.16-.57c.61-.43,1.27-1.57,2-3.43.19-.43.44-1,.77-1.79l3.11-.07c.47,0,1.17,0,2.11.07q.08,4.88.07,14.68l.07,6.27-.07,3.6a15.42,15.42,0,0,1-.28,3.17,24.54,24.54,0,0,1-5.08,1.13,48.11,48.11,0,0,1-4-8,33.09,33.09,0,0,0-2.72-5.78,4,4,0,0,0-2-1.2q-1.71-.36-15-.35c-1.32,0-3,.09-5,.28a36.12,36.12,0,0,0-.36,4.51l.07,9.45v20.74l.22,22.36-.07,9.17a23.82,23.82,0,0,0,.85,7.34,18.16,18.16,0,0,0,4.18.91c.38.05,2.12.43,5.24,1.13a28.31,28.31,0,0,1,3.76,1.13c.24,1.69.35,2.73.35,3.1a11.5,11.5,0,0,1-.21,1.84c-1,0-1.88.07-2.54.07a122.46,122.46,0,0,1-12.34-.53q-5.09-.53-18.41-.53-2.11,0-12.41.85c-2.68.18-4.42.28-5.22.28,0-.71-.1-1.25-.14-1.62l-.07-1.63v-.56q1.54-2,5.85-3a54.09,54.09,0,0,0,10.16-3.18,8.75,8.75,0,0,0,.84-3.52q.5-8.48.5-27l-.36-26.66q0-11-.42-13.33a1.76,1.76,0,0,0-.49-.95,1.79,1.79,0,0,0-1-.39q-2.19-.29-14.25-.28-6.63,0-8.89,1.27-3,1.76-9.1,9.59c-1.17,1.5-2,2.26-2.6,2.26a15.85,15.85,0,0,1-4.17-2.75q2.19-4.59,6.07-18.34Q1257,176.31,1257.49,174.9Z" transform="translate(-45.04 -28.41)" style="fill:#4b4d4a"></path><path d="M1333.09,270.12l.14-4.8c.9-.28,2.47-.63,4.73-1.06,3.62-.7,5.82-1.34,6.59-1.9a12.75,12.75,0,0,0,2.86-4.09L1361.65,221l16.7-43.84H1386l.63,1.27,12.26,29.06q4.15,9.24,7.47,18t5.71,14.22q1.41,3.32,3.87,9.94a94.66,94.66,0,0,0,3.88,9,11.08,11.08,0,0,0,2.11,3.46,8.17,8.17,0,0,0,4.13,1.41,26.06,26.06,0,0,1,6.17,1.62,24.6,24.6,0,0,1,.35,3.45c0,.33,0,.85-.07,1.56q-5.22,0-11.49-.5c-4.19-.32-8-.49-11.29-.49q-5.57,0-8,.14l-12,.64-3.46.14c0-1.65.07-3.22.22-4.73l7.82-1.69a14.71,14.71,0,0,0,4.1-1.41,2.27,2.27,0,0,0,.7-1.63,5.76,5.76,0,0,0-.35-1.9l-2.8-6.91L1390.42,238l-26.92-.07q-1.5,3.39-6.22,16.58a19,19,0,0,0-1.34,5.08,3.13,3.13,0,0,0,1,2.61c1.08.89,3.15,1.53,6.21,1.9.42.1,2.09.35,5,.78,0,1.69.07,2.87.07,3.52a10.46,10.46,0,0,1-.14,1.63q-4.38,0-20.88-1.2l-2.89.49a61.72,61.72,0,0,1-10,.85Zm33.18-39.64q16.49.21,19.44.21l1.76-.07q-2.12-6.28-5.5-14.64t-5.5-12.73Z" transform="translate(-45.04 -28.41)" style="fill:#4b4d4a"></path><path d="M1430.34,270.61l.14-5.14q1.56-.36,5.15-1.07t7.2-1.62l1.34-.84a23.76,23.76,0,0,0,.7-5.78v-.42l-.28-16.28.07-6.84-.28-10.08.14-12-.85-23.6q-1.05-1-6.84-2a41.79,41.79,0,0,1-4.09-1.13l-1.69-.42v-4.94l9.3.36q8.46.84,24.88.84,8.24,0,17.19-.42l1.34-.07,3.45.07,1.41-.07h3l12.62-.43a21.07,21.07,0,0,0,2.22-.14c.91-.09,1.77-.16,2.57-.21a32.25,32.25,0,0,1,.56,4.23l1.06,13.26a9.71,9.71,0,0,1-.42,3.25,29.34,29.34,0,0,1-3.74.35,3.71,3.71,0,0,1-2.26-.63,15.69,15.69,0,0,1-1.62-3.18q-3-7.12-5-8.43T1486,186l-9.72.28a62.73,62.73,0,0,0-9.79.71,14.42,14.42,0,0,0-2.25.7,8.47,8.47,0,0,0-.92,4.17l.21,8.41-.21,9.62c0,4.9.17,7.91.5,9a2.8,2.8,0,0,0,1,.49l5,.07h8.44a79.6,79.6,0,0,0,8.66-.7c2.67-.33,4.32-.71,4.93-1.13a6.41,6.41,0,0,0,2.42-2.86c.5-1.15.86-4,1.1-8.43.23,0,.87,0,1.9-.07.66,0,1.1-.07,1.34-.07.52,0,1.55.07,3.1.21l-.42,11.29c0,2.4-.11,4.47-.21,6.21l.14,1.55q.07.71.07,10.44c0,.42,0,1.13-.07,2.11a11.23,11.23,0,0,1-2.14.29,22.16,22.16,0,0,1-2.79-.43,29.23,29.23,0,0,1-1.4-3.88c-1.08-3.71-2.26-5.87-3.52-6.49q-3.39-1.68-21.27-1.69a43.39,43.39,0,0,0-6,.5,41.87,41.87,0,0,0-.49,6.84l.35,21.16c0,3.9.47,6.3,1.27,7.19.51.57,2.28,1.13,5.29,1.69l1.41.15a26,26,0,0,1,5.57.91l1.9.43a20.48,20.48,0,0,1,.29,2.86,22.25,22.25,0,0,1-.21,2.71l-1.35-.07-2.18.07-10-.56q-1.7-.07-15.8-.08a60.5,60.5,0,0,0-7.4.43q-5.58.63-6.07.63Q1432,270.68,1430.34,270.61Z" transform="translate(-45.04 -28.41)" style="fill:#4b4d4a"></path><path d="M1515.53,270.61l.15-5.14c1-.24,2.75-.6,5.14-1.07s4.8-1,7.2-1.62l1.34-.84a23.76,23.76,0,0,0,.7-5.78v-.42l-.28-16.28.07-6.84-.28-10.08.14-12-.84-23.6q-1.06-1-6.85-2a41.79,41.79,0,0,1-4.09-1.13l-1.69-.42v-4.94l9.3.36q8.46.84,24.88.84c5.49,0,11.23-.14,17.19-.42l1.34-.07,3.45.07,1.42-.07h3l12.61-.43a21.07,21.07,0,0,0,2.22-.14c.91-.09,1.77-.16,2.57-.21a32.25,32.25,0,0,1,.56,4.23l1.06,13.26a9.71,9.71,0,0,1-.42,3.25,29.18,29.18,0,0,1-3.74.35,3.71,3.71,0,0,1-2.26-.63,15.34,15.34,0,0,1-1.61-3.18q-3-7.12-5-8.43t-11.58-1.3l-9.72.28a62.73,62.73,0,0,0-9.79.71,14.42,14.42,0,0,0-2.25.7,8.47,8.47,0,0,0-.92,4.17l.22,8.41-.22,9.62c0,4.9.17,7.91.5,9a2.8,2.8,0,0,0,1,.49l5,.07h8.45a79.64,79.64,0,0,0,8.65-.7q4-.5,4.93-1.13a6.5,6.5,0,0,0,2.43-2.86q.74-1.72,1.09-8.43c.23,0,.87,0,1.9-.07.66,0,1.11-.07,1.34-.07.52,0,1.55.07,3.11.21l-.43,11.29q0,3.6-.21,6.21l.14,1.55q.07.71.07,10.44c0,.42,0,1.13-.07,2.11a11.13,11.13,0,0,1-2.14.29,22.16,22.16,0,0,1-2.79-.43,29.23,29.23,0,0,1-1.4-3.88c-1.08-3.71-2.26-5.87-3.52-6.49q-3.39-1.68-21.26-1.69a43.4,43.4,0,0,0-6.06.5,41.87,41.87,0,0,0-.49,6.84l.35,21.16c0,3.9.47,6.3,1.27,7.19q.78.86,5.29,1.69l1.41.15a25.91,25.91,0,0,1,5.57.91l1.91.43a21.78,21.78,0,0,1,.28,2.86,22.25,22.25,0,0,1-.21,2.71l-1.34-.07-2.19.07-10-.56q-1.68-.07-15.8-.08a60.5,60.5,0,0,0-7.4.43q-5.58.63-6.07.63Q1517.22,270.68,1515.53,270.61Z" transform="translate(-45.04 -28.41)" style="fill:#4b4d4a"></path><path d="M1602.28,270.19v-5.08q1.4-.42,4.62-1.2a30.72,30.72,0,0,0,6.8-2.33,12.07,12.07,0,0,0,1.27-6.06l-.07-8.33.14-16.08-.07-3.81q.57-14,.57-14.39l-.14-9.38.21-3.81-.35-8-.15-3a15.08,15.08,0,0,0-.49-2.26c-1.93-.89-5-1.45-9.38-1.69-1,0-1.86-.12-2.47-.21l-.14-6.21,20.17.85c2.49.09,4,.14,4.65.14q4.15,0,13.33-.57l6.48-.42c.06.9.09,1.65.09,2.26,0,.8-.06,1.83-.17,3.1q-2.82,1-6.44,1.87a47.1,47.1,0,0,0-6,1.8,25.25,25.25,0,0,0-.42,5.29,46.88,46.88,0,0,0,.21,4.94q-.21,11.91-.21,18.34l.07,18.62-.35,9.45.28,14.11-.21,2.68a4.9,4.9,0,0,0,.42,1.62,73.19,73.19,0,0,0,7.79,1.27c.42.05,1.84.23,4.28.56a29.1,29.1,0,0,1,.28,3.53c0,.52,0,1.32-.07,2.4a10.1,10.1,0,0,0-1.41.07c-1.51.09-2.38.14-2.61.14a14.23,14.23,0,0,1-1.83-.21q-1-.15-9.37-1l-12.46-.14q-3.73,0-10.85.7C1605.24,270,1603.22,270.14,1602.28,270.19Z" transform="translate(-45.04 -28.41)" style="fill:#4b4d4a"></path><path d="M1650.86,184.42l-.28-4.94h6l2-.07q4.23-.21,5.85-.21c.57,0,2.21.05,4.94.14.61,0,1.13.07,1.55.07s1.91,0,4.45-.14,4-.14,4.3-.14c.52,0,1.25,0,2.19.07q10.86,9.87,17.7,17t49.94,49.86V244.3l-.28-8.18c-.14-4.8-.33-8.59-.57-11.39s-.37-6.14-.42-10-.21-7.39-.49-10.54q-.85-9.24-.85-10.65-.08-4.59-1-5.58c-1-1-3.24-1.81-6.77-2.32a20.38,20.38,0,0,1-5.78-1.63l.07-4.16,1.83-.21,13.9-.42,15.51-.43c1,0,2-.07,3-.07l.07,4.59a15.32,15.32,0,0,1-3.32,1.27,29.8,29.8,0,0,0-5.22,1.48,21.58,21.58,0,0,0-3.88,2.47,4.36,4.36,0,0,0-.63,2.61c0,.28,0,1.27.14,3,.05.85.07,2.82.07,5.93q.07,10.22.56,16.15c.1,1.27.17,2.7.22,4.3l.77,24.76c0,1.74.07,3,.07,3.67v8.67l.21,3.67-.21,3.81c.19,1.93.28,3.08.28,3.45v3.74l-8.11.28-8.39-8.67-17.14-17-12-12-8.82-9q-8.61-8.46-15.66-14.88l-11.49-10.37.63,26.24c.05,1.6.07,3.24.07,4.94l-.07,5,.42,9.24c.15,3.86.4,8,.78,12.56a14.53,14.53,0,0,0,.35,2.57,17,17,0,0,0,.85,2.15q2.74,1,12,1.49c.42.09,1,.25,1.83.49l.29,5.71-2.76.07q-2.25,0-14.24-1-11.22.13-15,.42c-2.49.19-3.85.28-4.09.28a13.12,13.12,0,0,1-2.33-.28c-.09-1.08-.14-2-.14-2.82,0-.52,0-1.37.07-2.54a18.71,18.71,0,0,1,3.25-.35c.28,0,1.2,0,2.75.14,3.95,0,6.29-.3,7-.88s1.14-2.18,1.23-4.77q.49-11.2.5-13.68v-3.88l.14-22.92-.21-14.32q-.08-8.19-1.06-11.36a6.17,6.17,0,0,0-1.62-2.82,16.76,16.76,0,0,0-5.51-3.81Q1658.55,185.63,1650.86,184.42Z" transform="translate(-45.04 -28.41)" style="fill:#4b4d4a"></path><path d="M1859.63,184.77a77.54,77.54,0,0,1,1.13,8.08c.42,4,.63,6.94.63,8.78a8.92,8.92,0,0,1-.49,2.61,25.79,25.79,0,0,1-5.15-.57q-5.36-8.25-7.55-10.37a34.6,34.6,0,0,0-10.51-6.7,27.18,27.18,0,0,0-10.86-2q-11.77,0-20.74,10.57t-8.95,31.43a53.35,53.35,0,0,0,3.49,19,31.54,31.54,0,0,0,10.47,14.48,26.61,26.61,0,0,0,16.44,5.25,43.48,43.48,0,0,0,9.73-1.19,8.11,8.11,0,0,0,4.23-2.25,5.9,5.9,0,0,0,1.48-3.37,89.36,89.36,0,0,0,.57-11.59q0-7.3-.21-10a3.46,3.46,0,0,0-1-1.37,14.18,14.18,0,0,0-2.85-1l-6.28-1.69a4.38,4.38,0,0,1-2.54-1.2,10.41,10.41,0,0,1-.14-1.34,11,11,0,0,1,.49-2.75,6.87,6.87,0,0,1,1.77-.42q7.68,0,13.33.51c1.31.08,2.75.13,4.3.13l11.14-.15,4.73-.14c.56,0,2.14,0,4.73.14,0,1.23.07,2.26.07,3.11a4,4,0,0,1-.5,1.76,27.29,27.29,0,0,1-4.09,1.8,14.65,14.65,0,0,0-3.24,1.43,3.24,3.24,0,0,0-.78,1.77c-.14.79-.21,3.59-.21,8.37q0,8.31-.07,9.93-.29,5.22-.28,5.92c0,1.74-.24,2.82-.71,3.24q-2,2-12.24,4.47a101.36,101.36,0,0,1-23.87,2.5,79.19,79.19,0,0,1-16.54-1.52,39.09,39.09,0,0,1-12-4.48,44,44,0,0,1-11.35-9.59,39.49,39.49,0,0,1-7.06-12.2,56.16,56.16,0,0,1-3.24-18.55,51,51,0,0,1,4.79-21,45.92,45.92,0,0,1,9.92-13.86,46.66,46.66,0,0,1,16-9.84,58.14,58.14,0,0,1,20.88-3.67,45.92,45.92,0,0,1,4.58.36,57.78,57.78,0,0,1,16.09,2.15A52.45,52.45,0,0,1,1859.63,184.77Z" transform="translate(-45.04 -28.41)" style="fill:#4b4d4a"></path><line x1="438.4" y1="304.87" x2="1803.03" y2="298.73" style="fill:none"></line><line x1="447.62" y1="293.6" x2="1813.28" y2="293.6" style="fill:#666;stroke:#000;stroke-miterlimit:10;stroke-width:2px"></line><path d="M530,376.77c.3.71.93,2.72,1.87,6a19,19,0,0,1,.67,4.8h-3.21a23.39,23.39,0,0,0-7-6.9,15.61,15.61,0,0,0-8-2.1,10.67,10.67,0,0,0-8.81,4.27Q501,388.66,501,399a33,33,0,0,0,.77,8.53,22.38,22.38,0,0,0,3.21,6.74,10.48,10.48,0,0,0,3.88,3.14,14.34,14.34,0,0,0,6.63,1.59,13.39,13.39,0,0,0,7.5-2.41,26.88,26.88,0,0,0,6.93-7.19,21.13,21.13,0,0,1,3.42-.28,27.26,27.26,0,0,1-.46,2.78c-.07.37-.34,1.86-.81,4.46l-.32,1-.49,1.66a15.05,15.05,0,0,1-6.05,2.48,47.12,47.12,0,0,1-9.58.83,39.94,39.94,0,0,1-8.2-.81,19.8,19.8,0,0,1-6.61-2.57,24.28,24.28,0,0,1-6.31-5.51,20.84,20.84,0,0,1-3.41-6.45A25.8,25.8,0,0,1,490,399.2q0-10.51,6.93-17.35T514.58,375a71.44,71.44,0,0,1,8.24.44A50.54,50.54,0,0,1,530,376.77Z" transform="translate(-45.04 -28.41)" style="fill:#15456f"></path><path d="M542.21,419.51a8,8,0,0,1,2.71-.72,14.48,14.48,0,0,0,3.25-.76,7.64,7.64,0,0,0,.21-1c0-.33.07-1.46.07-3.39l0-7.86.14-4.23-.07-3.28.07-1.91q.11-3.84.1-7.19,0-7.33-.17-9.38l-2.08-.43a36,36,0,0,1-3.81-.35l-.07-2.11.14-.39a20.28,20.28,0,0,1,3.24-.28l3.28,0c1.69.14,2.61.21,2.75.21l1.87-.1,4.41-.22a86,86,0,0,1,8.71-.42q7.23,0,11.5,3.69t4.27,8.44a10.17,10.17,0,0,1-2.31,6.48,14,14,0,0,1-7.08,4.39,19.76,19.76,0,0,0,1.13,1.72c1,1.41,1.78,2.61,2.39,3.6l5.62,9.14a26.63,26.63,0,0,0,2.77,4.24,8.13,8.13,0,0,0,2.7,1.36,11.4,11.4,0,0,1,2.43,1.2,3.25,3.25,0,0,1,.21,1.06q0,.32,0,.81h-1l-.7,0-1.84-.25h-1.44a18.19,18.19,0,0,0-2.79-.18l-3.53,0c-.25,0-1.08.08-2.46.24l-1.52.18-1.2-2.33q-1.49-2.64-2.08-3.95-1.56-3.42-5.33-10.89c-1.17-2.31-2-3.61-2.46-3.92a6.67,6.67,0,0,0-3.64-.74c-.47,0-1.27,0-2.4.07-.07.68-.1,1.5-.1,2.43l.18,7.83L558,416.9a8,8,0,0,0,2.58.92,28.91,28.91,0,0,1,4.72,1.34,17.12,17.12,0,0,1-.14,2.61l-.84,0-1.45.07q-7.57-.68-9-.67c-.61,0-1,0-1.31,0l-4.86.32a38.47,38.47,0,0,1-4.06.25h-1.52c0-.59-.07-1-.07-1.13A8.19,8.19,0,0,1,542.21,419.51Zm15.87-22.81c1.13,0,1.95.07,2.47.07,4,0,6.83-.72,8.5-2.15a7.21,7.21,0,0,0,2.5-5.75,13.85,13.85,0,0,0-.61-4.18,7.43,7.43,0,0,0-1.53-2.91A8.14,8.14,0,0,0,566,379.7a16.44,16.44,0,0,0-5-.53,19.93,19.93,0,0,0-2.77.17l-.08.67.08,4.77-.11,2.89,0,3.84c0,1.08-.08,2.48-.1,4.2Z" transform="translate(-45.04 -28.41)" style="fill:#15456f"></path><path d="M594.67,376c1.34.07,2.5.18,3.49.32a47.14,47.14,0,0,0,6.45.38q1.27,0,6.52-.21,7.88-.31,14.22-.31l6.38-.07a55.43,55.43,0,0,1,6.35.52,2.77,2.77,0,0,1,.63,1.91v7.26l.07,1.45q0,.21,0,.63l-1.45.08c-.19,0-.58,0-1.2-.08-.21-.47-.49-1.16-.84-2.08l-1.41-2.5a16.19,16.19,0,0,0-2.26-3.24,9.5,9.5,0,0,0-2.26-.29l-2.15-.17c-2.18-.19-4.54-.29-7-.29q-4.3,0-7.69.15c-.07.58-.11,2.9-.11,6.94l0,5.93v4.44a13.36,13.36,0,0,0,1.52.11q6.33,0,9-.25a8.53,8.53,0,0,0,3.32-.69,3.56,3.56,0,0,0,1.14-1.53,49.77,49.77,0,0,0,1.23-5.18l.46,0,2.05,0c.09,2.09.14,3.67.14,4.76,0,2.46,0,4.05-.06,4.76s0,1.26,0,1.65c0,.64,0,1.66.11,3.06s.1,2.44.1,3.12v.77h-2.5c-.1-.37-.27-1.15-.53-2.33A14.63,14.63,0,0,0,627,401a2.61,2.61,0,0,0-1.42-.95,28.23,28.23,0,0,0-5.23-.25q-5.34,0-8,.29v1.2q0,4.19.14,7l-.07,7.62a1.88,1.88,0,0,0,.95,1.83q1.46.74,8.85.74a40.32,40.32,0,0,0,8.33-.74,8.29,8.29,0,0,0,4.16-2.36,17.9,17.9,0,0,0,4-6.63c.73-.07,1.33-.11,1.8-.11.26,0,.65,0,1.17,0-.07.58-.13,1.08-.18,1.48l-.21,1.06L640,417.82l-.63,4c-1.53.07-2.74.11-3.63.11q-2,0-10.55-.36-6-.24-14.55-.24-4.23,0-10.41.35h-1.48l-4.27.14v-2.43a21.23,21.23,0,0,1,2.68-.39,17,17,0,0,0,5.08-1.13,7.28,7.28,0,0,0,.39-2.57c0-.4,0-1.08,0-2.05l0-1.09-.11-13.3,0-4-.18-5.64,0-4-.31-4.37c0-.12,0-.36-.07-.71a1.73,1.73,0,0,0-1.06-.49l-1.06-.21A22.55,22.55,0,0,0,596,379c-.45,0-1-.07-1.55-.14Z" transform="translate(-45.04 -28.41)" style="fill:#15456f"></path><path d="M647.09,421.67l.07-2.4a22.47,22.47,0,0,1,2.36-.53,11,11,0,0,0,3.3-.95,6.56,6.56,0,0,0,1.43-2.05l7.12-18.64,8.35-21.92h3.83l.32.64L680,390.35q2.09,4.62,3.74,9t2.85,7.11c.47,1.11,1.12,2.76,1.94,5a46.08,46.08,0,0,0,1.94,4.52,5.56,5.56,0,0,0,1,1.72,4,4,0,0,0,2.07.71,13.43,13.43,0,0,1,3.08.81,12.55,12.55,0,0,1,.18,1.73c0,.16,0,.42,0,.78-1.74,0-3.65-.09-5.75-.25s-4-.25-5.64-.25c-1.86,0-3.2,0-4,.07l-6,.32-1.73.07c0-.82,0-1.61.1-2.36l3.92-.85a7.3,7.3,0,0,0,2-.7,1.12,1.12,0,0,0,.36-.82,2.79,2.79,0,0,0-.18-.95l-1.4-3.45-2.77-6.92-13.46,0q-.75,1.69-3.11,8.29a9.68,9.68,0,0,0-.67,2.54,1.56,1.56,0,0,0,.5,1.3,6.35,6.35,0,0,0,3.1.95c.21.05,1,.18,2.5.39,0,.85,0,1.43,0,1.76a4.59,4.59,0,0,1-.07.81c-1.46,0-4.94-.19-10.44-.59l-1.45.24a31.31,31.31,0,0,1-5,.43Zm16.59-19.83c5.49.08,8.73.11,9.72.11l.88,0c-.71-2.1-1.62-4.54-2.75-7.32s-2-4.91-2.75-6.37Z" transform="translate(-45.04 -28.41)" style="fill:#15456f"></path><path d="M702.79,374.05H705l.36.58a12.56,12.56,0,0,0,1.51,2.25c.31.07,1.92.1,4.84.1l4.83,0,.7-.08,4.27,0,8,0h10.9l2.08-.29a4,4,0,0,0,1-1.71c.09-.22.22-.51.38-.9l1.56,0,1,0c0,1.63,0,4.07,0,7.34l0,3.14,0,1.8a8,8,0,0,1-.14,1.58,12.39,12.39,0,0,1-2.54.57,23.53,23.53,0,0,1-2-4,16.14,16.14,0,0,0-1.36-2.89,2,2,0,0,0-1-.6c-.57-.12-3.06-.17-7.49-.17-.67,0-1.49,0-2.48.14a18,18,0,0,0-.18,2.25l0,4.73v10.37l.1,11.18,0,4.58a12.1,12.1,0,0,0,.42,3.67,9.42,9.42,0,0,0,2.1.46c.18,0,1.06.21,2.62.56a15.16,15.16,0,0,1,1.88.57c.11.84.17,1.36.17,1.55a5.68,5.68,0,0,1-.1.92l-1.27,0q-3.63,0-6.17-.26t-9.21-.27q-1.05,0-6.21.43c-1.34.09-2.21.14-2.61.14,0-.36,0-.63-.07-.81l0-.82v-.28a5,5,0,0,1,2.93-1.51,27,27,0,0,0,5.07-1.59,4.41,4.41,0,0,0,.43-1.76q.24-4.25.24-13.48l-.17-13.33a57.24,57.24,0,0,0-.21-6.66.88.88,0,0,0-.25-.48.81.81,0,0,0-.49-.19c-.73-.1-3.11-.14-7.13-.14a10.34,10.34,0,0,0-4.44.63q-1.51.89-4.55,4.8c-.59.75-1,1.13-1.31,1.13a8.17,8.17,0,0,1-2.08-1.38,70.15,70.15,0,0,0,3-9.17C702.35,375.43,702.62,374.53,702.79,374.05Z" transform="translate(-45.04 -28.41)" style="fill:#15456f"></path><path d="M753.73,376c1.34.07,2.5.18,3.49.32a47.24,47.24,0,0,0,6.45.38c.85,0,3-.07,6.53-.21q7.86-.31,14.21-.31l6.38-.07a55.43,55.43,0,0,1,6.35.52,2.77,2.77,0,0,1,.64,1.91v7.26l.07,1.45c0,.14,0,.35,0,.63l-1.44.08c-.19,0-.59,0-1.2-.08-.22-.47-.5-1.16-.85-2.08l-1.41-2.5a15.79,15.79,0,0,0-2.26-3.24,9.48,9.48,0,0,0-2.25-.29l-2.16-.17q-3.27-.28-7-.29-4.31,0-7.69.15c-.07.58-.1,2.9-.1,6.94l0,5.93v4.44a13.36,13.36,0,0,0,1.52.11q6.33,0,9-.25a8.65,8.65,0,0,0,3.33-.69,3.63,3.63,0,0,0,1.13-1.53,49.77,49.77,0,0,0,1.23-5.18l.46,0,2,0c.09,2.09.14,3.67.14,4.76,0,2.46,0,4.05,0,4.76s-.06,1.26-.06,1.65c0,.64,0,1.66.11,3.06s.11,2.44.11,3.12v.77H787.9c-.09-.37-.27-1.15-.53-2.33A14.29,14.29,0,0,0,786.1,401a2.58,2.58,0,0,0-1.41-.95,28.46,28.46,0,0,0-5.24-.25c-3.55,0-6.23.1-8,.29v1.2q0,4.19.14,7l-.07,7.62a1.88,1.88,0,0,0,1,1.83q1.45.74,8.86.74a40.28,40.28,0,0,0,8.32-.74,8.29,8.29,0,0,0,4.16-2.36,18,18,0,0,0,4-6.63c.72-.07,1.32-.11,1.79-.11.26,0,.65,0,1.17,0-.07.58-.13,1.08-.17,1.48l-.21,1.06-1.29,6.66-.62,4c-1.53.07-2.75.11-3.64.11-1.32,0-4.83-.12-10.55-.36q-6-.24-14.54-.24-4.25,0-10.42.35h-1.48l-4.27.14v-2.43a21.23,21.23,0,0,1,2.68-.39,16.94,16.94,0,0,0,5.08-1.13,7.28,7.28,0,0,0,.39-2.57c0-.4,0-1.08,0-2.05l0-1.09-.11-13.3,0-4-.18-5.64,0-4-.32-4.37a5.87,5.87,0,0,0-.07-.71,1.73,1.73,0,0,0-1.06-.49l-1.06-.21a22.55,22.55,0,0,0-3.88-.5c-.44,0-1-.07-1.55-.14Z" transform="translate(-45.04 -28.41)" style="fill:#15456f"></path><path d="M830.5,421.37a1.57,1.57,0,0,1,.6-.37,10.62,10.62,0,0,1,2-.29,14.16,14.16,0,0,0,4.23-.63,3.41,3.41,0,0,0,.5-2l0-2.47,0-9-.07-4.24,0-8.86-.17-10.07c0-2.4-.18-3.76-.46-4.06-.43-.45-1.68-.71-3.78-.78a15.79,15.79,0,0,1-2.36-.21.75.75,0,0,1-.46-.64,1.64,1.64,0,0,1,.18-.67,1.26,1.26,0,0,1,.56-.17l1.2,0a42.85,42.85,0,0,0,4.3.21l2.61-.07,6.21.14q4.67,0,7.27-.1c1.74-.07,2.91-.11,3.52-.11s1.88.05,4,.14l5,0,.6.1,2.93-.1.35.17a2,2,0,0,1,.25.6,10.38,10.38,0,0,1-.16,1.52,11.19,11.19,0,0,0-.16,1.27c0,2.45.08,4.51.25,6.21a.35.35,0,0,1-.21.28,2.17,2.17,0,0,1-.69-.11,17.35,17.35,0,0,1-1-2.36,27.85,27.85,0,0,0-2-3.91,5.51,5.51,0,0,0-1.38-1.77,4.92,4.92,0,0,0-2-.28l-3.22-.07-1.51,0-10.06.21h-.88c-1.3,0-2.08.16-2.33.49-.4.56-.6,2.22-.6,5,0,.28.06,3.11.17,8.47v4.9a3.25,3.25,0,0,0,.85.1h.6l1.76,0c1.22.05,2,.07,2.47.07s.53,0,.74,0q3.81-.15,9.81-.15c1.24-.21,2-.45,2.18-.74a7.4,7.4,0,0,0,.8-3.31c.17-1.79.57-2.8,1.18-3a2,2,0,0,1,.84.17,2.09,2.09,0,0,1,.07.53,6.53,6.53,0,0,1-.07.81q-.16,1.31-.17,8.18c0,1.23.06,2.59.19,4.1s.2,2.31.2,2.43a4.6,4.6,0,0,1-.11.84,1.05,1.05,0,0,1-.46.15h-.25a13.17,13.17,0,0,1-1.09-3.07c-.61-2.38-1.25-3.86-1.92-4.46a4.83,4.83,0,0,0-3.26-.9l-1.8.05c-.87,0-2.17.05-3.88.05h-2.29a59.92,59.92,0,0,0-6.42.21l0,1.17,0,6.5,0,4.1,0,4c0,2.4.17,3.79.46,4.17s1.27.78,2.61.78l2.15,0,2.2.05q1.92.06,4.74.06A44.25,44.25,0,0,0,865,420a7.91,7.91,0,0,0,3.72-2.07q1.45-1.49,3.68-6.4c.45-1,.9-1.45,1.34-1.45a1.22,1.22,0,0,1,.71.28,39.07,39.07,0,0,0-1.16,4.58,38.06,38.06,0,0,0-.46,5.05,3.21,3.21,0,0,1-.57,1.94h-.77l-9.91.1-4.45,0-10.58.14h-4.3c-.54,0-1,0-1.52,0q-6.35.28-9.34.29a1.06,1.06,0,0,1-.72-.18.63.63,0,0,1-.2-.51Z" transform="translate(-45.04 -28.41)" style="fill:#15456f"></path><path d="M880.8,395.53a5.07,5.07,0,0,1-.07-.79v-.47a4.84,4.84,0,0,1,1.24-.15h1.3c2,.07,3.29.11,3.81.11,1.62,0,3.27,0,4.94-.07l1.9,0h.85a2,2,0,0,1,.24.74,1.27,1.27,0,0,1-.14.5l-.52.07a9.8,9.8,0,0,0-3.23.64.52.52,0,0,0-.28.46,3.3,3.3,0,0,0,.85,1.68q4.09,5.35,5.57,6.9a57.19,57.19,0,0,0,4-5.69,4.76,4.76,0,0,0,.64-2,1.76,1.76,0,0,0-.63-1.37,7.25,7.25,0,0,0-3.11-.9,1.44,1.44,0,0,1-.28-.71l.11-.35.91,0,1.24,0c1,.07,2,.11,3,.11l2.68-.05c1.27,0,2.23-.06,2.89-.06h1.63a.64.64,0,0,1,.45.57,1.77,1.77,0,0,1-.07.45c-.37.1-.83.19-1.37.29a9.83,9.83,0,0,0-3.7,1.38,9.63,9.63,0,0,0-2.65,2.6l-5,6.75,5.09,6.41c2.34,3.18,3.77,5,4.3,5.61a7.56,7.56,0,0,0,1.72,1.37,11.51,11.51,0,0,0,2.69,1c0,.28,0,.53,0,.74a2.42,2.42,0,0,1-.14.67c-.42,0-2.57-.06-6.43-.18l-3.4.07c-.64,0-1.25,0-1.84,0s-1.21,0-2-.07l.1-1.06c.36-.07.75-.15,1.17-.25a6.3,6.3,0,0,0,2.59-.95,1.1,1.1,0,0,0,.46-.84q0-.78-4.76-6.51l-2.06-2.48a27.53,27.53,0,0,0-3.31,4.19,25.68,25.68,0,0,1-1.67,2.37,4,4,0,0,0-1.2,2.34.87.87,0,0,0,.43.64,8,8,0,0,0,2.46.79,19.24,19.24,0,0,1,1.94.45,3.82,3.82,0,0,1,.11.72,4.63,4.63,0,0,1-.07.69c-1.81-.09-3.58-.14-5.29-.14q-3.24,0-4.71.09c-1,.06-1.58.09-1.82.09s-.72,0-1.34-.07a3.23,3.23,0,0,1-.14-.74l.07-.46a3.45,3.45,0,0,1,1.24-.32,7.66,7.66,0,0,0,4.19-1.76q1.84-1.52,8.12-10.08l-4.7-5.66-5-6a3.06,3.06,0,0,0-.53-.42,4.77,4.77,0,0,0-1.51-.49C881.88,395.77,881.2,395.63,880.8,395.53Z" transform="translate(-45.04 -28.41)" style="fill:#15456f"></path><path d="M926.56,387.07l1.09,0,.14,3.35-.07,4.34.85,0c.61,0,1.77-.05,3.49-.14,1.1-.07,2.16-.11,3.17-.11.47,0,1.18,0,2.12,0a10.86,10.86,0,0,1,.07,1.12,7.83,7.83,0,0,1-.21,1.45h-.6l-5.47.18-2.71.07-.64.07a6.62,6.62,0,0,0-.28,2l.11,5.29-.08,9.31c0,2.45.32,4.07,1,4.87a3.22,3.22,0,0,0,2.75,1.24,19.34,19.34,0,0,0,3.45-.57,6.32,6.32,0,0,0,2.08-1.16h.32a.67.67,0,0,1,.71.7l0,.25a9.16,9.16,0,0,1-3.47,2.41,14.61,14.61,0,0,1-5.2.76,6.36,6.36,0,0,1-3.79-1.06,4.73,4.73,0,0,1-1.93-2.5,28.82,28.82,0,0,1-.42-6.31l.14-7.94,0-3.81v-1.41c0-.65,0-1.31-.07-2l-.6,0-2.9.11-.28,0a.82.82,0,0,1-.58-.17.56.56,0,0,1-.19-.43.89.89,0,0,1,.26-.68,6.21,6.21,0,0,1,1.61-.83,8.53,8.53,0,0,0,2.13-1.46,11.6,11.6,0,0,0,2.06-2.39,21.31,21.31,0,0,0,1.2-2.68C926.09,388.15,926.37,387.47,926.56,387.07Z" transform="translate(-45.04 -28.41)" style="fill:#15456f"></path><path d="M942.58,422l-.14-.46a1.67,1.67,0,0,1,.32-.74l2.08-.42,2.93-.53a1,1,0,0,0,.49-.49,9.61,9.61,0,0,0,.21-2.72q0-12-.14-13.82a4,4,0,0,0-.63-2.34,5.24,5.24,0,0,0-2.54-.77,8.76,8.76,0,0,1-1.91-.46l.14-1.07a20.39,20.39,0,0,0,5-2.62,13.21,13.21,0,0,0,3-4.17l1.2,0c.14,1.18.22,3.79.22,7.83l0,.6a4.42,4.42,0,0,0,.07.67,20.54,20.54,0,0,1,3.35-4.48l.81-.81a5.34,5.34,0,0,1,.95-.88,8.4,8.4,0,0,1,3.67-1.48,3.32,3.32,0,0,1,2.54,1,3.55,3.55,0,0,1,1,2.55,2.45,2.45,0,0,1-.71,1.87,3.11,3.11,0,0,1-2.18.89,8.33,8.33,0,0,1-2.22-.6,8.62,8.62,0,0,0-2.19-.6,2.26,2.26,0,0,0-1.38.31,12,12,0,0,0-2.4,3.18,6.55,6.55,0,0,0-1.09,3.31l.18,5.84.07,7a5.31,5.31,0,0,0,.28,1.56,2.2,2.2,0,0,0,.71.6c2.53.21,4,.36,4.51.46s.58,0,.74.07a4.31,4.31,0,0,1,2.12.42.57.57,0,0,1,.31.53,1,1,0,0,1-.28.57l-3.91-.07-1.48,0-2.16,0h-3.59l-1.94.1Z" transform="translate(-45.04 -28.41)" style="fill:#15456f"></path><path d="M997.51,417.12a1.8,1.8,0,0,1,.21.67,4.54,4.54,0,0,1-.85,1.87,7.66,7.66,0,0,1-2.43,2.57,4.39,4.39,0,0,1-2.33.53,4.66,4.66,0,0,1-3.81-1.55,6.68,6.68,0,0,1-1.09-3.28l-4,2.75a16.29,16.29,0,0,1-3.17,1.51,16.86,16.86,0,0,1-4.24.46,3.63,3.63,0,0,1-3.88-3.84q0-2.43,3-5.82a22,22,0,0,1,8.11-5.54c2.41-1,3.88-1.65,4.42-1.94,0-.77.07-1.62.07-2.54q0-4.47-1.25-6.06a4.32,4.32,0,0,0-3.59-1.59,6.78,6.78,0,0,0-4.57,1.9q-1.3,1.2-2,4.52a7.34,7.34,0,0,1-.81,2,4.92,4.92,0,0,1-2.43,1,2.31,2.31,0,0,1-1.41-.46.68.68,0,0,1-.36-.56c0-.61.66-2,2-4.14a12.93,12.93,0,0,1,4.94-4.84,11.3,11.3,0,0,1,5.2-1.6,13.68,13.68,0,0,1,4.51.55,6.54,6.54,0,0,1,4,4.92c.09.51.14,2.36.14,5.53l-.11,5.61,0,4.09c0,.54,0,1,0,1.38,0,.68,0,1.18,0,1.51a2.58,2.58,0,0,0,.67,1.87,2.12,2.12,0,0,0,1.59.71,2.78,2.78,0,0,0,2.29-1.34l.42-.57A3.3,3.3,0,0,1,997.51,417.12Zm-10.34-1c.17-3,.25-5.09.25-6.31,0-.63,0-1.49-.1-2.57a24.23,24.23,0,0,0-5,2.57,14.81,14.81,0,0,0-4.21,4,5.37,5.37,0,0,0-1.13,3.06,3.08,3.08,0,0,0,.94,2.3,3.2,3.2,0,0,0,2.35.91,6.28,6.28,0,0,0,2.65-.77A17.41,17.41,0,0,0,987.17,416.09Z" transform="translate(-45.04 -28.41)" style="fill:#15456f"></path><path d="M1004.36,407.73a15,15,0,0,1,1-5.13,15,15,0,0,1,7.39-8.13,18.73,18.73,0,0,1,7.83-1.48A15.26,15.26,0,0,1,1036,408.37a13.59,13.59,0,0,1-4.63,10.07,16.32,16.32,0,0,1-11.73,4.42,15.9,15.9,0,0,1-8.25-2.29,14.69,14.69,0,0,1-5-5.11A14.44,14.44,0,0,1,1004.36,407.73ZM1020,421.49a10.13,10.13,0,0,0,5.18-1.45,10,10,0,0,0,4-4.63,17.35,17.35,0,0,0,1.48-7.39,21.48,21.48,0,0,0-1.15-6.39,10.63,10.63,0,0,0-3.53-5.45,9,9,0,0,0-5.6-1.81,11.46,11.46,0,0,0-4.75,1.09,9.11,9.11,0,0,0-4.1,4.2q-1.66,3.1-1.67,8.82,0,6.42,2.91,9.71A9.28,9.28,0,0,0,1020,421.49Z" transform="translate(-45.04 -28.41)" style="fill:#15456f"></path><path d="M1043.7,422l-.14-.46a1.67,1.67,0,0,1,.32-.74l2.08-.42,2.93-.53a1.06,1.06,0,0,0,.49-.49,9.61,9.61,0,0,0,.21-2.72q0-12-.14-13.82a4.12,4.12,0,0,0-.63-2.34,5.24,5.24,0,0,0-2.54-.77,8.76,8.76,0,0,1-1.91-.46l.14-1.07a20.39,20.39,0,0,0,5-2.62,13.21,13.21,0,0,0,3-4.17l1.2,0q.21,1.77.21,7.83l0,.6a4.42,4.42,0,0,0,.07.67,20.54,20.54,0,0,1,3.35-4.48l.81-.81a5.34,5.34,0,0,1,1-.88,8.4,8.4,0,0,1,3.67-1.48,3.33,3.33,0,0,1,2.54,1,3.55,3.55,0,0,1,1,2.55,2.45,2.45,0,0,1-.71,1.87,3.11,3.11,0,0,1-2.18.89,8.46,8.46,0,0,1-2.23-.6,8.48,8.48,0,0,0-2.18-.6,2.26,2.26,0,0,0-1.38.31,12,12,0,0,0-2.4,3.18,6.46,6.46,0,0,0-1.09,3.31l.18,5.84.07,7a5.31,5.31,0,0,0,.28,1.56,2.25,2.25,0,0,0,.7.6c2.54.21,4,.36,4.52.46s.57,0,.74.07a4.31,4.31,0,0,1,2.12.42.57.57,0,0,1,.31.53,1,1,0,0,1-.28.57l-3.91-.07-1.48,0-2.16,0h-3.59l-1.94.1Z" transform="translate(-45.04 -28.41)" style="fill:#15456f"></path><path d="M1095.7,396.31l0-1,0-4.13,0-7.79c0-2.17-.24-3.54-.71-4.13s-1.85-1.19-4.13-1.8l-.77-.21v-.39a4.59,4.59,0,0,1,.07-.78,38.12,38.12,0,0,0,8.25-1.65l1.8,0c.09,1.6.14,3.39.14,5.36l-.14,13.58.25,15.31-.11,8.14c0,1.67.12,2.61.35,2.83.47.46,1.51.71,3.11.74.33,0,.77,0,1.34.07V421a5.11,5.11,0,0,1,0,.53c-.73.16-1.48.32-2.26.46l-5.11,1a10.34,10.34,0,0,1-1.8.21v-3.39a19.9,19.9,0,0,0-1.87.71,26.16,26.16,0,0,1-10.12,2.32,10.65,10.65,0,0,1-5.68-1.81,11.9,11.9,0,0,1-4.44-5.06,15.18,15.18,0,0,1-1.55-6.63,16.62,16.62,0,0,1,1-5.8A14.15,14.15,0,0,1,1076,399a13.24,13.24,0,0,1,3-2.38,12.86,12.86,0,0,1,3.21-1.5,21.33,21.33,0,0,1,4.19-.81,18.78,18.78,0,0,1,7.83,1.41C1094.89,396,1095.37,396.19,1095.7,396.31Zm0,21.79c.09-1.57.14-4.82.14-9.73,0-4.16-.2-6.79-.58-7.88a6.61,6.61,0,0,0-2.9-3.11,9.6,9.6,0,0,0-5.2-1.46,8.86,8.86,0,0,0-6.85,3.14q-2.82,3.13-2.81,9.27a12,12,0,0,0,3,8.61,10,10,0,0,0,7.57,3.21,15.11,15.11,0,0,0,4.74-.71A8.56,8.56,0,0,0,1095.74,418.1Z" transform="translate(-45.04 -28.41)" style="fill:#15456f"></path><path d="M1111.73,396.87l0-1c1.53-.45,2.35-.71,2.47-.78a11.39,11.39,0,0,0,2.66-1.73,12.11,12.11,0,0,0,2.35-2.62,3.89,3.89,0,0,1,.67-.07l.42,0c.09,1.12.14,1.95.14,2.46,0,.12,0,.65-.07,1.59v1.87l0,10.16-.11,10.75a2.7,2.7,0,0,0,.42,1.82,7,7,0,0,0,2.72,1.15,21.1,21.1,0,0,1,2.11.67,1.09,1.09,0,0,1,.11.42,1.14,1.14,0,0,1-.18.53c-.91,0-2.09-.08-3.52-.18-2-.16-3.25-.24-3.88-.24-.31,0-2.19.05-5.64.17a19.06,19.06,0,0,0-2,.18,2.41,2.41,0,0,1-.56-.11.74.74,0,0,1-.18-.42c0-.33.22-.59.67-.78q.14-.06,3.6-.81a2.3,2.3,0,0,0,1.48-.7,3.73,3.73,0,0,0,.6-2.36q.06-2.71.07-14.86a12.56,12.56,0,0,0-.21-3,2.74,2.74,0,0,0-.94-1A10.41,10.41,0,0,0,1111.73,396.87Zm3-18.3a2.65,2.65,0,0,1,.9-2,3,3,0,0,1,2.17-.85,3.23,3.23,0,0,1,2.29,1,2.63,2.63,0,0,1,0,4.11,3.17,3.17,0,0,1-2.29,1,3,3,0,0,1-2.19-.88A3.09,3.09,0,0,1,1114.69,378.57Z" transform="translate(-45.04 -28.41)" style="fill:#15456f"></path><path d="M1131.17,420.75a15,15,0,0,1,2-.42,6.1,6.1,0,0,0,2.66-.74,2.87,2.87,0,0,0,.44-1.93l.07-1.27c0-.47,0-1.07,0-1.79l-.07-10.79a4.62,4.62,0,0,0-.57-2.82,6.27,6.27,0,0,0-3.53-1.37v-1.28a10.78,10.78,0,0,0,4-1.84,12.69,12.69,0,0,0,3.39-4.32l1.2,0c.07,1.11.1,1.9.1,2.37v2.33l0,.64c.28-.19.61-.43,1-.71a22.77,22.77,0,0,1,4.34-2.6,20.87,20.87,0,0,1,4-1.4,10.21,10.21,0,0,1,2.46-.28,8.13,8.13,0,0,1,5,1.55,7.09,7.09,0,0,1,2.69,3.66c.42,1.4.62,4.18.62,8.35v5.33c0,.14,0,.61,0,1.41s-.05,1.72-.05,2.76a13.87,13.87,0,0,0,.21,3.14,2.13,2.13,0,0,0,.91.92c2.26.31,3.58.67,4,1.09v.29a2.55,2.55,0,0,1-.21.88h-.67l-4.65-.07-4.59.1c-1.69,0-3.25,0-4.69,0l-.21-.74a1.1,1.1,0,0,1,.25-.57,8.46,8.46,0,0,1,2.68-.56,6.39,6.39,0,0,0,1.41-.21,4.36,4.36,0,0,0,1-.57,3.35,3.35,0,0,0,.42-1.41c0-.17,0-.5-.07-1-.07-1.08-.11-3.78-.14-8.09V407l.07-2.82c0-3-.61-5.13-1.83-6.29a6.87,6.87,0,0,0-4.9-1.73,11,11,0,0,0-4.62,1,15.84,15.84,0,0,0-4.38,3.12c0,1.13-.07,2.1-.07,2.9l.11,7.79q0,6.11.18,7.48a1.48,1.48,0,0,0,.24.77,2.38,2.38,0,0,0,1.13.46c.56.12,1.22.28,2,.49s1.23.35,1.46.39a1.33,1.33,0,0,1,1,.71l0,.7H1143l-7.62-.1-3.35,0h-.88l-.07-.46A3.29,3.29,0,0,1,1131.17,420.75Z" transform="translate(-45.04 -28.41)" style="fill:#15456f"></path><path d="M1199,417.12a1.8,1.8,0,0,1,.21.67,4.54,4.54,0,0,1-.85,1.87,7.56,7.56,0,0,1-2.43,2.57,4.39,4.39,0,0,1-2.33.53,4.66,4.66,0,0,1-3.81-1.55,6.68,6.68,0,0,1-1.09-3.28l-4,2.75a16,16,0,0,1-3.17,1.51,16.83,16.83,0,0,1-4.23.46,3.63,3.63,0,0,1-3.88-3.84q0-2.43,3-5.82a22,22,0,0,1,8.11-5.54c2.41-1,3.88-1.65,4.42-1.94,0-.77.07-1.62.07-2.54q0-4.47-1.25-6.06a4.32,4.32,0,0,0-3.59-1.59,6.78,6.78,0,0,0-4.57,1.9q-1.3,1.2-2,4.52a7.34,7.34,0,0,1-.81,2,4.92,4.92,0,0,1-2.43,1,2.31,2.31,0,0,1-1.41-.46.68.68,0,0,1-.36-.56c0-.61.66-2,2-4.14a12.93,12.93,0,0,1,4.94-4.84,11.34,11.34,0,0,1,5.2-1.6,13.79,13.79,0,0,1,4.52.55,6,6,0,0,1,2.6,1.92,6,6,0,0,1,1.38,3c.09.51.14,2.36.14,5.53l-.1,5.61,0,4.09q0,.81,0,1.38c0,.68,0,1.18,0,1.51a2.58,2.58,0,0,0,.67,1.87,2.14,2.14,0,0,0,1.59.71,2.78,2.78,0,0,0,2.29-1.34l.42-.57A3.3,3.3,0,0,1,1199,417.12Zm-10.33-1c.16-3,.24-5.09.24-6.31,0-.63,0-1.49-.1-2.57a24.23,24.23,0,0,0-5,2.57,14.81,14.81,0,0,0-4.21,4,5.44,5.44,0,0,0-1.13,3.06,3.08,3.08,0,0,0,.94,2.3,3.22,3.22,0,0,0,2.35.91,6.24,6.24,0,0,0,2.65-.77A17.63,17.63,0,0,0,1188.64,416.09Z" transform="translate(-45.04 -28.41)" style="fill:#15456f"></path><path d="M1204.7,422l-.14-.46a1.62,1.62,0,0,1,.31-.74l2.08-.42,2.93-.53a1,1,0,0,0,.49-.49,9.07,9.07,0,0,0,.22-2.72q0-12-.14-13.82a4.1,4.1,0,0,0-.64-2.34,5.24,5.24,0,0,0-2.54-.77,8.65,8.65,0,0,1-1.9-.46l.14-1.07a20.27,20.27,0,0,0,5-2.62,13.23,13.23,0,0,0,3-4.17l1.2,0q.21,1.77.21,7.83l0,.6a6.32,6.32,0,0,0,.07.67,20.87,20.87,0,0,1,3.35-4.48l.82-.81a4.74,4.74,0,0,1,1-.88,8.36,8.36,0,0,1,3.67-1.48,3.3,3.3,0,0,1,2.53,1,3.55,3.55,0,0,1,1,2.55,2.44,2.44,0,0,1-.7,1.87,3.15,3.15,0,0,1-2.19.89,8.33,8.33,0,0,1-2.22-.6,8.62,8.62,0,0,0-2.19-.6,2.23,2.23,0,0,0-1.37.31,12,12,0,0,0-2.4,3.18,6.46,6.46,0,0,0-1.09,3.31l.17,5.84.07,7a5.68,5.68,0,0,0,.28,1.56,2.32,2.32,0,0,0,.71.6c2.54.21,4,.36,4.51.46s.58,0,.74.07a4.28,4.28,0,0,1,2.12.42.58.58,0,0,1,.32.53,1.12,1.12,0,0,1-.28.57l-3.92-.07-1.48,0-2.15,0h-3.6l-1.94.1Z" transform="translate(-45.04 -28.41)" style="fill:#15456f"></path><path d="M1233.45,394.12c.52,0,1-.07,1.31-.07h1.69l2.29-.07,3,.11,2.44-.07a23,23,0,0,1,3.49.24,1.78,1.78,0,0,1,.14.57l0,.28a7.18,7.18,0,0,1-2.29.49,7.31,7.31,0,0,0-3.14.78l-.07.39a3.18,3.18,0,0,0,.28,1.06c.12.28.27.7.47,1.27q.76,2.61,3.36,10.1c1.25,3.61,2.41,6.7,3.47,9.3q1-2.14,2.22-5.41l3-8.37a32.88,32.88,0,0,0,1.56-5.48,9.79,9.79,0,0,0,.21-1.73,1.37,1.37,0,0,0-.46-1,4.06,4.06,0,0,0-1.83-.78,17.24,17.24,0,0,1-2.72-.79.91.91,0,0,1-.24-.69,1.79,1.79,0,0,1,.49-.28h2.19l2.36,0,3.53,0,2.25,0,.57,0a6.84,6.84,0,0,1,.81.07.6.6,0,0,1,.35.57.81.81,0,0,1-.32.63l-.7.11a7.09,7.09,0,0,0-3.14,1.05,3.39,3.39,0,0,0-1,1.77c-.1.33-.25.75-.46,1.27q-.18.42-.51,1.41c-.23.65-.51,1.43-.87,2.32l-.42,1,0,.17-6,15.79L1246.27,432q-.42.89-1,2.19a21.2,21.2,0,0,1-1.59,2.76,9.23,9.23,0,0,1-1.83,1.84l-1.81.78a4.12,4.12,0,0,1-1.13.14,3.34,3.34,0,0,1-2.33-.69,2.49,2.49,0,0,1-.74-1.9,2.67,2.67,0,0,1,1.1-2.06,4.15,4.15,0,0,0,.7-.29l.46-.1a33.19,33.19,0,0,0,3.92.56,2.83,2.83,0,0,0,1.1-.91,29.93,29.93,0,0,0,3-5.72,15.08,15.08,0,0,0,1.25-4.26,10.43,10.43,0,0,0-.94-3.5l-3.92-10.36q-.81-2-4.84-13.12a2.55,2.55,0,0,0-.63-1.06l-2.4-.88-.74-.14c-.4-.17-.6-.4-.6-.71Z" transform="translate(-45.04 -28.41)" style="fill:#15456f"></path><path d="M1290.16,421.37a1.57,1.57,0,0,1,.6-.37,10.62,10.62,0,0,1,2-.29,14.16,14.16,0,0,0,4.23-.63,3.41,3.41,0,0,0,.5-2l0-2.47,0-9-.07-4.24,0-8.86-.17-10.07c0-2.4-.18-3.76-.46-4.06s-1.68-.71-3.78-.78a15.79,15.79,0,0,1-2.36-.21.75.75,0,0,1-.46-.64,1.64,1.64,0,0,1,.18-.67,1.26,1.26,0,0,1,.56-.17l1.2,0a42.91,42.91,0,0,0,4.31.21l2.61-.07,6.2.14q4.67,0,7.27-.1c1.74-.07,2.91-.11,3.52-.11s1.88.05,4,.14l5,0,.6.1,2.93-.1.35.17a2,2,0,0,1,.25.6,10.38,10.38,0,0,1-.16,1.52,11.19,11.19,0,0,0-.16,1.27c0,2.45.08,4.51.25,6.21a.33.33,0,0,1-.21.28,2.17,2.17,0,0,1-.69-.11,17.35,17.35,0,0,1-1-2.36,27.85,27.85,0,0,0-2-3.91,5.51,5.51,0,0,0-1.38-1.77,4.92,4.92,0,0,0-2-.28l-3.22-.07-1.51,0-10.06.21h-.88c-1.3,0-2.07.16-2.33.49-.4.56-.6,2.22-.6,5,0,.28.06,3.11.17,8.47v4.9a3.25,3.25,0,0,0,.85.1h.6l1.76,0c1.22.05,2,.07,2.47.07s.53,0,.74,0q3.81-.15,9.81-.15c1.24-.21,2-.45,2.18-.74a7.26,7.26,0,0,0,.8-3.31c.17-1.79.57-2.8,1.18-3a1.94,1.94,0,0,1,.84.17,2.09,2.09,0,0,1,.07.53,6.53,6.53,0,0,1-.07.81q-.17,1.31-.17,8.18c0,1.23.06,2.59.19,4.1s.2,2.31.2,2.43a4.6,4.6,0,0,1-.11.84,1.05,1.05,0,0,1-.46.15h-.25a13.17,13.17,0,0,1-1.09-3.07c-.61-2.38-1.25-3.86-1.92-4.46a4.83,4.83,0,0,0-3.26-.9l-1.8.05c-.87,0-2.16.05-3.88.05h-2.29a59.92,59.92,0,0,0-6.42.21l0,1.17,0,6.5,0,4.1,0,4c0,2.4.17,3.79.46,4.17s1.27.78,2.61.78l2.15,0,2.2.05c1.28,0,2.86.06,4.75.06a44.2,44.2,0,0,0,9.06-.59,7.91,7.91,0,0,0,3.72-2.07c1-1,2.2-3.12,3.69-6.4.44-1,.89-1.45,1.34-1.45a1.21,1.21,0,0,1,.7.28,39.07,39.07,0,0,0-1.16,4.58,39.82,39.82,0,0,0-.46,5.05,3.21,3.21,0,0,1-.57,1.94h-.77l-9.91.1-4.45,0-10.58.14h-4.3c-.54,0-1,0-1.51,0-4.24.19-7.35.29-9.35.29a1.08,1.08,0,0,1-.72-.18.63.63,0,0,1-.2-.51Z" transform="translate(-45.04 -28.41)" style="fill:#15456f"></path><path d="M1340.46,395.53a6.7,6.7,0,0,1-.07-.79v-.47a4.84,4.84,0,0,1,1.24-.15h1.3c2,.07,3.29.11,3.81.11,1.62,0,3.27,0,4.94-.07l1.9,0h.85a2,2,0,0,1,.25.74,1.47,1.47,0,0,1-.14.5l-.53.07a9.87,9.87,0,0,0-3.23.64.52.52,0,0,0-.28.46,3.3,3.3,0,0,0,.85,1.68q4.1,5.35,5.58,6.9a58.23,58.23,0,0,0,4-5.69,4.76,4.76,0,0,0,.64-2,1.76,1.76,0,0,0-.63-1.37,7.25,7.25,0,0,0-3.11-.9,1.44,1.44,0,0,1-.28-.71l.11-.35.92,0,1.23,0c1,.07,2,.11,3,.11l2.68-.05c1.27,0,2.24-.06,2.89-.06H1370c.3.14.46.33.46.57a1.86,1.86,0,0,1-.08.45c-.37.1-.83.19-1.37.29a9.89,9.89,0,0,0-3.7,1.38,9.63,9.63,0,0,0-2.65,2.6l-5,6.75,5.09,6.41c2.34,3.18,3.78,5,4.31,5.61a7.52,7.52,0,0,0,1.71,1.37,11.51,11.51,0,0,0,2.69,1c0,.28,0,.53,0,.74a2.1,2.1,0,0,1-.14.67c-.42,0-2.57-.06-6.43-.18l-3.4.07c-.63,0-1.25,0-1.84,0s-1.21,0-2-.07l.11-1.06,1.16-.25a6.3,6.3,0,0,0,2.59-.95,1.1,1.1,0,0,0,.46-.84c0-.52-1.58-2.69-4.76-6.51l-2.06-2.48a26.94,26.94,0,0,0-3.3,4.19,27.45,27.45,0,0,1-1.68,2.37,4,4,0,0,0-1.2,2.34.9.9,0,0,0,.43.64,8,8,0,0,0,2.47.79,19.56,19.56,0,0,1,1.93.45,3.13,3.13,0,0,1,.11.72,4.63,4.63,0,0,1-.07.69c-1.81-.09-3.57-.14-5.29-.14q-3.24,0-4.71.09c-1,.06-1.58.09-1.81.09s-.73,0-1.35-.07a3.23,3.23,0,0,1-.14-.74l.07-.46a3.45,3.45,0,0,1,1.24-.32,7.72,7.72,0,0,0,4.2-1.76q1.83-1.52,8.11-10.08l-4.69-5.66-5-6a3.38,3.38,0,0,0-.52-.42,4.93,4.93,0,0,0-1.52-.49C1341.54,395.77,1340.86,395.63,1340.46,395.53Z" transform="translate(-45.04 -28.41)" style="fill:#15456f"></path><path d="M1377,440.36a6.53,6.53,0,0,1,0-.73,3.93,3.93,0,0,1,.07-.61l3.56-.71a4.47,4.47,0,0,0,1.38-1,4.64,4.64,0,0,0,.18-1.27q0-5.43-.28-20.68l-.11-12.9a15.14,15.14,0,0,0-.39-3.88,1.53,1.53,0,0,0-.53-.67,8.91,8.91,0,0,0-3.52-1.12l.21-1.08a31.74,31.74,0,0,0,5.09-2.53,10.44,10.44,0,0,0,2.46-2.53l.42-.11a1.74,1.74,0,0,1,.7.22c0,1.48,0,2.45,0,2.92l0,3.88a19.49,19.49,0,0,1,5.43-2.94,17.88,17.88,0,0,1,5.86-1,12.32,12.32,0,0,1,9.17,3.82,13.54,13.54,0,0,1,3.74,9.86,15.51,15.51,0,0,1-2.1,8,13.27,13.27,0,0,1-5.8,5.33,17.17,17.17,0,0,1-7.43,1.76,19,19,0,0,1-7.28-1.73l-1.2-.49c0,1.88-.07,3.56-.07,5q0,10.92.6,12.22c.22.47.88.76,2,.85a9.06,9.06,0,0,1,3.76.81,1.75,1.75,0,0,1,.7,1.27l-3.49.07-3.19-.07-5.3,0Zm9.24-40.38a6,6,0,0,0-.07.91q0,12.6.25,14.11a6,6,0,0,0,2,3.91,10.41,10.41,0,0,0,6.56,1.8,10.06,10.06,0,0,0,7.44-3,10.73,10.73,0,0,0,3-7.91q0-5.87-3.2-9.28a11.08,11.08,0,0,0-8.47-3.42,11.3,11.3,0,0,0-4.09.72A10.19,10.19,0,0,0,1386.22,400Z" transform="translate(-45.04 -28.41)" style="fill:#15456f"></path><path d="M1444.53,403.29l-14.14.1h-2.68c-1.08,0-2.19.05-3.32.15a6.37,6.37,0,0,0-.32,1.44l0,.36v.35l0,1.73a13.87,13.87,0,0,0,1.36,5.27,10.5,10.5,0,0,0,3.88,4.76,12,12,0,0,0,6.3,1.75,12.87,12.87,0,0,0,3.21-.5,16.39,16.39,0,0,0,3.38-1.8l2.54-2.08.21,1.41a4.84,4.84,0,0,1,0,.53,15.55,15.55,0,0,1-4,3.53,19.14,19.14,0,0,1-4.94,2.22,17.3,17.3,0,0,1-4,.32,12.71,12.71,0,0,1-4.94-1,12.07,12.07,0,0,1-5.66-5,16,16,0,0,1-2.06-8.34,17.73,17.73,0,0,1,.58-4,21,21,0,0,1,2.1-5.18,10.2,10.2,0,0,1,2.5-3.07,16.21,16.21,0,0,1,3.71-2.36,13.65,13.65,0,0,1,5.32-1,10.48,10.48,0,0,1,9.58,5.29,9.56,9.56,0,0,1,1.39,4.59ZM1424.85,402h1.66q1.8,0,10.72-.56a4.57,4.57,0,0,0,1.73-.28,1.9,1.9,0,0,0,.63-1.2,5.63,5.63,0,0,0-.7-2.49,4.85,4.85,0,0,0-2.17-2.15,7.25,7.25,0,0,0-3.4-.76,8,8,0,0,0-6.56,3.07A7.1,7.1,0,0,0,1424.85,402Z" transform="translate(-45.04 -28.41)" style="fill:#15456f"></path><path d="M1451.74,422l-.14-.46a1.62,1.62,0,0,1,.31-.74l2.09-.42,2.92-.53a1,1,0,0,0,.5-.49,9.61,9.61,0,0,0,.21-2.72q0-12-.14-13.82a4.1,4.1,0,0,0-.64-2.34,5.2,5.2,0,0,0-2.54-.77,8.65,8.65,0,0,1-1.9-.46l.14-1.07a20.07,20.07,0,0,0,5-2.62,13.08,13.08,0,0,0,3-4.17l1.2,0q.21,1.77.21,7.83l0,.6a4.42,4.42,0,0,0,.07.67,20.54,20.54,0,0,1,3.35-4.48l.81-.81a5,5,0,0,1,.95-.88,8.4,8.4,0,0,1,3.67-1.48,3.33,3.33,0,0,1,2.54,1,3.54,3.54,0,0,1,1,2.55,2.44,2.44,0,0,1-.7,1.87,3.15,3.15,0,0,1-2.19.89,8.52,8.52,0,0,1-2.22-.6,8.41,8.41,0,0,0-2.19-.6,2.25,2.25,0,0,0-1.37.31,12,12,0,0,0-2.4,3.18,6.46,6.46,0,0,0-1.09,3.31l.17,5.84.07,7a5.21,5.21,0,0,0,.29,1.56,2.25,2.25,0,0,0,.7.6c2.54.21,4.05.36,4.52.46s.57,0,.74.07a4.26,4.26,0,0,1,2.11.42.58.58,0,0,1,.32.53,1,1,0,0,1-.28.57l-3.92-.07-1.48,0-2.15,0h-3.6l-1.94.1Z" transform="translate(-45.04 -28.41)" style="fill:#15456f"></path><path d="M1480,396.87l0-1c1.53-.45,2.35-.71,2.47-.78a11,11,0,0,0,2.66-1.73,12.11,12.11,0,0,0,2.35-2.62,3.89,3.89,0,0,1,.67-.07l.42,0c.1,1.12.14,1.95.14,2.46,0,.12,0,.65-.07,1.59v1.87l0,10.16-.11,10.75a2.64,2.64,0,0,0,.43,1.82,6.94,6.94,0,0,0,2.71,1.15,21.47,21.47,0,0,1,2.12.67,1.06,1.06,0,0,1,.1.42,1.23,1.23,0,0,1-.17.53c-.92,0-2.1-.08-3.53-.18-2-.16-3.24-.24-3.88-.24-.31,0-2.19.05-5.64.17a19.06,19.06,0,0,0-2,.18,2.51,2.51,0,0,1-.56-.11.74.74,0,0,1-.18-.42c0-.33.23-.59.67-.78.1,0,1.29-.31,3.6-.81a2.27,2.27,0,0,0,1.48-.7,3.73,3.73,0,0,0,.6-2.36q.08-2.71.07-14.86a12.56,12.56,0,0,0-.21-3,2.74,2.74,0,0,0-.94-1A10.41,10.41,0,0,0,1480,396.87Zm3-18.3a2.65,2.65,0,0,1,.9-2,3,3,0,0,1,2.17-.85,3.22,3.22,0,0,1,2.29,1,2.63,2.63,0,0,1,0,4.11,3.16,3.16,0,0,1-2.29,1,3,3,0,0,1-2.19-.88A3.09,3.09,0,0,1,1483,378.57Z" transform="translate(-45.04 -28.41)" style="fill:#15456f"></path><path d="M1526.07,403.29l-14.14.1h-2.68c-1.08,0-2.18.05-3.31.15a6.37,6.37,0,0,0-.32,1.44l0,.36v.35l0,1.73a13.69,13.69,0,0,0,1.36,5.27,10.44,10.44,0,0,0,3.88,4.76,12,12,0,0,0,6.29,1.75,12.87,12.87,0,0,0,3.21-.5,16.41,16.41,0,0,0,3.39-1.8l2.54-2.08.21,1.41a3.23,3.23,0,0,1,0,.53,15.39,15.39,0,0,1-4,3.53,19.14,19.14,0,0,1-4.94,2.22,17.14,17.14,0,0,1-3.94.32,12.67,12.67,0,0,1-4.94-1,12,12,0,0,1-5.66-5,15.92,15.92,0,0,1-2.07-8.34,17.83,17.83,0,0,1,.59-4,20.59,20.59,0,0,1,2.09-5.18,10.22,10.22,0,0,1,2.51-3.07,16.18,16.18,0,0,1,3.7-2.36,13.71,13.71,0,0,1,5.33-1,10.45,10.45,0,0,1,9.57,5.29,9.56,9.56,0,0,1,1.39,4.59ZM1506.4,402h1.65c1.2,0,4.78-.19,10.72-.56a4.57,4.57,0,0,0,1.73-.28,1.87,1.87,0,0,0,.64-1.2,5.65,5.65,0,0,0-.71-2.49,4.81,4.81,0,0,0-2.17-2.15,7.22,7.22,0,0,0-3.4-.76,8,8,0,0,0-6.56,3.07A7.08,7.08,0,0,0,1506.4,402Z" transform="translate(-45.04 -28.41)" style="fill:#15456f"></path><path d="M1533.18,420.75a15.18,15.18,0,0,1,2-.42,6.16,6.16,0,0,0,2.67-.74,2.87,2.87,0,0,0,.44-1.93l.07-1.27c0-.47,0-1.07,0-1.79l-.07-10.79a4.72,4.72,0,0,0-.56-2.82,6.3,6.3,0,0,0-3.53-1.37v-1.28a10.86,10.86,0,0,0,4-1.84,12.69,12.69,0,0,0,3.39-4.32l1.2,0c.07,1.11.1,1.9.1,2.37v2.33l0,.64c.28-.19.61-.43,1-.71a23.41,23.41,0,0,1,4.34-2.6,21.11,21.11,0,0,1,4-1.4,10.3,10.3,0,0,1,2.47-.28,8.08,8.08,0,0,1,5,1.55,7.05,7.05,0,0,1,2.7,3.66,35.91,35.91,0,0,1,.62,8.35v5.33c0,.14,0,.61,0,1.41s-.06,1.72-.06,2.76a13.87,13.87,0,0,0,.21,3.14,2.16,2.16,0,0,0,.92.92c2.26.31,3.57.67,4,1.09v.29a2.55,2.55,0,0,1-.21.88h-.67l-4.66-.07-4.58.1c-1.69,0-3.26,0-4.69,0l-.21-.74a1.15,1.15,0,0,1,.24-.57,8.53,8.53,0,0,1,2.68-.56,6.4,6.4,0,0,0,1.42-.21,4.61,4.61,0,0,0,1-.57,3.35,3.35,0,0,0,.42-1.41c0-.17,0-.5-.07-1q-.1-1.62-.14-8.09V407l.07-2.82c0-3-.61-5.13-1.83-6.29a6.89,6.89,0,0,0-4.91-1.73,11,11,0,0,0-4.62,1,16,16,0,0,0-4.37,3.12c0,1.13-.07,2.1-.07,2.9l.11,7.79c0,4.07,0,6.56.17,7.48a1.56,1.56,0,0,0,.25.77,2.33,2.33,0,0,0,1.13.46c.56.12,1.21.28,2,.49s1.22.35,1.46.39a1.33,1.33,0,0,1,1,.71l0,.7H1545l-7.62-.1-3.35,0h-.88l-.07-.46A3.45,3.45,0,0,1,1533.18,420.75Z" transform="translate(-45.04 -28.41)" style="fill:#15456f"></path><path d="M1600.48,415.46l0,2.29a17,17,0,0,1-5.43,4.09,15.74,15.74,0,0,1-6.32,1.17,12.76,12.76,0,0,1-7.12-2.07,13.28,13.28,0,0,1-4.89-5.83,17.9,17.9,0,0,1-1.71-7.41,14.68,14.68,0,0,1,2.07-7.53,13.22,13.22,0,0,1,5.46-5.29,18.71,18.71,0,0,1,8.56-1.75q4.93,0,7.51,1.7a3,3,0,0,1,1.44,2.54,2.52,2.52,0,0,1-.74,1.87,2.57,2.57,0,0,1-1.9.74q-1.77,0-3.88-2.19a9.07,9.07,0,0,0-2.36-1.85,5.42,5.42,0,0,0-2.37-.51,6.47,6.47,0,0,0-5.22,2.57,14.46,14.46,0,0,0-2.89,9.21c0,3.8,1,6.84,3,9.09a8.92,8.92,0,0,0,6.91,3.39,12.45,12.45,0,0,0,4.88-.9A20.42,20.42,0,0,0,1600.48,415.46Z" transform="translate(-45.04 -28.41)" style="fill:#15456f"></path><path d="M1633.93,403.29l-14.14.1h-2.68c-1.08,0-2.19.05-3.32.15a6.37,6.37,0,0,0-.32,1.44l0,.36v.35l0,1.73a13.87,13.87,0,0,0,1.36,5.27,10.5,10.5,0,0,0,3.88,4.76,12,12,0,0,0,6.3,1.75,12.87,12.87,0,0,0,3.21-.5,16.39,16.39,0,0,0,3.38-1.8l2.54-2.08.21,1.41a4.84,4.84,0,0,1,0,.53,15.55,15.55,0,0,1-4,3.53,19.29,19.29,0,0,1-4.94,2.22,17.3,17.3,0,0,1-3.95.32,12.67,12.67,0,0,1-4.94-1,12.07,12.07,0,0,1-5.66-5,16,16,0,0,1-2.06-8.34,17.73,17.73,0,0,1,.58-4,21,21,0,0,1,2.1-5.18,10.2,10.2,0,0,1,2.5-3.07,16.21,16.21,0,0,1,3.71-2.36,13.65,13.65,0,0,1,5.32-1,10.48,10.48,0,0,1,9.58,5.29,9.68,9.68,0,0,1,1.39,4.59ZM1614.25,402h1.66q1.8,0,10.72-.56a4.57,4.57,0,0,0,1.73-.28,1.9,1.9,0,0,0,.63-1.2,5.63,5.63,0,0,0-.7-2.49,4.85,4.85,0,0,0-2.17-2.15,7.26,7.26,0,0,0-3.41-.76,8,8,0,0,0-6.56,3.07A7.14,7.14,0,0,0,1614.25,402Z" transform="translate(-45.04 -28.41)" style="fill:#15456f"></path><path d="M1644.77,413a26,26,0,0,0,2,4.34,10,10,0,0,0,3.2,3.12,7.82,7.82,0,0,0,4.06,1.11,6.08,6.08,0,0,0,4-1.72,4,4,0,0,0,1.41-3,6.41,6.41,0,0,0-1.66-4.23c-1.11-1.27-3.21-2.48-6.3-3.65s-5.16-2.4-6.22-3.72a7,7,0,0,1-1.59-4.51,7.15,7.15,0,0,1,1.31-4.24,8,8,0,0,1,3.59-2.76,11.19,11.19,0,0,1,4.24-.94,23.46,23.46,0,0,1,4.49.39,11.5,11.5,0,0,1,3.44,1.2c.19,1.2.34,3,.46,5.29l.07,1.13-.78,0H1660a10.13,10.13,0,0,0-3.23-4.64,6.92,6.92,0,0,0-4.28-1.71,4.65,4.65,0,0,0-3.42,1.29,4.53,4.53,0,0,0-1.31,3.37,4.23,4.23,0,0,0,1.06,2.82q1.07,1.23,5,2.81a26.27,26.27,0,0,1,5.67,2.94,8.27,8.27,0,0,1,2.63,3.3,9.21,9.21,0,0,1,.85,3.71,7.4,7.4,0,0,1-1.61,4.55,8.58,8.58,0,0,1-4,3,13.15,13.15,0,0,1-4.32.86,20.24,20.24,0,0,1-8.25-1.66,1.37,1.37,0,0,1-.39-1.05c0-.22,0-.56-.07-1-.38-3.17-.56-5.05-.56-5.64a.72.72,0,0,1,.17-.56A1.72,1.72,0,0,1,1644.77,413Z" transform="translate(-45.04 -28.41)" style="fill:#15456f"></path><path d="M130.22,126.14a7.65,7.65,0,0,1,5.05-4.63c6.58-2.15,16.66-.35,22.67,2.72,12.54,6.39,17.1,21.82,22.44,33.77,8,17.91,16.47,33.1,29.57,47.58-6,5.7-15.5,2-21.84-1-8.13-3.87-14.6-10.49-19.17-18.2l-.27-.47c-8.92-15.4-13.41-33.24-23.57-47.94-3.49-5.06-8.79-11.48-14.94-11.66Z" transform="translate(-45.04 -28.41)" style="fill:#094b81"></path><path d="M200.57,34v-.15c5.93,1.89,12.24,4.14,15.87,9.2,3.2,4.47,3.69,10.28,3.9,15.77.55,14,.07,27.92-.4,41.88l-2.52,73.52a6.67,6.67,0,0,1-.57,3c-2.68,4.93-13.29-7.75-14.62-10.43-2.45-4.91-2.36-10.64-2.23-16.12l2.38-97.57c.1-3.94.43-7-.34-10.91C201.56,39.78,200.51,36.51,200.57,34Z" transform="translate(-45.04 -28.41)" style="fill:#094b81"></path><path d="M232.78,28.89c0-.05-.95-.43-.95-.48,5.93,1.9,13.19,4.47,16.81,9.53,3.21,4.47,3.69,10.28,3.91,15.77.55,13.95.07,27.92-.41,41.88-.84,24.5-2.1,63.25-2.94,87.75a6.6,6.6,0,0,1-.57,3c-2.68,4.92-13.28-7.75-14.62-10.44-2.44-4.91-2.36-10.64-2.23-16.11.8-32.53,2-79.29,2.81-111.81a53.79,53.79,0,0,0-.94-11.75A33.68,33.68,0,0,1,232.78,28.89Z" transform="translate(-45.04 -28.41)" style="fill:#094b81"></path><path d="M265.29,49.78v-.16c5.93,1.9,12.24,4.15,15.87,9.21,3.2,4.46,3.69,10.28,3.9,15.77.55,14,.07,27.92-.41,41.87-.84,24.51-1.92,57.08-2.76,81.58a6.57,6.57,0,0,1-.57,3C278.64,206,268,193.29,266.7,190.6c-2.44-4.9-2.36-10.63-2.22-16.11.79-32.53,1.83-73.11,2.62-105.63.1-3.94.42-7-.34-10.91C266.28,55.52,265.23,52.25,265.29,49.78Z" transform="translate(-45.04 -28.41)" style="fill:#094b81"></path><path d="M298,80.47v-.15c5.93,1.9,12.24,4.14,15.87,9.2,3.2,4.47,3.69,10.28,3.9,15.77.55,14,.07,27.92-.4,41.88-.84,24.51-1.56,41.82-2.4,66.32a6.74,6.74,0,0,1-.57,3c-2.68,4.92-13.29-7.75-14.62-10.44-2.44-4.91-2.36-10.64-2.23-16.11.8-32.53,1.47-57.85,2.26-90.38.1-3.93.43-7-.34-10.91C299,86.21,297.92,82.94,298,80.47Z" transform="translate(-45.04 -28.41)" style="fill:#094b81"></path><path d="M415.68,229a7.66,7.66,0,0,1,1.49,6.69c-1.42,6.78-8,14.61-13.68,18.29-11.79,7.67-27.44,3.92-40.46,2.58-19.51-2-36.9-2.26-56,1.86-2-8,6-14.44,11.76-18.43,7.42-5.11,16.38-7.41,25.34-7.52h.54c17.8,0,35.5,5,53.31,3.52,6.13-.5,14.33-1.89,17.56-7.12Z" transform="translate(-45.04 -28.41)" style="fill:#801545"></path><path d="M460.35,335.89l.13.08c-4.6,4.19-9.7,8.53-15.89,9.15-5.47.55-10.75-1.93-15.62-4.49-12.36-6.49-24.22-13.88-36.08-21.26l-62.44-38.89a6.59,6.59,0,0,1-2.3-2c-2.93-4.79,13.35-7.65,16.34-7.46,5.47.33,10.4,3.26,15.08,6.12l83.34,50.78c3.37,2.05,5.9,3.88,9.62,5.15C454.88,333.89,458.24,334.61,460.35,335.89Z" transform="translate(-45.04 -28.41)" style="fill:#801545"></path><path d="M448.73,366.37s.85-.61.89-.58C445,370,439.16,375,433,375.6c-5.47.54-10.75-1.94-15.62-4.49-12.36-6.49-24.22-13.88-36.07-21.26-20.82-13-53.76-33.4-74.57-46.37a6.59,6.59,0,0,1-2.3-2c-2.93-4.78,13.35-7.64,16.34-7.46,5.47.34,10.4,3.27,15.08,6.12,27.78,16.93,67.68,41.33,95.47,58.25a53.8,53.8,0,0,0,10.65,5A33.64,33.64,0,0,1,448.73,366.37Z" transform="translate(-45.04 -28.41)" style="fill:#801545"></path><path d="M414.41,384.11l.13.08c-4.61,4.19-9.71,8.53-15.9,9.15-5.47.55-10.75-1.94-15.62-4.49C370.66,382.36,358.8,375,347,367.59c-20.82-13-48.5-30.16-69.31-43.13a6.59,6.59,0,0,1-2.3-2c-2.93-4.78,13.35-7.64,16.34-7.46,5.47.34,10.4,3.27,15.08,6.12,27.78,16.93,62.42,38.09,90.21,55,3.36,2.05,5.89,3.89,9.62,5.16C408.93,382.1,412.29,382.82,414.41,384.11Z" transform="translate(-45.04 -28.41)" style="fill:#801545"></path><path d="M371.49,397.11l.13.08c-4.61,4.19-9.7,8.53-15.9,9.15-5.47.55-10.75-1.94-15.61-4.49C327.74,395.36,315.88,388,304,380.59c-20.82-13-35.46-22.23-56.27-35.19a6.52,6.52,0,0,1-2.3-2c-2.93-4.78,13.35-7.64,16.34-7.45,5.47.33,10.4,3.26,15.08,6.11,27.78,16.93,49.39,30.16,77.17,47.09,3.36,2,5.89,3.88,9.62,5.15C366,395.1,369.37,395.83,371.49,397.11Z" transform="translate(-45.04 -28.41)" style="fill:#801545"></path><path d="M182.21,424.37a7.64,7.64,0,0,1-6.54-2c-5.17-4.61-8.67-14.23-9-21-.77-14.05,10.27-25.75,17.92-36.37,11.47-15.91,20.35-30.86,26.29-49.47,7.92,2.3,9.54,12.39,10.12,19.38.73,9-1.74,17.9-6.11,25.72l-.27.47c-8.84,15.45-22,28.3-29.62,44.47-2.62,5.56-5.5,13.36-2.57,18.77Z" transform="translate(-45.04 -28.41)" style="fill:#4c8c8a"></path><path d="M67.23,409.81l-.13.08c-1.34-6.08-2.57-12.67,0-18.34,2.26-5,7-8.36,11.68-11.31,11.79-7.48,24.11-14.08,36.41-20.68L180,324.8a6.55,6.55,0,0,1,2.86-1c5.61-.16,0,15.38-1.68,17.88-3,4.58-8,7.39-12.81,10l-85.56,47c-3.45,1.89-6.31,3.17-9.26,5.77C71.7,406.07,69.4,408.62,67.23,409.81Z" transform="translate(-45.04 -28.41)" style="fill:#4c8c8a"></path><path d="M46.6,384.55c-.05,0,.1,1,.06,1.06-1.34-6.08-2.76-13.65-.21-19.33,2.25-5,7-8.35,11.68-11.3,11.78-7.48,24.1-14.08,36.41-20.68,21.61-11.59,55.74-30,77.35-41.54a6.6,6.6,0,0,1,2.87-1c5.6-.16,0,15.38-1.68,17.89-3,4.57-8,7.38-12.81,10-28.52,15.65-69.57,38.08-98.09,53.74a53.82,53.82,0,0,0-9.68,6.72A34.21,34.21,0,0,1,46.6,384.55Z" transform="translate(-45.04 -28.41)" style="fill:#4c8c8a"></path><path d="M48.33,346l-.14.07c-1.34-6.08-2.56-12.66,0-18.34,2.25-5,7-8.35,11.67-11.3C71.64,308.9,84,302.29,96.26,295.7c21.62-11.59,50.32-27,71.93-38.6a6.69,6.69,0,0,1,2.87-1c5.6-.15,0,15.38-1.68,17.89-3,4.57-8,7.38-12.82,10C128,299.65,92.43,319.14,63.91,334.79c-3.45,1.9-6.3,3.18-9.26,5.78C52.79,342.2,50.49,344.76,48.33,346Z" transform="translate(-45.04 -28.41)" style="fill:#4c8c8a"></path><path d="M58.44,302.26l-.13.07c-1.34-6.08-2.57-12.66,0-18.34,2.26-5,7-8.35,11.68-11.3,11.79-7.48,24.11-14.09,36.41-20.68,21.61-11.59,36.94-19.66,58.55-31.25a6.73,6.73,0,0,1,2.87-1c5.6-.15,0,15.39-1.68,17.89-3,4.58-8,7.38-12.82,10-28.52,15.65-50.75,27.79-79.27,43.45-3.45,1.89-6.31,3.17-9.26,5.77C62.91,298.51,60.61,301.07,58.44,302.26Z" transform="translate(-45.04 -28.41)" style="fill:#4c8c8a"></path></svg>