<svg xmlns="http://www.w3.org/2000/svg" xmlns:xlink="http://www.w3.org/1999/xlink" width="500" zoomAndPan="magnify" viewBox="0 0 375 374.999991" height="500" preserveAspectRatio="xMidYMid meet" version="1.0"><defs><clipPath id="7fe120f8b9"><path d="M 11.273438 20.847656 L 355 20.847656 L 355 353.847656 L 11.273438 353.847656 Z M 11.273438 20.847656 " clip-rule="nonzero"/></clipPath></defs><g clip-path="url(#2f5597)"><path fill="#2f5597" d="M 219.082031 265.765625 L 208.195312 278.042969 L 196.570312 266.4375 C 193.480469 263.351562 188.101562 263.351562 185.078125 266.4375 L 124.195312 327.214844 C 121.039062 330.367188 121.039062 335.53125 124.195312 338.6875 L 137.03125 351.5 C 138.578125 353.042969 140.59375 353.847656 142.8125 353.847656 C 144.960938 353.847656 147.042969 352.972656 148.589844 351.5 L 209.472656 290.722656 C 211.621094 288.640625 212.226562 285.488281 211.421875 282.671875 C 214.445312 279.25 223.246094 269.320312 223.246094 269.320312 C 225.464844 266.773438 221.367188 263.082031 219.082031 265.765625 Z M 205.574219 286.898438 L 144.691406 347.675781 C 143.683594 348.679688 141.871094 348.679688 140.796875 347.675781 L 127.960938 334.863281 C 126.886719 333.789062 126.886719 332.042969 127.960938 330.972656 L 188.84375 270.195312 C 189.378906 269.65625 190.050781 269.390625 190.789062 269.390625 C 191.460938 269.390625 192.203125 269.65625 192.738281 270.195312 L 205.574219 283.007812 C 206.113281 283.542969 206.382812 284.214844 206.382812 284.953125 C 206.3125 285.691406 206.042969 286.429688 205.574219 286.898438 Z M 275.863281 278.847656 C 251.269531 279.183594 230.371094 267.980469 216.257812 251.277344 C 211.824219 255.234375 200.9375 264.828125 200.9375 264.828125 C 200.398438 265.296875 199.796875 265.5 199.125 265.5 C 196.773438 265.566406 195.425781 262.34375 197.308594 260.800781 L 212.898438 247.050781 C 194.351562 221.960938 190.1875 186.40625 209.539062 157.359375 C 211.421875 154.410156 215.992188 157.359375 214.042969 160.3125 C 182.324219 207.941406 218.476562 274.21875 275.863281 273.480469 C 332.445312 274.21875 368.730469 209.550781 338.628906 161.855469 C 336.746094 158.902344 341.449219 156.019531 343.265625 159.039062 C 375.519531 210.222656 336.542969 279.652344 275.863281 278.847656 Z M 219.214844 200.023438 C 219.082031 211.496094 222.710938 222.429688 228.890625 231.488281 C 228.960938 231.621094 229.027344 231.6875 229.160156 231.824219 C 230.101562 233.230469 231.175781 234.574219 232.253906 235.914062 C 239.308594 244.367188 248.714844 250.808594 259.265625 254.160156 C 259.601562 254.296875 260.003906 254.363281 260.410156 254.429688 C 261.820312 254.832031 263.230469 255.234375 264.640625 255.503906 C 268.335938 256.242188 272.101562 256.644531 275.929688 256.578125 C 288.902344 256.84375 301.199219 252.015625 311.007812 244.097656 C 311.144531 243.964844 311.34375 243.898438 311.480469 243.761719 C 312.421875 242.957031 313.359375 242.152344 314.234375 241.28125 C 314.703125 240.878906 315.175781 240.476562 315.644531 240.007812 C 316.316406 239.335938 316.921875 238.597656 317.59375 237.925781 C 318.199219 237.257812 318.804688 236.652344 319.410156 235.914062 C 320.011719 235.175781 320.550781 234.4375 321.089844 233.699219 C 321.625 232.964844 322.230469 232.292969 322.769531 231.488281 C 323.507812 230.414062 324.113281 229.339844 324.785156 228.265625 C 325.054688 227.796875 325.390625 227.328125 325.65625 226.859375 C 330.160156 218.742188 332.714844 209.550781 332.511719 200.023438 L 332.511719 120.332031 C 332.511719 116.507812 329.355469 113.355469 325.523438 113.355469 L 226.203125 113.355469 C 222.375 113.355469 219.214844 116.507812 219.214844 120.332031 C 219.214844 120.332031 219.214844 199.488281 219.214844 200.023438 Z M 226.203125 118.722656 L 325.457031 118.722656 C 326.328125 118.722656 327.070312 119.457031 327.070312 120.332031 C 326.53125 128.851562 328.414062 196.269531 325.925781 210.960938 C 325.925781 211.09375 325.859375 211.226562 325.859375 211.363281 C 325.792969 211.699219 325.726562 212.035156 325.65625 212.300781 C 325.65625 212.4375 325.589844 212.570312 325.523438 212.703125 C 325.457031 212.90625 325.390625 213.171875 325.320312 213.308594 C 324.917969 214.851562 324.449219 216.328125 323.910156 217.800781 C 319.8125 228.601562 312.015625 237.726562 302.273438 243.628906 C 302.207031 243.695312 302.136719 243.695312 302.070312 243.761719 C 300.59375 244.636719 299.113281 245.441406 297.570312 246.179688 C 297.367188 246.246094 297.164062 246.378906 296.964844 246.445312 C 295.417969 247.183594 293.804688 247.789062 292.125 248.390625 C 291.183594 248.726562 290.246094 248.996094 289.304688 249.265625 C 288.566406 249.464844 287.757812 249.734375 287.019531 249.867188 C 286.078125 250.070312 285.136719 250.269531 284.195312 250.40625 C 283.324219 250.539062 282.449219 250.671875 281.574219 250.808594 C 280.769531 250.941406 279.894531 251.007812 279.023438 251.007812 C 277.945312 251.074219 276.804688 251.144531 275.730469 251.144531 C 275.058594 251.144531 274.386719 251.144531 273.714844 251.144531 C 272.300781 251.074219 270.890625 250.941406 269.480469 250.738281 C 269.078125 250.671875 268.671875 250.671875 268.269531 250.605469 C 266.457031 250.335938 264.574219 249.933594 262.761719 249.398438 C 262.691406 249.398438 262.625 249.398438 262.558594 249.332031 C 243.808594 244.300781 229.898438 229.273438 225.800781 210.960938 C 224.996094 207.40625 224.589844 203.714844 224.589844 199.957031 L 224.589844 120.332031 C 224.660156 119.457031 225.332031 118.722656 226.203125 118.722656 Z M 132.058594 249.464844 L 115.730469 249.464844 C 105.988281 249.464844 98.058594 241.550781 98.058594 231.824219 L 98.058594 222.164062 C 98.058594 218.675781 103.433594 218.605469 103.433594 222.164062 L 103.433594 231.824219 C 103.433594 238.597656 108.941406 244.097656 115.730469 244.097656 L 132.058594 244.097656 C 138.847656 244.097656 144.355469 238.597656 144.355469 231.824219 L 144.355469 215.589844 L 101.953125 215.589844 C 95.234375 215.589844 89.792969 210.15625 89.792969 203.445312 L 89.792969 193.25 C 27.96875 158.097656 52.699219 63.578125 123.996094 63.175781 C 144.425781 63.175781 163.777344 72.097656 177.082031 87.660156 C 178.023438 88.800781 177.890625 90.480469 176.746094 91.484375 C 175.605469 92.425781 173.925781 92.289062 172.917969 91.148438 C 160.6875 76.792969 142.8125 68.542969 123.929688 68.542969 C 57.402344 69.011719 35.226562 157.695312 93.757812 189.292969 C 94.628906 189.761719 95.167969 190.699219 95.167969 191.640625 L 95.167969 203.445312 C 95.167969 207.203125 98.191406 210.222656 101.953125 210.222656 L 121.242188 210.222656 L 121.242188 166.753906 L 101.214844 146.761719 C 98.730469 144.347656 102.558594 140.457031 105.046875 142.9375 L 123.996094 161.855469 L 142.945312 142.9375 C 145.363281 140.457031 149.261719 144.28125 146.777344 146.761719 L 126.75 166.753906 L 126.75 210.222656 L 146.035156 210.222656 C 149.800781 210.222656 152.824219 207.203125 152.824219 203.445312 L 152.824219 191.640625 C 152.824219 190.632812 153.363281 189.761719 154.234375 189.292969 C 183.9375 174.132812 196.773438 135.691406 182.324219 105.773438 C 180.777344 102.621094 185.816406 100.273438 187.230469 103.492188 C 202.617188 135.425781 189.378906 176.414062 158.199219 193.25 L 158.199219 203.445312 C 158.199219 208.8125 154.707031 213.308594 149.867188 214.917969 L 149.867188 231.824219 C 149.734375 241.550781 141.804688 249.464844 132.058594 249.464844 Z M 121.171875 39.496094 L 121.171875 23.53125 C 121.171875 22.054688 122.382812 20.847656 123.859375 20.847656 C 125.339844 20.847656 126.550781 22.054688 126.550781 23.53125 L 126.550781 39.496094 C 126.550781 40.972656 125.339844 42.179688 123.859375 42.179688 C 122.382812 42.246094 121.171875 41.039062 121.171875 39.496094 Z M 44.703125 57.40625 C 42.214844 54.992188 46.046875 51.101562 48.53125 53.582031 L 59.886719 64.921875 C 61.636719 66.53125 60.292969 69.617188 58.007812 69.550781 C 57.335938 69.550781 56.59375 69.28125 56.125 68.742188 Z M 30.589844 135.355469 L 14.597656 135.355469 C 11.101562 135.355469 11.035156 129.992188 14.597656 129.992188 C 14.597656 129.992188 30.65625 129.992188 30.65625 129.992188 C 34.152344 129.992188 34.152344 135.355469 30.589844 135.355469 Z M 59.820312 200.429688 C 59.820312 200.429688 48.464844 211.765625 48.464844 211.765625 C 47.925781 212.300781 47.253906 212.570312 46.582031 212.570312 C 44.296875 212.636719 42.953125 209.550781 44.703125 207.941406 C 44.703125 207.941406 56.058594 196.605469 56.058594 196.605469 C 58.476562 194.121094 62.375 197.945312 59.820312 200.429688 Z M 187.96875 64.921875 L 199.324219 53.582031 C 201.746094 51.101562 205.640625 54.925781 203.15625 57.40625 L 191.800781 68.742188 C 191.261719 69.28125 190.589844 69.550781 189.917969 69.550781 C 187.566406 69.550781 186.222656 66.464844 187.96875 64.921875 Z M 239.578125 213.375 L 262.425781 213.375 C 262.761719 213.375 263.097656 213.242188 263.433594 213.171875 C 263.769531 213.242188 264.105469 213.375 264.441406 213.375 L 287.289062 213.375 C 287.625 213.375 287.960938 213.242188 288.296875 213.171875 C 288.632812 213.242188 288.902344 213.375 289.304688 213.375 L 312.152344 213.375 C 314.167969 213.375 315.847656 211.699219 315.847656 209.683594 L 315.847656 146.292969 C 315.847656 144.28125 314.167969 142.601562 312.152344 142.601562 L 289.304688 142.601562 C 287.289062 142.601562 285.609375 144.28125 285.609375 146.292969 L 285.609375 164.402344 L 264.441406 164.402344 C 262.425781 164.402344 260.746094 166.082031 260.746094 168.09375 L 260.746094 178.960938 L 239.578125 178.960938 C 237.5625 178.960938 235.882812 180.636719 235.882812 182.652344 L 235.882812 209.753906 C 235.882812 211.699219 237.5625 213.375 239.578125 213.375 Z M 290.984375 147.96875 L 310.402344 147.96875 L 310.402344 207.941406 L 290.984375 207.941406 Z M 266.121094 169.769531 L 285.539062 169.769531 L 285.539062 207.941406 L 266.121094 207.941406 Z M 241.257812 184.261719 L 260.675781 184.261719 L 260.675781 207.941406 L 241.257812 207.941406 Z M 238.570312 133.007812 C 238.570312 133.007812 266.859375 133.007812 266.859375 133.007812 C 270.355469 133.007812 270.421875 138.375 266.859375 138.375 L 238.570312 138.375 C 235.074219 138.375 235.074219 133.007812 238.570312 133.007812 Z M 238.570312 153.46875 C 238.570312 153.46875 252.679688 153.46875 252.679688 153.46875 C 256.175781 153.46875 256.242188 158.835938 252.679688 158.835938 L 238.570312 158.835938 C 235.074219 158.835938 235.074219 153.46875 238.570312 153.46875 Z M 238.570312 153.46875 " fill-opacity="1" fill-rule="nonzero"/></g></svg>