<svg xmlns="http://www.w3.org/2000/svg" xmlns:xlink="http://www.w3.org/1999/xlink" width="500" zoomAndPan="magnify" viewBox="0 0 375 374.999991" height="500" preserveAspectRatio="xMidYMid meet" version="1.0"><path fill="#2f5597" d="M 327.902344 270.59375 C 317.722656 269.253906 307.632812 271.957031 299.484375 278.203125 C 298.332031 279.09375 297.238281 280.039062 296.214844 281.027344 L 235.027344 232.585938 C 240.433594 224.53125 243.957031 215.289062 245.257812 205.390625 C 246.460938 196.226562 245.675781 187.113281 243.070312 178.539062 L 297.214844 157.257812 C 298.121094 158.867188 299.144531 160.4375 300.296875 161.949219 C 307.851562 171.789062 319.277344 176.960938 330.832031 176.960938 C 338.992188 176.960938 347.226562 174.375 354.191406 169.03125 C 371.003906 156.136719 374.183594 131.972656 361.28125 115.171875 C 348.378906 98.371094 324.195312 95.195312 307.382812 108.089844 C 294.933594 117.644531 289.964844 133.371094 293.472656 147.714844 L 239.320312 168.996094 C 237.460938 165.21875 235.214844 161.601562 232.59375 158.179688 C 223.953125 146.929688 212.09375 139.046875 198.609375 135.429688 L 207.976562 85.1875 C 208.054688 85.1875 208.136719 85.195312 208.214844 85.195312 C 214.398438 85.195312 220.628906 83.238281 225.90625 79.1875 C 238.640625 69.417969 241.046875 51.121094 231.269531 38.390625 C 221.492188 25.667969 203.1875 23.261719 190.445312 33.03125 C 177.714844 42.800781 175.308594 61.097656 185.085938 73.828125 C 188.507812 78.28125 192.984375 81.464844 197.890625 83.308594 L 188.523438 133.558594 C 173.761719 132.015625 159.203125 135.554688 146.882812 143.65625 L 78.660156 55.882812 C 91.882812 42.453125 93.542969 20.941406 81.742188 5.582031 C 75.492188 -2.558594 66.4375 -7.773438 56.261719 -9.113281 C 46.082031 -10.445312 35.992188 -7.75 27.84375 -1.5 C 19.699219 4.746094 14.480469 13.789062 13.140625 23.960938 C 11.800781 34.132812 14.507812 44.21875 20.757812 52.359375 C 27.007812 60.5 36.058594 65.714844 46.238281 67.054688 C 47.9375 67.273438 49.636719 67.386719 51.324219 67.386719 C 58.105469 67.386719 64.714844 65.59375 70.570312 62.171875 L 138.789062 149.925781 C 127.660156 160.054688 120.53125 173.640625 118.542969 188.726562 C 118.449219 189.425781 118.390625 190.117188 118.320312 190.816406 L 81.527344 190.175781 C 80.757812 183.503906 78.238281 176.949219 73.851562 171.242188 C 67.601562 163.101562 58.550781 157.886719 48.371094 156.546875 C 38.195312 155.207031 28.101562 157.914062 19.953125 164.160156 C 3.140625 177.054688 -0.0351562 201.21875 12.867188 218.019531 C 19.117188 226.160156 28.167969 231.375 38.347656 232.714844 C 40.046875 232.9375 41.746094 233.046875 43.4375 233.046875 C 51.847656 233.046875 59.976562 230.300781 66.765625 225.09375 C 74.945312 218.824219 79.886719 209.871094 81.332031 200.40625 L 118.105469 201.046875 C 118.875 213.632812 123.351562 225.699219 131.207031 235.921875 C 141.050781 248.75 155.078125 257.195312 170.925781 259.933594 L 163.175781 343.765625 C 157.804688 344.207031 152.492188 346.144531 147.914062 349.660156 C 135.183594 359.429688 132.777344 377.726562 142.554688 390.457031 C 148.28125 397.90625 156.933594 401.824219 165.675781 401.824219 C 171.859375 401.824219 178.089844 399.871094 183.367188 395.816406 C 189.53125 391.082031 193.496094 384.238281 194.503906 376.53125 C 195.519531 368.824219 193.46875 361.1875 188.730469 355.027344 C 184.726562 349.8125 179.277344 346.332031 173.378906 344.710938 L 181.128906 260.890625 C 181.429688 260.890625 181.730469 260.90625 182.027344 260.90625 C 196.003906 260.90625 209.53125 256.34375 220.800781 247.691406 C 223.636719 245.515625 226.242188 243.125 228.640625 240.574219 L 289.84375 289.023438 C 282.066406 302.140625 282.554688 319.222656 292.390625 332.03125 C 298.640625 340.171875 307.691406 345.386719 317.867188 346.726562 C 319.566406 346.945312 321.265625 347.058594 322.957031 347.058594 C 331.367188 347.058594 339.496094 344.308594 346.285156 339.105469 C 363.097656 326.210938 366.273438 302.046875 353.371094 285.246094 C 347.132812 277.144531 338.082031 271.933594 327.902344 270.59375 Z M 313.625 116.21875 C 325.957031 106.765625 343.691406 109.09375 353.152344 121.410156 C 362.613281 133.730469 360.28125 151.453125 347.960938 160.910156 C 335.628906 170.363281 317.894531 168.035156 308.433594 155.71875 C 298.964844 143.398438 301.296875 125.675781 313.625 116.21875 Z M 193.222656 67.609375 C 186.886719 59.363281 188.449219 47.503906 196.695312 41.171875 C 200.113281 38.550781 204.152344 37.28125 208.164062 37.28125 C 213.832031 37.28125 219.445312 39.816406 223.148438 44.644531 C 229.484375 52.886719 227.921875 64.75 219.675781 71.082031 C 211.417969 77.410156 199.546875 75.859375 193.222656 67.609375 Z M 60.539062 217.003906 C 54.5625 221.585938 47.167969 223.566406 39.695312 222.585938 C 32.234375 221.605469 25.589844 217.78125 21.015625 211.808594 C 11.554688 199.488281 13.882812 181.761719 26.207031 172.308594 C 31.183594 168.496094 37.144531 166.480469 43.308594 166.480469 C 44.546875 166.480469 45.792969 166.566406 47.039062 166.726562 C 54.503906 167.710938 61.144531 171.53125 65.722656 177.503906 C 75.199219 189.828125 72.867188 207.542969 60.539062 217.003906 Z M 47.585938 56.925781 C 40.125 55.941406 33.480469 52.121094 28.902344 46.148438 C 24.316406 40.183594 22.335938 32.785156 23.320312 25.324219 C 24.300781 17.867188 28.125 11.230469 34.101562 6.65625 C 39.0625 2.832031 45.03125 0.820312 51.199219 0.820312 C 52.4375 0.820312 53.683594 0.90625 54.929688 1.066406 C 62.390625 2.046875 69.035156 5.871094 73.621094 11.84375 C 83.082031 24.164062 80.75 41.890625 68.429688 51.34375 C 62.453125 55.917969 55.046875 57.90625 47.585938 56.925781 Z M 180.617188 361.300781 C 183.683594 365.292969 185.015625 370.242188 184.359375 375.234375 C 183.699219 380.226562 181.140625 384.664062 177.144531 387.734375 C 168.894531 394.066406 157.027344 392.503906 150.691406 384.261719 C 144.355469 376.019531 145.917969 364.160156 154.164062 357.828125 C 157.582031 355.207031 161.621094 353.9375 165.632812 353.9375 C 171.304688 353.9375 176.914062 356.46875 180.617188 361.300781 Z M 214.578125 239.601562 C 203.210938 248.320312 189.121094 252.101562 174.914062 250.234375 C 160.707031 248.363281 148.078125 241.085938 139.351562 229.71875 C 121.335938 206.269531 125.773438 172.546875 149.238281 154.542969 C 160.605469 145.820312 174.691406 142.050781 188.902344 143.910156 C 203.109375 145.777344 215.738281 153.058594 224.464844 164.425781 C 242.480469 187.871094 238.042969 221.605469 214.578125 239.601562 Z M 340.050781 331.023438 C 334.085938 335.605469 326.679688 337.585938 319.210938 336.605469 C 311.746094 335.625 305.105469 331.800781 300.527344 325.828125 C 291.066406 313.503906 293.398438 295.78125 305.71875 286.328125 C 311.6875 281.746094 319.089844 279.765625 326.5625 280.746094 C 334.023438 281.730469 340.667969 285.550781 345.242188 291.523438 C 354.714844 303.847656 352.382812 321.5625 340.050781 331.023438 Z M 340.050781 331.023438 " fill-opacity="1" fill-rule="nonzero"/></svg>