<svg xmlns="http://www.w3.org/2000/svg" xmlns:xlink="http://www.w3.org/1999/xlink" width="500" zoomAndPan="magnify" viewBox="0 0 375 374.999991" height="500" preserveAspectRatio="xMidYMid meet" version="1.0"><defs><clipPath id="bc2f84d7be"><path d="M 58.625 15.457031 L 316.625 15.457031 L 316.625 359.628906 L 58.625 359.628906 Z M 58.625 15.457031 " clip-rule="nonzero"/></clipPath></defs><path fill="#2f5597" d="M 190.503906 93.878906 C 212.09375 93.878906 229.660156 111.425781 229.660156 133 L 229.660156 149.566406 L 241.382812 149.566406 L 241.382812 133 C 241.382812 104.96875 218.558594 82.164062 190.503906 82.164062 C 162.445312 82.164062 139.617188 104.96875 139.617188 133 L 139.617188 149.566406 L 151.34375 149.566406 L 151.34375 133 C 151.34375 111.425781 168.910156 93.878906 190.503906 93.878906 " fill-opacity="1" fill-rule="nonzero"/><path fill="#2f5597" d="M 154.851562 156.582031 L 139.234375 156.582031 C 134.21875 156.582031 130.140625 160.65625 130.140625 165.664062 L 130.140625 234.484375 C 130.140625 239.492188 134.21875 243.566406 139.234375 243.566406 L 241.769531 243.566406 C 246.78125 243.566406 250.863281 239.492188 250.863281 234.484375 L 250.863281 165.664062 C 250.863281 160.65625 246.78125 156.582031 241.769531 156.582031 Z M 205.402344 226.535156 C 205.542969 227.535156 205.238281 228.554688 204.570312 229.320312 C 203.902344 230.082031 202.9375 230.523438 201.921875 230.523438 L 179.078125 230.523438 C 178.0625 230.523438 177.097656 230.082031 176.433594 229.320312 C 175.765625 228.554688 175.460938 227.535156 175.601562 226.535156 L 178.875 202.875 C 174.421875 199.355469 171.824219 194.054688 171.824219 188.285156 C 171.824219 177.996094 180.203125 169.625 190.5 169.625 C 200.800781 169.625 209.179688 177.996094 209.179688 188.285156 C 209.179688 194.054688 206.582031 199.351562 202.125 202.875 L 205.402344 226.535156 " fill-opacity="1" fill-rule="nonzero"/><g clip-path="url(#2f5597)"><path fill="#2f5597" d="M 311.277344 57.597656 C 283.265625 54.089844 215.605469 43.167969 192.359375 17.53125 C 191.101562 16.144531 189.421875 15.382812 187.625 15.382812 C 185.828125 15.382812 184.144531 16.144531 182.890625 17.53125 C 159.644531 43.167969 91.980469 54.089844 63.96875 57.597656 C 60.945312 57.976562 58.664062 60.570312 58.664062 63.636719 L 58.664062 118.972656 C 58.664062 251.074219 154.507812 335.269531 183.882812 357.925781 C 186.085938 359.625 189.164062 359.632812 191.367188 357.925781 C 220.742188 335.269531 316.585938 251.074219 316.585938 118.972656 L 316.585938 63.636719 C 316.585938 60.570312 314.304688 57.976562 311.277344 57.597656 Z M 305.855469 128.128906 C 305.855469 245.511719 220.90625 320.15625 194.867188 340.242188 C 192.738281 341.886719 190.179688 342.710938 187.625 342.710938 C 185.066406 342.710938 182.511719 341.886719 180.378906 340.238281 C 154.34375 320.15625 69.390625 245.511719 69.390625 128.128906 L 69.390625 80.207031 C 69.390625 74.261719 73.835938 69.21875 79.726562 68.484375 C 98.089844 66.183594 159.492188 57.039062 178.667969 35.886719 C 180.976562 33.335938 184.246094 31.871094 187.625 31.871094 C 191.003906 31.871094 194.273438 33.335938 196.582031 35.886719 C 215.757812 57.039062 277.160156 66.183594 295.523438 68.484375 C 301.414062 69.21875 305.855469 74.261719 305.855469 80.207031 L 305.855469 128.128906 " fill-opacity="1" fill-rule="nonzero"/></g></svg>