<svg xmlns="http://www.w3.org/2000/svg" xmlns:xlink="http://www.w3.org/1999/xlink" width="500" zoomAndPan="magnify" viewBox="0 0 375 374.999991" height="500" preserveAspectRatio="xMidYMid meet" version="1.0"><defs><g/><clipPath id="52d3c9246f"><path d="M 51 51 L 324 51 L 324 324 L 51 324 Z M 51 51 " clip-rule="nonzero"/></clipPath><clipPath id="134ef9927e"><path d="M 197.40625 54.59375 C 203.558594 59.449219 211.796875 60.753906 219.148438 58.039062 C 226.089844 55.472656 233.882812 58.007812 237.992188 64.160156 C 242.34375 70.679688 249.773438 74.464844 257.605469 74.152344 C 265 73.859375 271.628906 78.675781 273.632812 85.800781 C 275.757812 93.34375 281.65625 99.242188 289.199219 101.367188 C 296.324219 103.371094 301.140625 110 300.847656 117.394531 C 300.535156 125.226562 304.320312 132.65625 310.839844 137.007812 C 316.992188 141.117188 319.527344 148.910156 316.960938 155.851562 C 314.246094 163.203125 315.550781 171.441406 320.40625 177.59375 C 324.988281 183.402344 324.988281 191.597656 320.40625 197.40625 C 315.550781 203.558594 314.246094 211.796875 316.960938 219.148438 C 319.527344 226.089844 316.992188 233.882812 310.839844 237.992188 C 304.320312 242.34375 300.535156 249.773438 300.847656 257.605469 C 301.140625 265 296.324219 271.628906 289.199219 273.632812 C 281.65625 275.757812 275.757812 281.65625 273.632812 289.199219 C 271.628906 296.324219 265 301.140625 257.605469 300.847656 C 249.773438 300.535156 242.34375 304.320312 237.992188 310.839844 C 233.882812 316.992188 226.089844 319.527344 219.148438 316.960938 C 211.796875 314.246094 203.558594 315.550781 197.40625 320.40625 C 191.597656 324.988281 183.402344 324.988281 177.59375 320.40625 C 171.441406 315.550781 163.203125 314.246094 155.851562 316.960938 C 148.910156 319.527344 141.117188 316.992188 137.007812 310.839844 C 132.65625 304.320312 125.226562 300.535156 117.394531 300.847656 C 110 301.140625 103.371094 296.324219 101.367188 289.199219 C 99.242188 281.65625 93.34375 275.757812 85.800781 273.632812 C 78.675781 271.628906 73.859375 265 74.152344 257.605469 C 74.464844 249.773438 70.679688 242.34375 64.160156 237.992188 C 58.007812 233.882812 55.472656 226.089844 58.039062 219.148438 C 60.753906 211.796875 59.449219 203.558594 54.59375 197.40625 C 50.011719 191.597656 50.011719 183.402344 54.59375 177.59375 C 59.449219 171.441406 60.753906 163.203125 58.039062 155.851562 C 55.472656 148.910156 58.007812 141.117188 64.160156 137.007812 C 70.679688 132.65625 74.464844 125.226562 74.152344 117.394531 C 73.859375 110 78.675781 103.371094 85.800781 101.367188 C 93.34375 99.242188 99.242188 93.34375 101.367188 85.800781 C 103.371094 78.675781 110 73.859375 117.394531 74.152344 C 125.226562 74.464844 132.65625 70.679688 137.007812 64.160156 C 141.117188 58.007812 148.910156 55.472656 155.851562 58.039062 C 163.203125 60.753906 171.441406 59.449219 177.59375 54.59375 C 183.402344 50.011719 191.597656 50.011719 197.40625 54.59375 Z M 197.40625 54.59375 " clip-rule="nonzero"/></clipPath><clipPath id="d9f0322cfe"><path d="M 72.277344 72.277344 L 302.722656 72.277344 L 302.722656 302.722656 L 72.277344 302.722656 Z M 72.277344 72.277344 " clip-rule="nonzero"/></clipPath><clipPath id="35efde863a"><path d="M 187.5 72.277344 C 123.863281 72.277344 72.277344 123.863281 72.277344 187.5 C 72.277344 251.136719 123.863281 302.722656 187.5 302.722656 C 251.136719 302.722656 302.722656 251.136719 302.722656 187.5 C 302.722656 123.863281 251.136719 72.277344 187.5 72.277344 Z M 187.5 72.277344 " clip-rule="nonzero"/></clipPath><clipPath id="926a9a29b5"><path d="M 82.304688 82.304688 L 292.691406 82.304688 L 292.691406 292.691406 L 82.304688 292.691406 Z M 82.304688 82.304688 " clip-rule="nonzero"/></clipPath><clipPath id="f2d4c9fd2e"><path d="M 187.5 82.304688 C 129.402344 82.304688 82.304688 129.402344 82.304688 187.5 C 82.304688 245.59375 129.402344 292.691406 187.5 292.691406 C 245.59375 292.691406 292.691406 245.59375 292.691406 187.5 C 292.691406 129.402344 245.59375 82.304688 187.5 82.304688 Z M 187.5 82.304688 " clip-rule="nonzero"/></clipPath></defs><rect x="-37.5" width="450" fill="#ffffff" y="-37.499999" height="449.999989" fill-opacity="1"/><rect x="-37.5" width="450" fill="#ffffff" y="-37.499999" height="449.999989" fill-opacity="1"/><g clip-path="url(#52d3c9246f)"><g clip-path="url(#134ef9927e)"><path fill="#2f5597" d="M 46.777344 46.777344 L 328.222656 46.777344 L 328.222656 328.222656 L 46.777344 328.222656 Z M 46.777344 46.777344 " fill-opacity="1" fill-rule="nonzero"/></g></g><g clip-path="url(#d9f0322cfe)"><g clip-path="url(#35efde863a)"><path fill="#f8f8f8" d="M 72.277344 72.277344 L 302.722656 72.277344 L 302.722656 302.722656 L 72.277344 302.722656 Z M 72.277344 72.277344 " fill-opacity="1" fill-rule="nonzero"/></g></g><g clip-path="url(#926a9a29b5)"><g clip-path="url(#f2d4c9fd2e)"><path fill="#2f5597" d="M 183.066406 84.648438 C 182.332031 84.679688 181.597656 84.71875 180.867188 84.765625 L 180.582031 80.273438 C 181.34375 80.226562 182.109375 80.183594 182.875 80.152344 Z M 178.679688 84.925781 C 177.953125 84.988281 177.222656 85.058594 176.496094 85.136719 L 176.023438 80.660156 C 176.78125 80.582031 177.539062 80.507812 178.300781 80.441406 Z M 174.296875 85.394531 C 173.566406 85.488281 172.839844 85.585938 172.109375 85.695312 L 171.445312 81.246094 C 172.203125 81.132812 172.964844 81.027344 173.726562 80.929688 Z M 169.9375 86.046875 C 169.21875 86.167969 168.5 86.300781 167.78125 86.441406 L 166.925781 82.023438 C 167.675781 81.878906 168.425781 81.742188 169.175781 81.609375 Z M 165.625 86.882812 C 164.90625 87.039062 164.1875 87.203125 163.472656 87.375 L 162.425781 82.996094 C 163.171875 82.816406 163.921875 82.648438 164.675781 82.484375 Z M 161.332031 87.910156 C 160.625 88.09375 159.917969 88.289062 159.214844 88.488281 L 157.980469 84.160156 C 158.714844 83.953125 159.453125 83.75 160.191406 83.554688 Z M 157.113281 89.113281 C 156.410156 89.328125 155.707031 89.554688 155.007812 89.785156 L 153.589844 85.515625 C 154.320312 85.273438 155.050781 85.039062 155.785156 84.8125 Z M 152.921875 90.503906 C 152.230469 90.75 151.542969 91.003906 150.855469 91.265625 L 149.253906 87.0625 C 149.96875 86.789062 150.6875 86.523438 151.410156 86.265625 Z M 148.8125 92.070312 C 148.132812 92.347656 147.457031 92.628906 146.785156 92.917969 L 145.003906 88.785156 C 145.703125 88.484375 146.410156 88.1875 147.121094 87.902344 Z M 144.765625 93.816406 C 144.097656 94.121094 143.433594 94.433594 142.769531 94.753906 L 140.8125 90.699219 C 141.503906 90.367188 142.199219 90.039062 142.894531 89.722656 Z M 140.800781 95.730469 C 140.148438 96.0625 139.5 96.402344 138.855469 96.75 L 136.722656 92.785156 C 137.398438 92.421875 138.074219 92.070312 138.757812 91.722656 Z M 136.921875 97.8125 C 136.28125 98.175781 135.648438 98.542969 135.015625 98.917969 L 132.71875 95.050781 C 133.378906 94.660156 134.039062 94.273438 134.707031 93.894531 Z M 133.132812 100.0625 C 132.511719 100.453125 131.894531 100.847656 131.277344 101.246094 L 128.816406 97.480469 C 129.457031 97.0625 130.105469 96.648438 130.753906 96.246094 Z M 129.449219 102.46875 C 128.84375 102.886719 128.242188 103.308594 127.644531 103.734375 L 125.023438 100.074219 C 125.648438 99.628906 126.277344 99.1875 126.910156 98.757812 Z M 125.863281 105.035156 C 125.277344 105.476562 124.695312 105.921875 124.117188 106.375 L 121.34375 102.832031 C 121.945312 102.359375 122.554688 101.894531 123.167969 101.433594 Z M 122.398438 107.75 C 121.828125 108.214844 121.265625 108.683594 120.707031 109.160156 L 117.785156 105.738281 C 118.367188 105.242188 118.957031 104.75 119.550781 104.265625 Z M 119.046875 110.609375 C 118.496094 111.097656 117.953125 111.59375 117.417969 112.09375 L 114.351562 108.796875 C 114.914062 108.273438 115.480469 107.757812 116.050781 107.25 Z M 115.820312 113.609375 C 115.292969 114.121094 114.773438 114.636719 114.253906 115.160156 L 111.054688 111.996094 C 111.59375 111.453125 112.136719 110.914062 112.6875 110.378906 Z M 112.726562 116.742188 C 112.21875 117.277344 111.722656 117.816406 111.226562 118.359375 L 107.894531 115.335938 C 108.410156 114.769531 108.929688 114.207031 109.457031 113.648438 Z M 109.765625 120.007812 C 109.28125 120.5625 108.808594 121.121094 108.335938 121.683594 L 104.878906 118.804688 C 105.367188 118.214844 105.867188 117.632812 106.367188 117.054688 Z M 106.945312 123.390625 C 106.488281 123.964844 106.039062 124.542969 105.59375 125.128906 L 102.015625 122.398438 C 102.480469 121.789062 102.949219 121.1875 103.429688 120.585938 Z M 104.277344 126.894531 C 103.84375 127.488281 103.417969 128.085938 102.996094 128.6875 L 99.304688 126.113281 C 99.742188 125.484375 100.1875 124.859375 100.640625 124.242188 Z M 101.753906 130.507812 C 101.347656 131.117188 100.949219 131.734375 100.554688 132.351562 L 96.757812 129.9375 C 97.167969 129.292969 97.585938 128.652344 98.011719 128.015625 Z M 99.394531 134.222656 C 99.015625 134.851562 98.640625 135.484375 98.273438 136.121094 L 94.375 133.871094 C 94.757812 133.207031 95.148438 132.546875 95.546875 131.890625 Z M 97.191406 138.042969 C 96.839844 138.683594 96.492188 139.332031 96.152344 139.980469 L 92.164062 137.902344 C 92.515625 137.222656 92.878906 136.546875 93.246094 135.875 Z M 95.15625 141.941406 C 94.832031 142.601562 94.515625 143.261719 94.203125 143.925781 L 90.128906 142.019531 C 90.453125 141.324219 90.785156 140.632812 91.125 139.949219 Z M 93.289062 145.933594 C 92.992188 146.605469 92.703125 147.28125 92.421875 147.960938 L 88.265625 146.230469 C 88.5625 145.523438 88.863281 144.816406 89.175781 144.117188 Z M 91.597656 149.996094 C 91.332031 150.679688 91.070312 151.363281 90.820312 152.054688 L 86.59375 150.503906 C 86.859375 149.785156 87.128906 149.070312 87.410156 148.355469 Z M 90.082031 154.128906 C 89.84375 154.828125 89.613281 155.527344 89.390625 156.226562 L 85.101562 154.863281 C 85.335938 154.128906 85.574219 153.398438 85.824219 152.671875 Z M 88.746094 158.328125 C 88.539062 159.03125 88.339844 159.734375 88.148438 160.441406 L 83.804688 159.261719 C 84.003906 158.523438 84.210938 157.789062 84.429688 157.054688 Z M 87.59375 162.570312 C 87.414062 163.285156 87.246094 164.003906 87.082031 164.71875 L 82.695312 163.726562 C 82.863281 162.980469 83.039062 162.230469 83.226562 161.484375 Z M 86.617188 166.882812 C 86.472656 167.597656 86.335938 168.3125 86.207031 169.03125 L 81.777344 168.230469 C 81.914062 167.480469 82.058594 166.734375 82.210938 165.988281 Z M 85.839844 171.199219 C 85.722656 171.921875 85.613281 172.648438 85.515625 173.378906 L 81.058594 172.765625 C 81.160156 172.007812 81.273438 171.246094 81.394531 170.492188 Z M 85.238281 175.574219 C 85.152344 176.304688 85.078125 177.035156 85.007812 177.765625 L 80.527344 177.347656 C 80.601562 176.582031 80.679688 175.820312 80.769531 175.058594 Z M 84.828125 179.945312 C 84.773438 180.675781 84.730469 181.410156 84.691406 182.140625 L 80.199219 181.910156 C 80.238281 181.148438 80.285156 180.382812 80.339844 179.621094 Z M 84.601562 184.347656 C 84.578125 185.085938 84.566406 185.824219 84.558594 186.5625 L 80.058594 186.523438 C 80.066406 185.753906 80.082031 184.980469 80.105469 184.210938 Z M 84.5625 188.789062 C 84.570312 189.527344 84.589844 190.269531 84.613281 191.003906 L 80.117188 191.15625 C 80.089844 190.386719 80.074219 189.617188 80.0625 188.84375 Z M 84.710938 193.210938 C 84.75 193.941406 84.796875 194.671875 84.855469 195.402344 L 80.367188 195.742188 C 80.308594 194.980469 80.257812 194.21875 80.21875 193.453125 Z M 85.042969 197.578125 C 85.113281 198.3125 85.191406 199.046875 85.28125 199.777344 L 80.8125 200.308594 C 80.71875 199.546875 80.636719 198.78125 80.5625 198.015625 Z M 85.5625 201.96875 C 85.667969 202.699219 85.777344 203.421875 85.894531 204.148438 L 81.453125 204.871094 C 81.328125 204.113281 81.214844 203.355469 81.109375 202.597656 Z M 86.269531 206.3125 C 86.402344 207.027344 86.542969 207.746094 86.691406 208.460938 L 82.285156 209.371094 C 82.128906 208.625 81.984375 207.878906 81.84375 207.128906 Z M 87.160156 210.625 C 87.328125 211.339844 87.5 212.054688 87.679688 212.769531 L 83.316406 213.871094 C 83.128906 213.125 82.949219 212.378906 82.777344 211.628906 Z M 88.238281 214.894531 C 88.433594 215.601562 88.636719 216.304688 88.84375 217.003906 L 84.535156 218.292969 C 84.316406 217.5625 84.105469 216.828125 83.902344 216.089844 Z M 89.496094 219.105469 C 89.722656 219.808594 89.957031 220.503906 90.199219 221.203125 L 85.945312 222.675781 C 85.695312 221.949219 85.449219 221.21875 85.214844 220.488281 Z M 90.941406 223.277344 C 91.195312 223.964844 91.457031 224.648438 91.726562 225.328125 L 87.542969 226.984375 C 87.261719 226.273438 86.988281 225.558594 86.722656 224.839844 Z M 92.558594 227.363281 C 92.84375 228.039062 93.132812 228.714844 93.433594 229.386719 L 89.324219 231.21875 C 89.011719 230.519531 88.707031 229.8125 88.410156 229.105469 Z M 94.355469 231.390625 C 94.667969 232.054688 94.988281 232.714844 95.316406 233.371094 L 91.289062 235.378906 C 90.945312 234.695312 90.613281 234.003906 90.285156 233.3125 Z M 96.316406 235.328125 C 96.660156 235.976562 97.007812 236.625 97.363281 237.265625 L 93.425781 239.445312 C 93.054688 238.773438 92.691406 238.101562 92.335938 237.421875 Z M 98.449219 239.183594 C 98.820312 239.820312 99.195312 240.449219 99.578125 241.078125 L 95.738281 243.421875 C 95.339844 242.769531 94.945312 242.109375 94.5625 241.445312 Z M 100.746094 242.941406 C 101.140625 243.558594 101.542969 244.171875 101.953125 244.78125 L 98.214844 247.289062 C 97.789062 246.652344 97.371094 246.015625 96.957031 245.371094 Z M 103.199219 246.597656 C 103.621094 247.199219 104.050781 247.796875 104.484375 248.390625 L 100.859375 251.054688 C 100.40625 250.433594 99.957031 249.8125 99.515625 249.1875 Z M 105.808594 250.148438 C 106.253906 250.730469 106.707031 251.308594 107.167969 251.882812 L 103.660156 254.699219 C 103.179688 254.101562 102.707031 253.5 102.238281 252.890625 Z M 108.566406 253.582031 C 109.035156 254.148438 109.515625 254.703125 109.996094 255.257812 L 106.613281 258.222656 C 106.105469 257.644531 105.609375 257.0625 105.117188 256.472656 Z M 111.464844 256.898438 C 111.960938 257.441406 112.460938 257.980469 112.96875 258.511719 L 109.710938 261.613281 C 109.183594 261.058594 108.660156 260.5 108.144531 259.933594 Z M 114.503906 260.089844 C 115.023438 260.609375 115.546875 261.125 116.074219 261.632812 L 112.953125 264.875 C 112.398438 264.34375 111.855469 263.804688 111.3125 263.261719 Z M 117.675781 263.144531 C 118.214844 263.644531 118.761719 264.136719 119.3125 264.621094 L 116.328125 267.992188 C 115.753906 267.484375 115.1875 266.96875 114.625 266.449219 Z M 120.976562 266.066406 C 121.535156 266.539062 122.101562 267.007812 122.671875 267.46875 L 119.835938 270.964844 C 119.242188 270.480469 118.652344 269.992188 118.066406 269.496094 Z M 124.394531 268.839844 C 124.976562 269.289062 125.558594 269.734375 126.148438 270.171875 L 123.464844 273.785156 C 122.851562 273.328125 122.238281 272.863281 121.636719 272.394531 Z M 127.929688 271.46875 C 128.53125 271.894531 129.132812 272.3125 129.742188 272.726562 L 127.214844 276.449219 C 126.578125 276.019531 125.949219 275.578125 125.324219 275.136719 Z M 131.574219 273.941406 C 132.191406 274.339844 132.8125 274.734375 133.433594 275.121094 L 131.066406 278.945312 C 130.414062 278.542969 129.769531 278.132812 129.128906 277.71875 Z M 135.320312 276.257812 C 135.953125 276.632812 136.589844 276.996094 137.230469 277.355469 L 135.03125 281.28125 C 134.363281 280.90625 133.695312 280.523438 133.035156 280.136719 Z M 139.164062 278.414062 C 139.8125 278.757812 140.460938 279.09375 141.117188 279.425781 L 139.085938 283.441406 C 138.402344 283.097656 137.722656 282.742188 137.050781 282.382812 Z M 143.089844 280.398438 C 143.753906 280.714844 144.417969 281.023438 145.089844 281.328125 L 143.234375 285.429688 C 142.535156 285.113281 141.839844 284.789062 141.148438 284.457031 Z M 147.109375 282.21875 C 147.78125 282.503906 148.460938 282.785156 149.140625 283.058594 L 147.460938 287.234375 C 146.753906 286.949219 146.046875 286.65625 145.34375 286.355469 Z M 151.1875 283.855469 C 151.875 284.113281 152.5625 284.367188 153.257812 284.609375 L 151.761719 288.855469 C 151.035156 288.597656 150.316406 288.335938 149.601562 288.066406 Z M 155.347656 285.320312 C 156.042969 285.550781 156.746094 285.773438 157.449219 285.988281 L 156.136719 290.292969 C 155.402344 290.066406 154.671875 289.835938 153.941406 289.597656 Z M 159.554688 286.605469 C 160.257812 286.800781 160.964844 286.992188 161.675781 287.175781 L 160.550781 291.535156 C 159.808594 291.34375 159.070312 291.144531 158.335938 290.9375 Z M 163.816406 287.703125 C 164.535156 287.875 165.253906 288.035156 165.972656 288.1875 L 165.039062 292.589844 C 164.285156 292.429688 163.535156 292.261719 162.785156 292.085938 Z M 168.128906 288.621094 C 168.847656 288.757812 169.566406 288.886719 170.289062 289.007812 L 169.539062 293.445312 C 168.789062 293.320312 168.039062 293.1875 167.289062 293.042969 Z M 172.460938 289.351562 C 173.1875 289.457031 173.917969 289.558594 174.648438 289.648438 L 174.09375 294.113281 C 173.332031 294.019531 172.570312 293.914062 171.808594 293.804688 Z M 176.851562 289.898438 C 177.578125 289.972656 178.304688 290.039062 179.03125 290.097656 L 178.664062 294.582031 C 177.90625 294.523438 177.148438 294.453125 176.394531 294.375 Z M 181.21875 290.253906 C 181.953125 290.296875 182.6875 290.332031 183.417969 290.363281 L 183.246094 294.859375 C 182.476562 294.828125 181.710938 294.792969 180.949219 294.746094 Z M 185.613281 290.425781 L 187.519531 290.441406 L 187.859375 290.441406 L 187.867188 294.941406 L 187.476562 294.941406 L 185.574219 294.925781 Z M 190.078125 290.410156 C 190.8125 290.390625 191.550781 290.367188 192.285156 290.332031 L 192.492188 294.828125 C 191.722656 294.863281 190.957031 294.890625 190.1875 294.910156 Z M 194.484375 290.207031 C 195.210938 290.160156 195.9375 290.101562 196.667969 290.039062 L 197.0625 294.523438 C 196.304688 294.589844 195.542969 294.648438 194.785156 294.699219 Z M 198.855469 289.824219 C 199.585938 289.742188 200.320312 289.652344 201.050781 289.558594 L 201.640625 294.019531 C 200.875 294.121094 200.109375 294.210938 199.34375 294.296875 Z M 203.234375 289.246094 C 203.960938 289.136719 204.683594 289.015625 205.40625 288.890625 L 206.183594 293.324219 C 205.429688 293.453125 204.675781 293.578125 203.917969 293.695312 Z M 207.558594 288.488281 C 208.277344 288.347656 209 288.195312 209.71875 288.039062 L 210.683594 292.433594 C 209.933594 292.597656 209.183594 292.753906 208.429688 292.902344 Z M 211.871094 287.539062 C 212.582031 287.367188 213.296875 287.1875 214.003906 286.996094 L 215.160156 291.347656 C 214.421875 291.542969 213.675781 291.730469 212.933594 291.914062 Z M 216.121094 286.410156 C 216.824219 286.207031 217.523438 285.996094 218.222656 285.777344 L 219.5625 290.074219 C 218.835938 290.300781 218.105469 290.523438 217.371094 290.734375 Z M 220.324219 285.097656 C 221.023438 284.863281 221.714844 284.621094 222.40625 284.371094 L 223.933594 288.605469 C 223.210938 288.867188 222.488281 289.117188 221.757812 289.363281 Z M 224.46875 283.605469 C 225.152344 283.339844 225.835938 283.070312 226.511719 282.792969 L 228.21875 286.957031 C 227.511719 287.246094 226.800781 287.527344 226.085938 287.804688 Z M 228.539062 281.9375 C 229.214844 281.640625 229.886719 281.339844 230.554688 281.035156 L 232.4375 285.121094 C 231.738281 285.441406 231.039062 285.753906 230.335938 286.0625 Z M 232.542969 280.089844 C 233.203125 279.769531 233.859375 279.441406 234.511719 279.105469 L 236.570312 283.105469 C 235.886719 283.457031 235.203125 283.800781 234.515625 284.132812 Z M 236.453125 278.078125 C 237.101562 277.730469 237.742188 277.371094 238.382812 277.007812 L 240.609375 280.917969 C 239.941406 281.296875 239.273438 281.671875 238.597656 282.035156 Z M 240.285156 275.894531 C 240.914062 275.519531 241.542969 275.136719 242.164062 274.746094 L 244.554688 278.554688 C 243.90625 278.964844 243.253906 279.363281 242.597656 279.757812 Z M 244.015625 273.554688 C 244.625 273.152344 245.234375 272.742188 245.839844 272.324219 L 248.394531 276.03125 C 247.761719 276.464844 247.128906 276.894531 246.488281 277.3125 Z M 247.640625 271.054688 C 248.238281 270.625 248.828125 270.191406 249.414062 269.746094 L 252.125 273.339844 C 251.511719 273.800781 250.894531 274.257812 250.273438 274.703125 Z M 251.160156 268.402344 C 251.734375 267.949219 252.304688 267.488281 252.871094 267.023438 L 255.730469 270.496094 C 255.140625 270.984375 254.546875 271.464844 253.945312 271.9375 Z M 254.558594 265.605469 C 255.117188 265.125 255.667969 264.640625 256.214844 264.152344 L 259.21875 267.5 C 258.648438 268.011719 258.074219 268.519531 257.492188 269.015625 Z M 257.839844 262.664062 C 258.375 262.160156 258.90625 261.652344 259.429688 261.140625 L 262.574219 264.359375 C 262.027344 264.894531 261.472656 265.421875 260.914062 265.949219 Z M 260.988281 259.585938 C 261.503906 259.058594 262.011719 258.53125 262.515625 257.996094 L 265.792969 261.078125 C 265.269531 261.636719 264.738281 262.1875 264.203125 262.734375 Z M 264.007812 256.375 C 264.496094 255.828125 264.984375 255.277344 265.464844 254.722656 L 268.871094 257.664062 C 268.371094 258.242188 267.863281 258.816406 267.351562 259.386719 Z M 266.886719 253.039062 C 267.351562 252.472656 267.8125 251.902344 268.269531 251.328125 L 271.796875 254.121094 C 271.324219 254.71875 270.839844 255.316406 270.355469 255.90625 Z M 269.617188 249.585938 C 270.0625 249 270.496094 248.410156 270.929688 247.816406 L 274.574219 250.457031 C 274.125 251.078125 273.667969 251.691406 273.203125 252.304688 Z M 272.203125 246.015625 C 272.621094 245.414062 273.03125 244.804688 273.4375 244.195312 L 277.191406 246.675781 C 276.769531 247.3125 276.339844 247.949219 275.902344 248.578125 Z M 274.628906 242.34375 C 275.023438 241.722656 275.40625 241.101562 275.785156 240.472656 L 279.640625 242.789062 C 279.246094 243.445312 278.84375 244.097656 278.4375 244.746094 Z M 276.898438 238.570312 C 277.265625 237.929688 277.625 237.289062 277.976562 236.644531 L 281.929688 238.792969 C 281.5625 239.46875 281.1875 240.140625 280.804688 240.804688 Z M 279.003906 234.703125 C 279.34375 234.050781 279.671875 233.394531 279.996094 232.738281 L 284.035156 234.71875 C 283.699219 235.40625 283.355469 236.089844 283.003906 236.769531 Z M 280.941406 230.75 C 281.253906 230.082031 281.554688 229.410156 281.847656 228.738281 L 285.972656 230.542969 C 285.664062 231.246094 285.347656 231.945312 285.027344 232.640625 Z M 282.710938 226.710938 C 282.988281 226.03125 283.261719 225.351562 283.527344 224.671875 L 287.722656 226.296875 C 287.445312 227.007812 287.164062 227.71875 286.871094 228.425781 Z M 284.296875 222.609375 C 284.550781 221.917969 284.792969 221.226562 285.027344 220.53125 L 289.289062 221.972656 C 289.042969 222.699219 288.789062 223.425781 288.527344 224.144531 Z M 285.714844 218.429688 C 285.933594 217.730469 286.144531 217.03125 286.351562 216.328125 L 290.671875 217.585938 C 290.457031 218.320312 290.234375 219.050781 290.007812 219.78125 Z M 286.941406 214.214844 C 287.132812 213.503906 287.3125 212.792969 287.488281 212.082031 L 291.859375 213.152344 C 291.675781 213.894531 291.488281 214.636719 291.289062 215.378906 Z M 287.992188 209.929688 C 288.152344 209.210938 288.300781 208.492188 288.445312 207.769531 L 292.859375 208.648438 C 292.710938 209.402344 292.550781 210.15625 292.382812 210.90625 Z M 288.851562 205.617188 C 288.980469 204.894531 289.101562 204.171875 289.214844 203.449219 L 293.660156 204.140625 C 293.542969 204.894531 293.417969 205.648438 293.285156 206.402344 Z M 289.527344 201.265625 C 289.625 200.535156 289.714844 199.804688 289.796875 199.070312 L 294.269531 199.570312 C 294.183594 200.335938 294.089844 201.101562 293.988281 201.863281 Z M 290.019531 196.878906 C 290.085938 196.152344 290.144531 195.425781 290.195312 194.699219 L 294.683594 195.007812 C 294.628906 195.765625 294.570312 196.527344 294.5 197.285156 Z M 290.320312 192.5 C 290.355469 191.765625 290.382812 191.03125 290.40625 190.292969 L 294.902344 190.414062 C 294.882812 191.183594 294.855469 191.949219 294.816406 192.71875 Z M 290.441406 188.082031 L 290.441406 187.492188 L 290.429688 185.832031 L 294.929688 185.796875 L 294.941406 187.503906 L 294.941406 188.09375 Z M 290.371094 183.636719 C 290.34375 182.902344 290.308594 182.167969 290.265625 181.433594 L 294.757812 181.171875 C 294.804688 181.9375 294.839844 182.703125 294.867188 183.46875 Z M 290.117188 179.246094 C 290.058594 178.519531 289.992188 177.792969 289.917969 177.066406 L 294.398438 176.617188 C 294.472656 177.375 294.542969 178.128906 294.601562 178.886719 Z M 289.675781 174.863281 C 289.585938 174.132812 289.488281 173.402344 289.382812 172.675781 L 293.835938 172.03125 C 293.945312 172.792969 294.046875 173.554688 294.140625 174.320312 Z M 289.046875 170.5 C 288.925781 169.777344 288.796875 169.058594 288.664062 168.339844 L 293.085938 167.507812 C 293.226562 168.257812 293.359375 169.007812 293.484375 169.761719 Z M 288.234375 166.1875 C 288.082031 165.464844 287.921875 164.746094 287.753906 164.027344 L 292.136719 163.003906 C 292.3125 163.753906 292.476562 164.507812 292.636719 165.261719 Z M 287.230469 161.882812 C 287.046875 161.175781 286.859375 160.464844 286.660156 159.761719 L 290.996094 158.550781 C 291.203125 159.289062 291.398438 160.027344 291.589844 160.769531 Z M 286.050781 157.652344 C 285.835938 156.949219 285.617188 156.25 285.390625 155.550781 L 289.667969 154.15625 C 289.90625 154.886719 290.136719 155.617188 290.355469 156.351562 Z M 284.683594 153.460938 C 284.4375 152.765625 284.1875 152.078125 283.929688 151.390625 L 288.144531 149.808594 C 288.414062 150.527344 288.675781 151.25 288.929688 151.972656 Z M 283.136719 149.339844 C 282.867188 148.660156 282.589844 147.984375 282.300781 147.308594 L 286.445312 145.550781 C 286.742188 146.253906 287.035156 146.960938 287.316406 147.671875 Z M 281.417969 145.285156 C 281.113281 144.613281 280.804688 143.949219 280.492188 143.285156 L 284.554688 141.351562 C 284.882812 142.042969 285.207031 142.738281 285.519531 143.4375 Z M 279.523438 141.308594 C 279.195312 140.652344 278.855469 140.003906 278.515625 139.355469 L 282.488281 137.246094 C 282.847656 137.921875 283.199219 138.601562 283.542969 139.285156 Z M 277.460938 137.421875 C 277.105469 136.777344 276.738281 136.140625 276.367188 135.507812 L 280.25 133.230469 C 280.636719 133.894531 281.019531 134.558594 281.390625 135.226562 Z M 275.234375 133.617188 C 274.847656 132.992188 274.457031 132.371094 274.058594 131.757812 L 277.839844 129.316406 C 278.253906 129.960938 278.664062 130.605469 279.066406 131.257812 Z M 272.847656 129.921875 C 272.433594 129.3125 272.015625 128.707031 271.59375 128.109375 L 275.265625 125.507812 C 275.707031 126.132812 276.144531 126.765625 276.574219 127.402344 Z M 270.300781 126.324219 C 269.863281 125.730469 269.421875 125.148438 268.972656 124.566406 L 272.53125 121.8125 C 273 122.417969 273.460938 123.03125 273.917969 123.644531 Z M 267.605469 122.839844 C 267.144531 122.269531 266.675781 121.703125 266.203125 121.140625 L 269.644531 118.238281 C 270.136719 118.824219 270.625 119.414062 271.105469 120.011719 Z M 264.765625 119.472656 C 264.28125 118.921875 263.789062 118.375 263.292969 117.835938 L 266.601562 114.789062 C 267.121094 115.351562 267.632812 115.921875 268.140625 116.496094 Z M 261.78125 116.230469 C 261.273438 115.699219 260.761719 115.175781 260.242188 114.65625 L 263.421875 111.472656 C 263.964844 112.015625 264.5 112.5625 265.03125 113.113281 Z M 258.667969 113.117188 C 258.136719 112.609375 257.601562 112.109375 257.058594 111.613281 L 260.101562 108.296875 C 260.664062 108.8125 261.222656 109.335938 261.777344 109.867188 Z M 255.417969 110.140625 C 254.867188 109.65625 254.3125 109.175781 253.75 108.703125 L 256.648438 105.261719 C 257.234375 105.753906 257.8125 106.253906 258.390625 106.761719 Z M 252.050781 107.304688 C 251.476562 106.84375 250.902344 106.386719 250.320312 105.941406 L 253.070312 102.378906 C 253.675781 102.84375 254.277344 103.320312 254.875 103.800781 Z M 248.5625 104.613281 C 247.972656 104.175781 247.375 103.746094 246.777344 103.324219 L 249.371094 99.648438 C 249.996094 100.089844 250.617188 100.539062 251.234375 100.992188 Z M 244.960938 102.070312 C 244.351562 101.664062 243.742188 101.257812 243.125 100.863281 L 245.558594 97.078125 C 246.203125 97.492188 246.839844 97.914062 247.476562 98.339844 Z M 241.261719 99.691406 C 240.636719 99.308594 240.003906 98.929688 239.371094 98.558594 L 241.640625 94.675781 C 242.304688 95.0625 242.960938 95.457031 243.613281 95.855469 Z M 237.453125 97.46875 C 236.8125 97.109375 236.167969 96.761719 235.519531 96.417969 L 237.621094 92.4375 C 238.300781 92.796875 238.972656 93.160156 239.640625 93.535156 Z M 233.566406 95.410156 C 232.910156 95.082031 232.25 94.761719 231.585938 94.445312 L 233.515625 90.382812 C 234.207031 90.710938 234.894531 91.046875 235.582031 91.390625 Z M 229.585938 93.523438 C 228.914062 93.222656 228.238281 92.925781 227.558594 92.640625 L 229.3125 88.496094 C 230.019531 88.796875 230.726562 89.101562 231.425781 89.417969 Z M 225.53125 91.808594 C 224.847656 91.535156 224.164062 91.273438 223.476562 91.015625 L 225.050781 86.800781 C 225.769531 87.066406 226.480469 87.34375 227.191406 87.625 Z M 221.40625 90.269531 C 220.710938 90.027344 220.011719 89.792969 219.3125 89.566406 L 220.703125 85.285156 C 221.433594 85.523438 222.160156 85.765625 222.886719 86.019531 Z M 217.210938 88.90625 C 216.511719 88.695312 215.808594 88.492188 215.101562 88.296875 L 216.308594 83.960938 C 217.042969 84.164062 217.777344 84.378906 218.507812 84.597656 Z M 212.976562 87.730469 C 212.265625 87.550781 211.550781 87.375 210.835938 87.210938 L 211.851562 82.828125 C 212.597656 83 213.34375 83.179688 214.089844 83.371094 Z M 208.671875 86.734375 C 207.957031 86.585938 207.242188 86.441406 206.523438 86.308594 L 207.347656 81.886719 C 208.097656 82.027344 208.847656 82.171875 209.59375 82.328125 Z M 204.359375 85.929688 C 203.636719 85.808594 202.910156 85.699219 202.183594 85.59375 L 202.820312 81.140625 C 203.578125 81.246094 204.335938 81.363281 205.09375 81.488281 Z M 199.992188 85.304688 C 199.261719 85.214844 198.527344 85.136719 197.792969 85.0625 L 198.238281 80.585938 C 199.003906 80.660156 199.769531 80.746094 200.535156 80.835938 Z M 195.613281 84.871094 C 194.886719 84.8125 194.15625 84.765625 193.425781 84.722656 L 193.679688 80.230469 C 194.441406 80.273438 195.203125 80.324219 195.964844 80.382812 Z M 191.222656 84.621094 C 190.484375 84.59375 189.746094 84.578125 189.007812 84.566406 L 189.070312 80.066406 C 189.84375 80.078125 190.613281 80.097656 191.382812 80.125 Z M 187.5 84.554688 C 186.757812 84.554688 186.015625 84.5625 185.277344 84.578125 L 185.179688 80.078125 C 185.953125 80.0625 186.726562 80.054688 187.5 80.054688 Z M 187.5 84.554688 " fill-opacity="1" fill-rule="nonzero"/></g></g><g fill="#2f5597" fill-opacity="1"><g transform="translate(93.236305, 206.635182)"><g><path d="M 22.671875 -63.171875 C 24.710938 -63.171875 26.484375 -62.972656 27.984375 -62.578125 C 29.484375 -62.191406 31.015625 -61.671875 32.578125 -61.015625 C 33.359375 -60.710938 34.125 -60.441406 34.875 -60.203125 C 35.625 -59.960938 36.296875 -59.84375 36.890625 -59.84375 C 38.328125 -59.84375 39.46875 -60.953125 40.3125 -63.171875 L 42.015625 -63.171875 L 42.015625 -42.65625 L 40.3125 -42.65625 C 40.007812 -45.832031 39.0625 -48.722656 37.46875 -51.328125 C 35.882812 -53.941406 33.90625 -56 31.53125 -57.5 C 29.164062 -59 26.632812 -59.75 23.9375 -59.75 C 21 -59.75 18.476562 -58.863281 16.375 -57.09375 C 14.28125 -55.320312 13.234375 -53.175781 13.234375 -50.65625 C 13.234375 -47.71875 14.671875 -45.171875 17.546875 -43.015625 C 19.585938 -41.515625 22.4375 -39.710938 26.09375 -37.609375 C 29.332031 -35.628906 32.03125 -33.921875 34.1875 -32.484375 C 36.351562 -31.046875 38.363281 -29.488281 40.21875 -27.8125 C 41.90625 -26.1875 43.242188 -24.320312 44.234375 -22.21875 C 45.222656 -20.125 45.71875 -17.96875 45.71875 -15.75 C 45.71875 -12.6875 44.875 -9.832031 43.1875 -7.1875 C 41.507812 -4.550781 39.210938 -2.46875 36.296875 -0.9375 C 33.390625 0.582031 30.195312 1.34375 26.71875 1.34375 C 24.5 1.34375 22.535156 1.148438 20.828125 0.765625 C 19.117188 0.378906 17.335938 -0.144531 15.484375 -0.8125 C 13.441406 -1.53125 11.910156 -1.890625 10.890625 -1.890625 C 9.265625 -1.890625 8.035156 -0.8125 7.203125 1.34375 L 5.578125 1.34375 L 5.578125 -19.4375 L 7.203125 -19.4375 C 8.222656 -14.09375 10.242188 -9.859375 13.265625 -6.734375 C 16.296875 -3.617188 20.210938 -2.0625 25.015625 -2.0625 C 28.429688 -2.0625 31.25 -2.992188 33.46875 -4.859375 C 35.6875 -6.722656 36.796875 -9.0625 36.796875 -11.875 C 36.796875 -13.3125 36.523438 -14.628906 35.984375 -15.828125 C 35.453125 -17.035156 34.554688 -18.328125 33.296875 -19.703125 C 32.148438 -20.898438 30.523438 -22.203125 28.421875 -23.609375 C 26.328125 -25.023438 23.539062 -26.785156 20.0625 -28.890625 C 17.125 -30.679688 14.875 -32.101562 13.3125 -33.15625 C 11.757812 -34.207031 10.59375 -35.125 9.8125 -35.90625 C 6.75 -39.019531 5.21875 -42.769531 5.21875 -47.15625 C 5.21875 -50.15625 5.984375 -52.867188 7.515625 -55.296875 C 9.046875 -57.722656 11.128906 -59.640625 13.765625 -61.046875 C 16.410156 -62.460938 19.378906 -63.171875 22.671875 -63.171875 Z M 22.671875 -63.171875 "/></g></g></g><g fill="#2f5597" fill-opacity="1"><g transform="translate(137.775337, 206.635182)"><g><path d="M 44.71875 -14.578125 L 66.40625 -61.8125 L 85.21875 -61.8125 L 85.21875 -60.203125 L 84.578125 -60.203125 C 81.703125 -60.203125 79.570312 -59.691406 78.1875 -58.671875 C 76.8125 -57.648438 76.125 -55.703125 76.125 -52.828125 L 76.125 -8.90625 C 76.125 -6.269531 76.785156 -4.394531 78.109375 -3.28125 C 79.429688 -2.175781 81.648438 -1.625 84.765625 -1.625 L 85.21875 -1.625 L 85.21875 0 L 57.3125 0 L 57.3125 -1.625 L 58.125 -1.625 C 60.945312 -1.625 63.03125 -2.175781 64.375 -3.28125 C 65.726562 -4.394531 66.40625 -6.332031 66.40625 -9.09375 L 66.40625 -51.828125 L 66.234375 -51.828125 L 42.46875 0 L 40.859375 0 L 17.09375 -51.828125 L 16.921875 -51.828125 L 16.921875 -9 C 16.921875 -6.113281 17.578125 -4.175781 18.890625 -3.1875 C 20.210938 -2.195312 22.4375 -1.675781 25.5625 -1.625 L 25.5625 0 L 3.875 0 L 3.875 -1.625 L 4.40625 -1.625 C 7.289062 -1.625 9.421875 -2.144531 10.796875 -3.1875 C 12.179688 -4.238281 12.875 -6.207031 12.875 -9.09375 L 12.875 -51.296875 C 12.875 -54.109375 12.148438 -56.21875 10.703125 -57.625 C 9.265625 -59.039062 6.988281 -59.898438 3.875 -60.203125 L 3.875 -61.8125 L 22.765625 -61.8125 Z M 44.71875 -14.578125 "/></g></g></g><g fill="#2f5597" fill-opacity="1"><g transform="translate(221.72514, 206.635182)"><g><path d="M 53.265625 -45.359375 C 53.265625 -41.992188 52.242188 -39.109375 50.203125 -36.703125 C 48.171875 -34.304688 45.414062 -32.691406 41.9375 -31.859375 L 41.9375 -31.671875 C 46.132812 -31.015625 49.519531 -29.257812 52.09375 -26.40625 C 54.675781 -23.5625 55.96875 -20.28125 55.96875 -16.5625 C 55.96875 -13.375 55.113281 -10.519531 53.40625 -8 C 51.695312 -5.488281 49.222656 -3.523438 45.984375 -2.109375 C 42.742188 -0.703125 38.929688 0 34.546875 0 L 3.6875 0 L 3.6875 -1.625 C 6.207031 -1.625 8.097656 -1.90625 9.359375 -2.46875 C 10.617188 -3.039062 11.488281 -3.957031 11.96875 -5.21875 C 12.445312 -6.476562 12.6875 -8.304688 12.6875 -10.703125 L 12.6875 -50.65625 C 12.6875 -53.238281 12.460938 -55.1875 12.015625 -56.5 C 11.566406 -57.820312 10.710938 -58.753906 9.453125 -59.296875 C 8.191406 -59.835938 6.269531 -60.140625 3.6875 -60.203125 L 3.6875 -61.8125 L 30.328125 -61.8125 C 33.921875 -61.8125 37.441406 -61.316406 40.890625 -60.328125 C 44.347656 -59.335938 47.273438 -57.613281 49.671875 -55.15625 C 52.066406 -52.695312 53.265625 -49.429688 53.265625 -45.359375 Z M 22.40625 -58.21875 L 22.40625 -34.1875 C 25.644531 -33.53125 28.132812 -33.203125 29.875 -33.203125 C 32.332031 -33.203125 34.535156 -33.753906 36.484375 -34.859375 C 38.429688 -35.972656 39.960938 -37.472656 41.078125 -39.359375 C 42.191406 -41.253906 42.75 -43.34375 42.75 -45.625 C 42.75 -49.40625 41.457031 -52.550781 38.875 -55.0625 C 36.289062 -57.582031 32.84375 -58.84375 28.53125 -58.84375 C 26.488281 -58.84375 24.445312 -58.632812 22.40625 -58.21875 Z M 22.40625 -29.96875 L 22.40625 -4.3125 C 24.988281 -3.539062 27.476562 -3.15625 29.875 -3.15625 C 34.375 -3.15625 37.972656 -4.367188 40.671875 -6.796875 C 43.367188 -9.222656 44.71875 -12.414062 44.71875 -16.375 C 44.71875 -20.570312 43.082031 -23.929688 39.8125 -26.453125 C 36.539062 -28.972656 32.085938 -30.234375 26.453125 -30.234375 C 25.492188 -30.234375 24.144531 -30.144531 22.40625 -29.96875 Z M 22.40625 -29.96875 "/></g></g></g><g fill="#2f5597" fill-opacity="1"><g transform="translate(139.550115, 125.094526)"><g><path d="M 10.484375 -18.25 C 11.378906 -18.25 12.117188 -18.171875 12.703125 -18.015625 C 13.296875 -17.859375 13.929688 -17.644531 14.609375 -17.375 C 14.679688 -17.332031 14.859375 -17.253906 15.140625 -17.140625 C 15.429688 -17.035156 15.6875 -16.984375 15.90625 -16.984375 C 16.570312 -16.984375 16.984375 -17.394531 17.140625 -18.21875 L 17.65625 -18.21875 L 17.65625 -12.25 L 17.140625 -12.25 C 16.992188 -13.238281 16.640625 -14.097656 16.078125 -14.828125 C 15.515625 -15.566406 14.832031 -16.128906 14.03125 -16.515625 C 13.238281 -16.910156 12.425781 -17.109375 11.59375 -17.109375 C 10.414062 -17.109375 9.390625 -16.753906 8.515625 -16.046875 C 7.640625 -15.347656 6.972656 -14.375 6.515625 -13.125 C 6.054688 -11.882812 5.828125 -10.472656 5.828125 -8.890625 C 5.828125 -6.335938 6.328125 -4.335938 7.328125 -2.890625 C 8.335938 -1.453125 9.722656 -0.734375 11.484375 -0.734375 C 12.617188 -0.734375 13.632812 -1 14.53125 -1.53125 C 15.4375 -2.070312 16.359375 -2.890625 17.296875 -3.984375 L 17.296875 -2.546875 C 16.316406 -1.523438 15.300781 -0.785156 14.25 -0.328125 C 13.207031 0.128906 12.007812 0.359375 10.65625 0.359375 C 8.75 0.359375 7.082031 -0.0351562 5.65625 -0.828125 C 4.226562 -1.628906 3.128906 -2.710938 2.359375 -4.078125 C 1.585938 -5.453125 1.203125 -6.96875 1.203125 -8.625 C 1.203125 -10.34375 1.617188 -11.9375 2.453125 -13.40625 C 3.296875 -14.882812 4.425781 -16.0625 5.84375 -16.9375 C 7.269531 -17.8125 8.816406 -18.25 10.484375 -18.25 Z M 10.484375 -18.25 "/></g></g></g><g fill="#2f5597" fill-opacity="1"><g transform="translate(158.24381, 125.094526)"><g><path d="M 6.03125 -12.34375 C 7.09375 -12.34375 7.984375 -12.070312 8.703125 -11.53125 C 9.421875 -11 9.960938 -10.3125 10.328125 -9.46875 C 10.691406 -8.632812 10.878906 -7.765625 10.890625 -6.859375 L 10.890625 -6.421875 L 4.0625 -6.421875 C 4.164062 -4.984375 4.539062 -3.820312 5.1875 -2.9375 C 5.832031 -2.050781 6.644531 -1.609375 7.625 -1.609375 C 8.238281 -1.609375 8.765625 -1.773438 9.203125 -2.109375 C 9.648438 -2.453125 10.054688 -2.945312 10.421875 -3.59375 L 10.890625 -3.296875 C 10.304688 -2.054688 9.601562 -1.132812 8.78125 -0.53125 C 7.96875 0.0625 7.007812 0.359375 5.90625 0.359375 C 4.789062 0.359375 3.835938 0.0859375 3.046875 -0.453125 C 2.265625 -1.003906 1.664062 -1.742188 1.25 -2.671875 C 0.832031 -3.609375 0.625 -4.660156 0.625 -5.828125 C 0.625 -6.984375 0.863281 -8.0625 1.34375 -9.0625 C 1.832031 -10.0625 2.492188 -10.859375 3.328125 -11.453125 C 4.160156 -12.046875 5.0625 -12.34375 6.03125 -12.34375 Z M 7.71875 -7.9375 C 7.71875 -9.164062 7.582031 -10.070312 7.3125 -10.65625 C 7.050781 -11.25 6.625 -11.546875 6.03125 -11.546875 C 5.40625 -11.546875 4.921875 -11.160156 4.578125 -10.390625 C 4.234375 -9.617188 4.0625 -8.726562 4.0625 -7.71875 L 4.0625 -7.28125 L 7.71875 -7.28125 Z M 7.71875 -7.9375 "/></g></g></g><g fill="#2f5597" fill-opacity="1"><g transform="translate(169.63162, 125.094526)"><g><path d="M 8.0625 -12.34375 C 8.476562 -12.34375 8.816406 -12.179688 9.078125 -11.859375 C 9.335938 -11.546875 9.46875 -11.140625 9.46875 -10.640625 C 9.46875 -10.097656 9.335938 -9.660156 9.078125 -9.328125 C 8.816406 -9.003906 8.460938 -8.84375 8.015625 -8.84375 C 7.804688 -8.84375 7.625 -8.882812 7.46875 -8.96875 C 7.3125 -9.050781 7.117188 -9.171875 6.890625 -9.328125 C 6.554688 -9.554688 6.3125 -9.671875 6.15625 -9.671875 C 5.882812 -9.671875 5.648438 -9.441406 5.453125 -8.984375 C 5.265625 -8.535156 5.171875 -8.03125 5.171875 -7.46875 L 5.171875 -2.046875 C 5.171875 -1.484375 5.28125 -1.078125 5.5 -0.828125 C 5.726562 -0.585938 6.140625 -0.46875 6.734375 -0.46875 L 6.734375 0 L 0.28125 0 L 0.28125 -0.46875 C 1.164062 -0.46875 1.609375 -0.988281 1.609375 -2.03125 L 1.609375 -10.03125 C 1.609375 -11.050781 1.164062 -11.570312 0.28125 -11.59375 L 0.28125 -12.0625 L 5.171875 -12.0625 L 5.171875 -9.90625 L 5.21875 -9.90625 C 6.039062 -11.53125 6.988281 -12.34375 8.0625 -12.34375 Z M 8.0625 -12.34375 "/></g></g></g><g fill="#2f5597" fill-opacity="1"><g transform="translate(179.64145, 125.094526)"><g><path d="M 5.046875 -16.40625 L 5.484375 -16.40625 L 5.484375 -12.0625 L 8.234375 -12.0625 L 8.234375 -10.765625 L 5.484375 -10.765625 L 5.484375 -2.4375 C 5.484375 -2.113281 5.550781 -1.8125 5.6875 -1.53125 C 5.832031 -1.257812 6.078125 -1.125 6.421875 -1.125 C 7.015625 -1.125 7.519531 -1.53125 7.9375 -2.34375 L 8.234375 -1.921875 C 7.546875 -0.398438 6.445312 0.359375 4.9375 0.359375 C 3.96875 0.359375 3.222656 0.0546875 2.703125 -0.546875 C 2.179688 -1.148438 1.921875 -1.882812 1.921875 -2.75 L 1.921875 -10.765625 L 0.4375 -10.765625 L 0.4375 -11.234375 C 1.269531 -11.816406 2.171875 -12.65625 3.140625 -13.75 C 4.117188 -14.84375 4.753906 -15.726562 5.046875 -16.40625 Z M 5.046875 -16.40625 "/></g></g></g><g fill="#2f5597" fill-opacity="1"><g transform="translate(188.299308, 125.094526)"><g><path d="M 3.671875 -18.25 C 4.222656 -18.25 4.691406 -18.050781 5.078125 -17.65625 C 5.472656 -17.269531 5.671875 -16.800781 5.671875 -16.25 C 5.671875 -15.695312 5.472656 -15.21875 5.078125 -14.8125 C 4.691406 -14.414062 4.222656 -14.21875 3.671875 -14.21875 C 3.109375 -14.21875 2.628906 -14.414062 2.234375 -14.8125 C 1.835938 -15.21875 1.640625 -15.695312 1.640625 -16.25 C 1.640625 -16.800781 1.835938 -17.269531 2.234375 -17.65625 C 2.628906 -18.050781 3.109375 -18.25 3.671875 -18.25 Z M 5.375 -1.96875 C 5.375 -0.988281 5.8125 -0.488281 6.6875 -0.46875 L 6.6875 0 L 0.3125 0 L 0.3125 -0.46875 C 0.851562 -0.46875 1.238281 -0.585938 1.46875 -0.828125 C 1.695312 -1.078125 1.8125 -1.503906 1.8125 -2.109375 L 1.8125 -9.984375 C 1.8125 -10.554688 1.695312 -10.96875 1.46875 -11.21875 C 1.25 -11.46875 0.863281 -11.59375 0.3125 -11.59375 L 0.3125 -12.0625 L 5.375 -12.0625 Z M 5.375 -1.96875 "/></g></g></g><g fill="#2f5597" fill-opacity="1"><g transform="translate(195.345193, 125.094526)"><g><path d="M 7.171875 -18.140625 C 8.078125 -18.140625 8.804688 -17.96875 9.359375 -17.625 C 9.910156 -17.28125 10.1875 -16.832031 10.1875 -16.28125 C 10.1875 -15.84375 10.019531 -15.488281 9.6875 -15.21875 C 9.363281 -14.945312 8.929688 -14.8125 8.390625 -14.8125 C 7.984375 -14.8125 7.648438 -14.90625 7.390625 -15.09375 C 7.128906 -15.289062 7 -15.535156 7 -15.828125 C 7 -15.953125 7.019531 -16.117188 7.0625 -16.328125 C 7.101562 -16.535156 7.125 -16.679688 7.125 -16.765625 C 7.125 -16.921875 7.070312 -17.054688 6.96875 -17.171875 C 6.863281 -17.285156 6.734375 -17.34375 6.578125 -17.34375 C 6.296875 -17.34375 6.09375 -17.21875 5.96875 -16.96875 C 5.851562 -16.71875 5.796875 -16.179688 5.796875 -15.359375 L 5.796875 -12.0625 L 7.78125 -12.0625 L 7.78125 -10.765625 L 5.796875 -10.765625 L 5.796875 -1.953125 C 5.796875 -1.585938 5.832031 -1.304688 5.90625 -1.109375 C 5.988281 -0.910156 6.164062 -0.757812 6.4375 -0.65625 C 6.707031 -0.550781 7.109375 -0.488281 7.640625 -0.46875 L 7.640625 0 L 0.515625 0 L 0.515625 -0.46875 C 1.210938 -0.488281 1.671875 -0.601562 1.890625 -0.8125 C 2.117188 -1.019531 2.234375 -1.441406 2.234375 -2.078125 L 2.234375 -10.765625 L 0.515625 -10.765625 L 0.515625 -12.0625 L 2.234375 -12.0625 L 2.234375 -13.96875 C 2.234375 -14.78125 2.457031 -15.5 2.90625 -16.125 C 3.363281 -16.757812 3.96875 -17.253906 4.71875 -17.609375 C 5.46875 -17.960938 6.285156 -18.140625 7.171875 -18.140625 Z M 7.171875 -18.140625 "/></g></g></g><g fill="#2f5597" fill-opacity="1"><g transform="translate(204.00305, 125.094526)"><g><path d="M 3.671875 -18.25 C 4.222656 -18.25 4.691406 -18.050781 5.078125 -17.65625 C 5.472656 -17.269531 5.671875 -16.800781 5.671875 -16.25 C 5.671875 -15.695312 5.472656 -15.21875 5.078125 -14.8125 C 4.691406 -14.414062 4.222656 -14.21875 3.671875 -14.21875 C 3.109375 -14.21875 2.628906 -14.414062 2.234375 -14.8125 C 1.835938 -15.21875 1.640625 -15.695312 1.640625 -16.25 C 1.640625 -16.800781 1.835938 -17.269531 2.234375 -17.65625 C 2.628906 -18.050781 3.109375 -18.25 3.671875 -18.25 Z M 5.375 -1.96875 C 5.375 -0.988281 5.8125 -0.488281 6.6875 -0.46875 L 6.6875 0 L 0.3125 0 L 0.3125 -0.46875 C 0.851562 -0.46875 1.238281 -0.585938 1.46875 -0.828125 C 1.695312 -1.078125 1.8125 -1.503906 1.8125 -2.109375 L 1.8125 -9.984375 C 1.8125 -10.554688 1.695312 -10.96875 1.46875 -11.21875 C 1.25 -11.46875 0.863281 -11.59375 0.3125 -11.59375 L 0.3125 -12.0625 L 5.375 -12.0625 Z M 5.375 -1.96875 "/></g></g></g><g fill="#2f5597" fill-opacity="1"><g transform="translate(211.048935, 125.094526)"><g><path d="M 6.03125 -12.34375 C 7.09375 -12.34375 7.984375 -12.070312 8.703125 -11.53125 C 9.421875 -11 9.960938 -10.3125 10.328125 -9.46875 C 10.691406 -8.632812 10.878906 -7.765625 10.890625 -6.859375 L 10.890625 -6.421875 L 4.0625 -6.421875 C 4.164062 -4.984375 4.539062 -3.820312 5.1875 -2.9375 C 5.832031 -2.050781 6.644531 -1.609375 7.625 -1.609375 C 8.238281 -1.609375 8.765625 -1.773438 9.203125 -2.109375 C 9.648438 -2.453125 10.054688 -2.945312 10.421875 -3.59375 L 10.890625 -3.296875 C 10.304688 -2.054688 9.601562 -1.132812 8.78125 -0.53125 C 7.96875 0.0625 7.007812 0.359375 5.90625 0.359375 C 4.789062 0.359375 3.835938 0.0859375 3.046875 -0.453125 C 2.265625 -1.003906 1.664062 -1.742188 1.25 -2.671875 C 0.832031 -3.609375 0.625 -4.660156 0.625 -5.828125 C 0.625 -6.984375 0.863281 -8.0625 1.34375 -9.0625 C 1.832031 -10.0625 2.492188 -10.859375 3.328125 -11.453125 C 4.160156 -12.046875 5.0625 -12.34375 6.03125 -12.34375 Z M 7.71875 -7.9375 C 7.71875 -9.164062 7.582031 -10.070312 7.3125 -10.65625 C 7.050781 -11.25 6.625 -11.546875 6.03125 -11.546875 C 5.40625 -11.546875 4.921875 -11.160156 4.578125 -10.390625 C 4.234375 -9.617188 4.0625 -8.726562 4.0625 -7.71875 L 4.0625 -7.28125 L 7.71875 -7.28125 Z M 7.71875 -7.9375 "/></g></g></g><g fill="#2f5597" fill-opacity="1"><g transform="translate(222.436745, 125.094526)"><g><path d="M 11.1875 -2.671875 C 11.1875 -2.117188 11.285156 -1.726562 11.484375 -1.5 C 11.691406 -1.28125 12.082031 -1.171875 12.65625 -1.171875 L 12.65625 -0.703125 L 7.625 0.34375 L 7.625 -1.40625 L 7.5625 -1.40625 C 7.289062 -0.832031 6.914062 -0.394531 6.4375 -0.09375 C 5.957031 0.207031 5.441406 0.359375 4.890625 0.359375 C 4.054688 0.359375 3.3125 0.0820312 2.65625 -0.46875 C 2.007812 -1.019531 1.503906 -1.789062 1.140625 -2.78125 C 0.773438 -3.769531 0.59375 -4.890625 0.59375 -6.140625 C 0.59375 -7.441406 0.8125 -8.5625 1.25 -9.5 C 1.695312 -10.445312 2.265625 -11.15625 2.953125 -11.625 C 3.648438 -12.101562 4.375 -12.34375 5.125 -12.34375 C 5.601562 -12.34375 6.035156 -12.242188 6.421875 -12.046875 C 6.816406 -11.847656 7.21875 -11.523438 7.625 -11.078125 L 7.625 -15.828125 C 7.625 -16.453125 7.488281 -16.863281 7.21875 -17.0625 C 6.945312 -17.269531 6.488281 -17.378906 5.84375 -17.390625 L 5.84375 -17.859375 L 11.1875 -17.859375 Z M 4.34375 -6.546875 C 4.34375 -4.796875 4.472656 -3.46875 4.734375 -2.5625 C 4.992188 -1.664062 5.425781 -1.21875 6.03125 -1.21875 C 6.601562 -1.21875 7.132812 -1.726562 7.625 -2.75 L 7.625 -9.5625 C 7.320312 -10.15625 7.023438 -10.566406 6.734375 -10.796875 C 6.441406 -11.035156 6.117188 -11.15625 5.765625 -11.15625 C 5.210938 -11.15625 4.835938 -10.757812 4.640625 -9.96875 C 4.441406 -9.175781 4.34375 -8.035156 4.34375 -6.546875 Z M 4.34375 -6.546875 "/></g></g></g><g fill="#2f5597" fill-opacity="1"><g transform="translate(109.02199, 237.515449)"><g/></g></g><g fill="#2f5597" fill-opacity="1"><g transform="translate(114.318865, 237.515449)"><g/></g></g><g fill="#2f5597" fill-opacity="1"><g transform="translate(119.615739, 237.515449)"><g><path d="M 5.671875 -14.875 C 6.335938 -14.875 6.910156 -14.804688 7.390625 -14.671875 C 7.867188 -14.535156 8.398438 -14.347656 8.984375 -14.109375 C 9.179688 -14.023438 9.367188 -13.953125 9.546875 -13.890625 C 9.734375 -13.828125 9.890625 -13.796875 10.015625 -13.796875 C 10.242188 -13.796875 10.425781 -13.882812 10.5625 -14.0625 C 10.707031 -14.25 10.78125 -14.519531 10.78125 -14.875 L 11.1875 -14.875 L 11.1875 -10.171875 L 10.78125 -10.171875 C 10.644531 -10.921875 10.34375 -11.59375 9.875 -12.1875 C 9.40625 -12.78125 8.820312 -13.238281 8.125 -13.5625 C 7.4375 -13.882812 6.695312 -14.046875 5.90625 -14.046875 C 5.050781 -14.046875 4.347656 -13.835938 3.796875 -13.421875 C 3.242188 -13.003906 2.96875 -12.484375 2.96875 -11.859375 C 2.96875 -11.398438 3.128906 -11.003906 3.453125 -10.671875 C 3.773438 -10.347656 4.179688 -10.082031 4.671875 -9.875 C 5.160156 -9.664062 5.832031 -9.414062 6.6875 -9.125 C 7.550781 -8.84375 8.269531 -8.582031 8.84375 -8.34375 C 9.425781 -8.101562 9.9375 -7.804688 10.375 -7.453125 C 10.875 -7.046875 11.28125 -6.5625 11.59375 -6 C 11.914062 -5.4375 12.078125 -4.800781 12.078125 -4.09375 C 12.078125 -3.226562 11.84375 -2.460938 11.375 -1.796875 C 10.90625 -1.140625 10.25 -0.625 9.40625 -0.25 C 8.570312 0.113281 7.601562 0.296875 6.5 0.296875 C 5.8125 0.296875 5.226562 0.234375 4.75 0.109375 C 4.28125 -0.00390625 3.800781 -0.160156 3.3125 -0.359375 C 2.84375 -0.554688 2.492188 -0.65625 2.265625 -0.65625 C 2.015625 -0.65625 1.796875 -0.578125 1.609375 -0.421875 C 1.421875 -0.265625 1.257812 -0.0234375 1.125 0.296875 L 0.71875 0.296875 L 0.71875 -5.046875 L 1.125 -5.046875 C 1.375 -3.628906 1.972656 -2.503906 2.921875 -1.671875 C 3.878906 -0.847656 5.039062 -0.4375 6.40625 -0.4375 C 7.414062 -0.4375 8.21875 -0.644531 8.8125 -1.0625 C 9.40625 -1.476562 9.703125 -2.039062 9.703125 -2.75 C 9.703125 -3.300781 9.53125 -3.765625 9.1875 -4.140625 C 8.84375 -4.523438 8.410156 -4.835938 7.890625 -5.078125 C 7.378906 -5.316406 6.6875 -5.585938 5.8125 -5.890625 C 4.71875 -6.273438 3.832031 -6.628906 3.15625 -6.953125 C 2.488281 -7.285156 1.914062 -7.753906 1.4375 -8.359375 C 0.96875 -8.960938 0.734375 -9.722656 0.734375 -10.640625 C 0.734375 -11.441406 0.945312 -12.160156 1.375 -12.796875 C 1.800781 -13.441406 2.390625 -13.945312 3.140625 -14.3125 C 3.890625 -14.6875 4.734375 -14.875 5.671875 -14.875 Z M 5.671875 -14.875 "/></g></g></g><g fill="#2f5597" fill-opacity="1"><g transform="translate(132.412979, 237.515449)"><g><path d="M 7.015625 -10.0625 C 7.660156 -10.0625 8.195312 -9.898438 8.625 -9.578125 C 9.0625 -9.265625 9.34375 -8.828125 9.46875 -8.265625 C 9.863281 -8.835938 10.328125 -9.28125 10.859375 -9.59375 C 11.398438 -9.90625 11.960938 -10.0625 12.546875 -10.0625 C 13.378906 -10.0625 14.015625 -9.800781 14.453125 -9.28125 C 14.890625 -8.757812 15.109375 -8.125 15.109375 -7.375 L 15.109375 -1.5 C 15.109375 -1.175781 15.179688 -0.910156 15.328125 -0.703125 C 15.472656 -0.503906 15.707031 -0.394531 16.03125 -0.375 L 16.03125 0 L 11.296875 0 L 11.296875 -0.375 C 11.660156 -0.394531 11.898438 -0.492188 12.015625 -0.671875 C 12.140625 -0.847656 12.203125 -1.160156 12.203125 -1.609375 L 12.203125 -7.609375 C 12.203125 -7.835938 12.140625 -8.070312 12.015625 -8.3125 C 11.890625 -8.5625 11.671875 -8.6875 11.359375 -8.6875 C 11.054688 -8.6875 10.78125 -8.585938 10.53125 -8.390625 C 10.28125 -8.203125 9.984375 -7.867188 9.640625 -7.390625 L 9.640625 -1.65625 C 9.640625 -0.894531 9.941406 -0.46875 10.546875 -0.375 L 10.546875 0 L 5.84375 0 L 5.84375 -0.375 C 6.4375 -0.445312 6.734375 -0.894531 6.734375 -1.71875 L 6.734375 -7.5 C 6.734375 -7.820312 6.660156 -8.097656 6.515625 -8.328125 C 6.378906 -8.554688 6.148438 -8.671875 5.828125 -8.671875 C 5.273438 -8.671875 4.722656 -8.242188 4.171875 -7.390625 L 4.171875 -1.671875 C 4.171875 -0.898438 4.484375 -0.46875 5.109375 -0.375 L 5.109375 0 L 0.296875 0 L 0.296875 -0.375 C 0.640625 -0.414062 0.882812 -0.53125 1.03125 -0.71875 C 1.1875 -0.914062 1.265625 -1.253906 1.265625 -1.734375 L 1.265625 -8.03125 C 1.265625 -8.539062 1.179688 -8.894531 1.015625 -9.09375 C 0.847656 -9.300781 0.609375 -9.421875 0.296875 -9.453125 L 0.296875 -9.828125 L 4.171875 -9.828125 L 4.171875 -8.453125 L 4.21875 -8.453125 C 4.65625 -9.015625 5.097656 -9.421875 5.546875 -9.671875 C 6.003906 -9.929688 6.492188 -10.0625 7.015625 -10.0625 Z M 7.015625 -10.0625 "/></g></g></g><g fill="#2f5597" fill-opacity="1"><g transform="translate(148.748527, 237.515449)"><g><path d="M 5.375 -10.0625 C 6.59375 -10.0625 7.484375 -9.8125 8.046875 -9.3125 C 8.617188 -8.820312 8.90625 -8.195312 8.90625 -7.4375 L 8.90625 -2.203125 C 8.90625 -1.421875 9.097656 -1.03125 9.484375 -1.03125 C 9.597656 -1.03125 9.691406 -1.0625 9.765625 -1.125 C 9.847656 -1.195312 9.941406 -1.3125 10.046875 -1.46875 L 10.234375 -1.265625 C 10.035156 -0.785156 9.722656 -0.40625 9.296875 -0.125 C 8.878906 0.15625 8.40625 0.296875 7.875 0.296875 C 7.34375 0.296875 6.910156 0.160156 6.578125 -0.109375 C 6.242188 -0.378906 6.050781 -0.773438 6 -1.296875 C 5.914062 -1.234375 5.785156 -1.132812 5.609375 -1 C 5.117188 -0.582031 4.660156 -0.257812 4.234375 -0.03125 C 3.816406 0.1875 3.332031 0.296875 2.78125 0.296875 C 2.226562 0.296875 1.765625 0.0976562 1.390625 -0.296875 C 1.015625 -0.691406 0.828125 -1.171875 0.828125 -1.734375 C 0.828125 -2.472656 1.144531 -3.128906 1.78125 -3.703125 C 2.425781 -4.285156 3.132812 -4.753906 3.90625 -5.109375 L 6 -6.125 L 6 -8.046875 C 6 -8.398438 5.890625 -8.703125 5.671875 -8.953125 C 5.453125 -9.203125 5.109375 -9.328125 4.640625 -9.328125 C 4.234375 -9.328125 3.890625 -9.238281 3.609375 -9.0625 C 3.335938 -8.894531 3.203125 -8.691406 3.203125 -8.453125 C 3.203125 -8.367188 3.222656 -8.285156 3.265625 -8.203125 C 3.316406 -8.117188 3.378906 -8.035156 3.453125 -7.953125 C 3.578125 -7.796875 3.675781 -7.644531 3.75 -7.5 C 3.820312 -7.351562 3.859375 -7.191406 3.859375 -7.015625 C 3.859375 -6.671875 3.726562 -6.394531 3.46875 -6.1875 C 3.21875 -5.976562 2.890625 -5.875 2.484375 -5.875 C 2.023438 -5.875 1.65625 -5.992188 1.375 -6.234375 C 1.09375 -6.472656 0.953125 -6.789062 0.953125 -7.1875 C 0.953125 -7.695312 1.148438 -8.171875 1.546875 -8.609375 C 1.953125 -9.054688 2.492188 -9.410156 3.171875 -9.671875 C 3.847656 -9.929688 4.582031 -10.0625 5.375 -10.0625 Z M 3.703125 -2.65625 C 3.703125 -2.3125 3.796875 -2.03125 3.984375 -1.8125 C 4.179688 -1.601562 4.425781 -1.5 4.71875 -1.5 C 4.957031 -1.5 5.171875 -1.539062 5.359375 -1.625 C 5.554688 -1.71875 5.769531 -1.851562 6 -2.03125 L 6 -5.375 C 4.46875 -4.601562 3.703125 -3.695312 3.703125 -2.65625 Z M 3.703125 -2.65625 "/></g></g></g><g fill="#2f5597" fill-opacity="1"><g transform="translate(159.342264, 237.515449)"><g><path d="M 4.453125 -1.421875 C 4.453125 -1.066406 4.535156 -0.800781 4.703125 -0.625 C 4.867188 -0.457031 5.140625 -0.375 5.515625 -0.375 L 5.515625 0 L 0.25 0 L 0.25 -0.375 C 0.6875 -0.375 1.007812 -0.46875 1.21875 -0.65625 C 1.4375 -0.851562 1.546875 -1.148438 1.546875 -1.546875 L 1.546875 -12.875 C 1.546875 -13.363281 1.445312 -13.695312 1.25 -13.875 C 1.0625 -14.0625 0.726562 -14.160156 0.25 -14.171875 L 0.25 -14.5625 L 4.453125 -14.5625 Z M 4.453125 -1.421875 "/></g></g></g><g fill="#2f5597" fill-opacity="1"><g transform="translate(165.084074, 237.515449)"><g><path d="M 4.453125 -1.421875 C 4.453125 -1.066406 4.535156 -0.800781 4.703125 -0.625 C 4.867188 -0.457031 5.140625 -0.375 5.515625 -0.375 L 5.515625 0 L 0.25 0 L 0.25 -0.375 C 0.6875 -0.375 1.007812 -0.46875 1.21875 -0.65625 C 1.4375 -0.851562 1.546875 -1.148438 1.546875 -1.546875 L 1.546875 -12.875 C 1.546875 -13.363281 1.445312 -13.695312 1.25 -13.875 C 1.0625 -14.0625 0.726562 -14.160156 0.25 -14.171875 L 0.25 -14.5625 L 4.453125 -14.5625 Z M 4.453125 -1.421875 "/></g></g></g><g fill="#2f5597" fill-opacity="1"><g transform="translate(170.825883, 237.515449)"><g/></g><g transform="translate(176.122758, 237.515449)"><g><path d="M 13.015625 -11 C 13.015625 -10.144531 12.71875 -9.425781 12.125 -8.84375 C 11.53125 -8.269531 10.679688 -7.878906 9.578125 -7.671875 L 9.578125 -7.625 C 10.816406 -7.445312 11.800781 -7.023438 12.53125 -6.359375 C 13.257812 -5.691406 13.625 -4.878906 13.625 -3.921875 C 13.625 -3.097656 13.378906 -2.390625 12.890625 -1.796875 C 12.398438 -1.203125 11.75 -0.753906 10.9375 -0.453125 C 10.125 -0.148438 9.25 0 8.3125 0 L 0.3125 0 L 0.3125 -0.375 C 0.84375 -0.375 1.238281 -0.410156 1.5 -0.484375 C 1.769531 -0.566406 1.972656 -0.734375 2.109375 -0.984375 C 2.242188 -1.242188 2.3125 -1.648438 2.3125 -2.203125 L 2.3125 -12.328125 C 2.3125 -12.835938 2.25 -13.222656 2.125 -13.484375 C 2.007812 -13.742188 1.820312 -13.921875 1.5625 -14.015625 C 1.300781 -14.109375 0.925781 -14.160156 0.4375 -14.171875 L 0.4375 -14.5625 L 8.015625 -14.5625 C 8.773438 -14.5625 9.535156 -14.445312 10.296875 -14.21875 C 11.054688 -13.988281 11.695312 -13.609375 12.21875 -13.078125 C 12.75 -12.546875 13.015625 -11.851562 13.015625 -11 Z M 6.265625 -7.953125 C 7.429688 -7.953125 8.253906 -8.242188 8.734375 -8.828125 C 9.210938 -9.410156 9.453125 -10.09375 9.453125 -10.875 C 9.453125 -11.59375 9.238281 -12.253906 8.8125 -12.859375 C 8.382812 -13.460938 7.675781 -13.765625 6.6875 -13.765625 L 5.703125 -13.765625 L 5.703125 -7.953125 Z M 6.921875 -0.734375 C 7.796875 -0.734375 8.503906 -1.007812 9.046875 -1.5625 C 9.585938 -2.113281 9.859375 -2.847656 9.859375 -3.765625 C 9.859375 -4.734375 9.5625 -5.539062 8.96875 -6.1875 C 8.375 -6.832031 7.441406 -7.15625 6.171875 -7.15625 L 5.703125 -7.15625 L 5.703125 -2.15625 C 5.703125 -1.59375 5.800781 -1.210938 6 -1.015625 C 6.195312 -0.828125 6.503906 -0.734375 6.921875 -0.734375 Z M 6.921875 -0.734375 "/></g></g></g><g fill="#2f5597" fill-opacity="1"><g transform="translate(190.254814, 237.515449)"><g><path d="M 4.03125 -2.90625 C 4.03125 -2.28125 4.101562 -1.828125 4.25 -1.546875 C 4.394531 -1.273438 4.628906 -1.140625 4.953125 -1.140625 C 5.253906 -1.140625 5.550781 -1.253906 5.84375 -1.484375 C 6.144531 -1.710938 6.40625 -2.023438 6.625 -2.421875 L 6.625 -8.265625 C 6.625 -8.671875 6.523438 -8.957031 6.328125 -9.125 C 6.128906 -9.300781 5.820312 -9.410156 5.40625 -9.453125 L 5.40625 -9.828125 L 9.53125 -9.828125 L 9.53125 -1.171875 C 9.53125 -0.703125 9.769531 -0.4375 10.25 -0.375 L 10.25 0 L 6.625 0 L 6.625 -1.265625 C 6.226562 -0.804688 5.789062 -0.429688 5.3125 -0.140625 C 4.832031 0.148438 4.335938 0.296875 3.828125 0.296875 C 2.992188 0.296875 2.332031 0.0234375 1.84375 -0.515625 C 1.363281 -1.054688 1.125 -1.78125 1.125 -2.6875 L 1.125 -8.109375 C 1.125 -8.546875 1.066406 -8.863281 0.953125 -9.0625 C 0.835938 -9.257812 0.625 -9.390625 0.3125 -9.453125 L 0.3125 -9.828125 L 4.03125 -9.828125 Z M 4.03125 -2.90625 "/></g></g></g><g fill="#2f5597" fill-opacity="1"><g transform="translate(200.848552, 237.515449)"><g><path d="M 3.515625 -10.0625 C 3.867188 -10.0625 4.175781 -10.023438 4.4375 -9.953125 C 4.695312 -9.890625 5.007812 -9.785156 5.375 -9.640625 C 5.664062 -9.515625 5.863281 -9.453125 5.96875 -9.453125 C 6.144531 -9.453125 6.289062 -9.5 6.40625 -9.59375 C 6.53125 -9.695312 6.660156 -9.851562 6.796875 -10.0625 L 7.03125 -10.0625 L 7.203125 -6.734375 L 6.953125 -6.734375 C 6.640625 -7.546875 6.1875 -8.179688 5.59375 -8.640625 C 5.007812 -9.097656 4.375 -9.328125 3.6875 -9.328125 C 3.28125 -9.328125 2.957031 -9.226562 2.71875 -9.03125 C 2.488281 -8.84375 2.375 -8.601562 2.375 -8.3125 C 2.375 -7.9375 2.546875 -7.617188 2.890625 -7.359375 C 3.234375 -7.109375 3.757812 -6.820312 4.46875 -6.5 C 5.175781 -6.175781 5.75 -5.875 6.1875 -5.59375 C 6.625 -5.3125 7 -4.945312 7.3125 -4.5 C 7.632812 -4.050781 7.796875 -3.507812 7.796875 -2.875 C 7.796875 -2.28125 7.644531 -1.738281 7.34375 -1.25 C 7.050781 -0.769531 6.644531 -0.390625 6.125 -0.109375 C 5.601562 0.160156 5.023438 0.296875 4.390625 0.296875 C 3.992188 0.296875 3.632812 0.253906 3.3125 0.171875 C 3 0.0859375 2.671875 -0.0234375 2.328125 -0.171875 C 2.285156 -0.179688 2.179688 -0.21875 2.015625 -0.28125 C 1.847656 -0.34375 1.707031 -0.375 1.59375 -0.375 C 1.332031 -0.375 1.113281 -0.15625 0.9375 0.28125 L 0.734375 0.28125 L 0.515625 -3.21875 L 0.734375 -3.21875 C 1.109375 -2.332031 1.59375 -1.644531 2.1875 -1.15625 C 2.78125 -0.675781 3.425781 -0.4375 4.125 -0.4375 C 4.5625 -0.4375 4.925781 -0.554688 5.21875 -0.796875 C 5.507812 -1.046875 5.65625 -1.34375 5.65625 -1.6875 C 5.65625 -2.039062 5.546875 -2.320312 5.328125 -2.53125 C 5.109375 -2.738281 4.765625 -2.96875 4.296875 -3.21875 C 4.097656 -3.332031 3.914062 -3.425781 3.75 -3.5 C 3.582031 -3.582031 3.441406 -3.648438 3.328125 -3.703125 C 2.679688 -4.015625 2.164062 -4.296875 1.78125 -4.546875 C 1.394531 -4.796875 1.0625 -5.125 0.78125 -5.53125 C 0.507812 -5.9375 0.375 -6.445312 0.375 -7.0625 C 0.375 -7.914062 0.664062 -8.628906 1.25 -9.203125 C 1.84375 -9.773438 2.597656 -10.0625 3.515625 -10.0625 Z M 3.515625 -10.0625 "/></g></g></g><g fill="#2f5597" fill-opacity="1"><g transform="translate(209.005729, 237.515449)"><g><path d="M 2.984375 -14.875 C 3.441406 -14.875 3.828125 -14.710938 4.140625 -14.390625 C 4.460938 -14.078125 4.625 -13.695312 4.625 -13.25 C 4.625 -12.789062 4.460938 -12.398438 4.140625 -12.078125 C 3.828125 -11.753906 3.441406 -11.59375 2.984375 -11.59375 C 2.535156 -11.59375 2.144531 -11.753906 1.8125 -12.078125 C 1.488281 -12.398438 1.328125 -12.789062 1.328125 -13.25 C 1.328125 -13.695312 1.488281 -14.078125 1.8125 -14.390625 C 2.144531 -14.710938 2.535156 -14.875 2.984375 -14.875 Z M 4.390625 -1.609375 C 4.390625 -0.804688 4.738281 -0.394531 5.4375 -0.375 L 5.4375 0 L 0.25 0 L 0.25 -0.375 C 0.6875 -0.375 1 -0.472656 1.1875 -0.671875 C 1.382812 -0.867188 1.484375 -1.21875 1.484375 -1.71875 L 1.484375 -8.140625 C 1.484375 -8.597656 1.390625 -8.929688 1.203125 -9.140625 C 1.023438 -9.347656 0.707031 -9.453125 0.25 -9.453125 L 0.25 -9.828125 L 4.390625 -9.828125 Z M 4.390625 -1.609375 "/></g></g></g><g fill="#2f5597" fill-opacity="1"><g transform="translate(214.747538, 237.515449)"><g><path d="M 6.90625 -10.0625 C 7.75 -10.0625 8.394531 -9.773438 8.84375 -9.203125 C 9.289062 -8.628906 9.515625 -7.925781 9.515625 -7.09375 L 9.515625 -2.03125 C 9.515625 -1.625 9.53125 -1.320312 9.5625 -1.125 C 9.601562 -0.9375 9.664062 -0.789062 9.75 -0.6875 C 9.84375 -0.59375 10.003906 -0.488281 10.234375 -0.375 L 10.234375 0 L 5.71875 0 L 5.71875 -0.375 C 6.3125 -0.445312 6.609375 -0.898438 6.609375 -1.734375 L 6.609375 -7.25 C 6.609375 -8.21875 6.296875 -8.703125 5.671875 -8.703125 C 5.128906 -8.703125 4.59375 -8.300781 4.0625 -7.5 L 4.0625 -1.609375 C 4.0625 -0.898438 4.359375 -0.488281 4.953125 -0.375 L 4.953125 0 L 0.359375 0 L 0.359375 -0.375 C 0.609375 -0.4375 0.804688 -0.566406 0.953125 -0.765625 C 1.097656 -0.960938 1.171875 -1.28125 1.171875 -1.71875 L 1.171875 -8.171875 C 1.171875 -8.460938 1.109375 -8.726562 0.984375 -8.96875 C 0.867188 -9.21875 0.660156 -9.378906 0.359375 -9.453125 L 0.359375 -9.828125 L 4.0625 -9.828125 L 4.0625 -8.515625 C 4.519531 -9.035156 4.972656 -9.421875 5.421875 -9.671875 C 5.878906 -9.929688 6.375 -10.0625 6.90625 -10.0625 Z M 6.90625 -10.0625 "/></g></g></g><g fill="#2f5597" fill-opacity="1"><g transform="translate(225.341276, 237.515449)"><g><path d="M 4.921875 -10.0625 C 5.773438 -10.0625 6.492188 -9.84375 7.078125 -9.40625 C 7.671875 -8.96875 8.113281 -8.40625 8.40625 -7.71875 C 8.707031 -7.03125 8.863281 -6.320312 8.875 -5.59375 L 8.875 -5.234375 L 3.3125 -5.234375 C 3.394531 -4.054688 3.695312 -3.109375 4.21875 -2.390625 C 4.75 -1.671875 5.410156 -1.3125 6.203125 -1.3125 C 6.710938 -1.3125 7.144531 -1.445312 7.5 -1.71875 C 7.863281 -2 8.195312 -2.398438 8.5 -2.921875 L 8.875 -2.6875 C 8.394531 -1.675781 7.820312 -0.925781 7.15625 -0.4375 C 6.5 0.0507812 5.71875 0.296875 4.8125 0.296875 C 3.90625 0.296875 3.128906 0.078125 2.484375 -0.359375 C 1.847656 -0.804688 1.359375 -1.410156 1.015625 -2.171875 C 0.679688 -2.941406 0.515625 -3.800781 0.515625 -4.75 C 0.515625 -5.695312 0.707031 -6.578125 1.09375 -7.390625 C 1.488281 -8.203125 2.023438 -8.847656 2.703125 -9.328125 C 3.390625 -9.816406 4.128906 -10.0625 4.921875 -10.0625 Z M 6.296875 -6.46875 C 6.296875 -7.46875 6.1875 -8.207031 5.96875 -8.6875 C 5.75 -9.164062 5.398438 -9.40625 4.921875 -9.40625 C 4.410156 -9.40625 4.015625 -9.085938 3.734375 -8.453125 C 3.453125 -7.828125 3.3125 -7.109375 3.3125 -6.296875 L 3.3125 -5.9375 L 6.296875 -5.9375 Z M 6.296875 -6.46875 "/></g></g></g><g fill="#2f5597" fill-opacity="1"><g transform="translate(234.621392, 237.515449)"><g><path d="M 3.515625 -10.0625 C 3.867188 -10.0625 4.175781 -10.023438 4.4375 -9.953125 C 4.695312 -9.890625 5.007812 -9.785156 5.375 -9.640625 C 5.664062 -9.515625 5.863281 -9.453125 5.96875 -9.453125 C 6.144531 -9.453125 6.289062 -9.5 6.40625 -9.59375 C 6.53125 -9.695312 6.660156 -9.851562 6.796875 -10.0625 L 7.03125 -10.0625 L 7.203125 -6.734375 L 6.953125 -6.734375 C 6.640625 -7.546875 6.1875 -8.179688 5.59375 -8.640625 C 5.007812 -9.097656 4.375 -9.328125 3.6875 -9.328125 C 3.28125 -9.328125 2.957031 -9.226562 2.71875 -9.03125 C 2.488281 -8.84375 2.375 -8.601562 2.375 -8.3125 C 2.375 -7.9375 2.546875 -7.617188 2.890625 -7.359375 C 3.234375 -7.109375 3.757812 -6.820312 4.46875 -6.5 C 5.175781 -6.175781 5.75 -5.875 6.1875 -5.59375 C 6.625 -5.3125 7 -4.945312 7.3125 -4.5 C 7.632812 -4.050781 7.796875 -3.507812 7.796875 -2.875 C 7.796875 -2.28125 7.644531 -1.738281 7.34375 -1.25 C 7.050781 -0.769531 6.644531 -0.390625 6.125 -0.109375 C 5.601562 0.160156 5.023438 0.296875 4.390625 0.296875 C 3.992188 0.296875 3.632812 0.253906 3.3125 0.171875 C 3 0.0859375 2.671875 -0.0234375 2.328125 -0.171875 C 2.285156 -0.179688 2.179688 -0.21875 2.015625 -0.28125 C 1.847656 -0.34375 1.707031 -0.375 1.59375 -0.375 C 1.332031 -0.375 1.113281 -0.15625 0.9375 0.28125 L 0.734375 0.28125 L 0.515625 -3.21875 L 0.734375 -3.21875 C 1.109375 -2.332031 1.59375 -1.644531 2.1875 -1.15625 C 2.78125 -0.675781 3.425781 -0.4375 4.125 -0.4375 C 4.5625 -0.4375 4.925781 -0.554688 5.21875 -0.796875 C 5.507812 -1.046875 5.65625 -1.34375 5.65625 -1.6875 C 5.65625 -2.039062 5.546875 -2.320312 5.328125 -2.53125 C 5.109375 -2.738281 4.765625 -2.96875 4.296875 -3.21875 C 4.097656 -3.332031 3.914062 -3.425781 3.75 -3.5 C 3.582031 -3.582031 3.441406 -3.648438 3.328125 -3.703125 C 2.679688 -4.015625 2.164062 -4.296875 1.78125 -4.546875 C 1.394531 -4.796875 1.0625 -5.125 0.78125 -5.53125 C 0.507812 -5.9375 0.375 -6.445312 0.375 -7.0625 C 0.375 -7.914062 0.664062 -8.628906 1.25 -9.203125 C 1.84375 -9.773438 2.597656 -10.0625 3.515625 -10.0625 Z M 3.515625 -10.0625 "/></g></g></g><g fill="#2f5597" fill-opacity="1"><g transform="translate(242.778569, 237.515449)"><g><path d="M 3.515625 -10.0625 C 3.867188 -10.0625 4.175781 -10.023438 4.4375 -9.953125 C 4.695312 -9.890625 5.007812 -9.785156 5.375 -9.640625 C 5.664062 -9.515625 5.863281 -9.453125 5.96875 -9.453125 C 6.144531 -9.453125 6.289062 -9.5 6.40625 -9.59375 C 6.53125 -9.695312 6.660156 -9.851562 6.796875 -10.0625 L 7.03125 -10.0625 L 7.203125 -6.734375 L 6.953125 -6.734375 C 6.640625 -7.546875 6.1875 -8.179688 5.59375 -8.640625 C 5.007812 -9.097656 4.375 -9.328125 3.6875 -9.328125 C 3.28125 -9.328125 2.957031 -9.226562 2.71875 -9.03125 C 2.488281 -8.84375 2.375 -8.601562 2.375 -8.3125 C 2.375 -7.9375 2.546875 -7.617188 2.890625 -7.359375 C 3.234375 -7.109375 3.757812 -6.820312 4.46875 -6.5 C 5.175781 -6.175781 5.75 -5.875 6.1875 -5.59375 C 6.625 -5.3125 7 -4.945312 7.3125 -4.5 C 7.632812 -4.050781 7.796875 -3.507812 7.796875 -2.875 C 7.796875 -2.28125 7.644531 -1.738281 7.34375 -1.25 C 7.050781 -0.769531 6.644531 -0.390625 6.125 -0.109375 C 5.601562 0.160156 5.023438 0.296875 4.390625 0.296875 C 3.992188 0.296875 3.632812 0.253906 3.3125 0.171875 C 3 0.0859375 2.671875 -0.0234375 2.328125 -0.171875 C 2.285156 -0.179688 2.179688 -0.21875 2.015625 -0.28125 C 1.847656 -0.34375 1.707031 -0.375 1.59375 -0.375 C 1.332031 -0.375 1.113281 -0.15625 0.9375 0.28125 L 0.734375 0.28125 L 0.515625 -3.21875 L 0.734375 -3.21875 C 1.109375 -2.332031 1.59375 -1.644531 2.1875 -1.15625 C 2.78125 -0.675781 3.425781 -0.4375 4.125 -0.4375 C 4.5625 -0.4375 4.925781 -0.554688 5.21875 -0.796875 C 5.507812 -1.046875 5.65625 -1.34375 5.65625 -1.6875 C 5.65625 -2.039062 5.546875 -2.320312 5.328125 -2.53125 C 5.109375 -2.738281 4.765625 -2.96875 4.296875 -3.21875 C 4.097656 -3.332031 3.914062 -3.425781 3.75 -3.5 C 3.582031 -3.582031 3.441406 -3.648438 3.328125 -3.703125 C 2.679688 -4.015625 2.164062 -4.296875 1.78125 -4.546875 C 1.394531 -4.796875 1.0625 -5.125 0.78125 -5.53125 C 0.507812 -5.9375 0.375 -6.445312 0.375 -7.0625 C 0.375 -7.914062 0.664062 -8.628906 1.25 -9.203125 C 1.84375 -9.773438 2.597656 -10.0625 3.515625 -10.0625 Z M 3.515625 -10.0625 "/></g></g></g><g fill="#2f5597" fill-opacity="1"><g transform="translate(134.393082, 266.765447)"><g><path d="M 12.65625 -10.40625 L 12.265625 -10.40625 C 12.066406 -11.507812 11.671875 -12.34375 11.078125 -12.90625 C 10.484375 -13.476562 9.707031 -13.765625 8.75 -13.765625 L 5.890625 -13.765625 L 5.890625 -7.8125 L 6.328125 -7.8125 C 6.867188 -7.8125 7.3125 -7.894531 7.65625 -8.0625 C 8 -8.238281 8.289062 -8.566406 8.53125 -9.046875 C 8.78125 -9.535156 8.957031 -10.234375 9.0625 -11.140625 L 9.453125 -11.140625 L 9.453125 -3.75 L 9.0625 -3.75 C 8.90625 -5.03125 8.601562 -5.894531 8.15625 -6.34375 C 7.71875 -6.800781 7.140625 -7.03125 6.421875 -7.03125 L 5.890625 -7.03125 L 5.890625 -2.359375 C 5.890625 -1.742188 5.976562 -1.328125 6.15625 -1.109375 C 6.34375 -0.890625 6.695312 -0.78125 7.21875 -0.78125 L 8.75 -0.78125 C 9.988281 -0.78125 10.960938 -1.113281 11.671875 -1.78125 C 12.378906 -2.457031 12.914062 -3.359375 13.28125 -4.484375 L 13.671875 -4.484375 L 13.015625 0 L 0.375 0 L 0.375 -0.375 L 0.875 -0.375 C 1.363281 -0.375 1.722656 -0.445312 1.953125 -0.59375 C 2.191406 -0.75 2.34375 -0.945312 2.40625 -1.1875 C 2.46875 -1.425781 2.5 -1.75 2.5 -2.15625 L 2.5 -12.4375 C 2.5 -13.125 2.335938 -13.582031 2.015625 -13.8125 C 1.703125 -14.039062 1.15625 -14.160156 0.375 -14.171875 L 0.375 -14.5625 L 12.65625 -14.5625 Z M 12.65625 -10.40625 "/></g></g></g><g fill="#2f5597" fill-opacity="1"><g transform="translate(148.525138, 266.765447)"><g><path d="M 6.90625 -10.0625 C 7.75 -10.0625 8.394531 -9.773438 8.84375 -9.203125 C 9.289062 -8.628906 9.515625 -7.925781 9.515625 -7.09375 L 9.515625 -2.03125 C 9.515625 -1.625 9.53125 -1.320312 9.5625 -1.125 C 9.601562 -0.9375 9.664062 -0.789062 9.75 -0.6875 C 9.84375 -0.59375 10.003906 -0.488281 10.234375 -0.375 L 10.234375 0 L 5.71875 0 L 5.71875 -0.375 C 6.3125 -0.445312 6.609375 -0.898438 6.609375 -1.734375 L 6.609375 -7.25 C 6.609375 -8.21875 6.296875 -8.703125 5.671875 -8.703125 C 5.128906 -8.703125 4.59375 -8.300781 4.0625 -7.5 L 4.0625 -1.609375 C 4.0625 -0.898438 4.359375 -0.488281 4.953125 -0.375 L 4.953125 0 L 0.359375 0 L 0.359375 -0.375 C 0.609375 -0.4375 0.804688 -0.566406 0.953125 -0.765625 C 1.097656 -0.960938 1.171875 -1.28125 1.171875 -1.71875 L 1.171875 -8.171875 C 1.171875 -8.460938 1.109375 -8.726562 0.984375 -8.96875 C 0.867188 -9.21875 0.660156 -9.378906 0.359375 -9.453125 L 0.359375 -9.828125 L 4.0625 -9.828125 L 4.0625 -8.515625 C 4.519531 -9.035156 4.972656 -9.421875 5.421875 -9.671875 C 5.878906 -9.929688 6.375 -10.0625 6.90625 -10.0625 Z M 6.90625 -10.0625 "/></g></g></g><g fill="#2f5597" fill-opacity="1"><g transform="translate(159.118876, 266.765447)"><g><path d="M 4.109375 -13.375 L 4.46875 -13.375 L 4.46875 -9.828125 L 6.71875 -9.828125 L 6.71875 -8.765625 L 4.46875 -8.765625 L 4.46875 -1.984375 C 4.46875 -1.722656 4.523438 -1.476562 4.640625 -1.25 C 4.753906 -1.019531 4.953125 -0.90625 5.234375 -0.90625 C 5.710938 -0.90625 6.125 -1.238281 6.46875 -1.90625 L 6.71875 -1.5625 C 6.15625 -0.320312 5.257812 0.296875 4.03125 0.296875 C 3.238281 0.296875 2.628906 0.0507812 2.203125 -0.4375 C 1.773438 -0.9375 1.5625 -1.539062 1.5625 -2.25 L 1.5625 -8.765625 L 0.359375 -8.765625 L 0.359375 -9.15625 C 1.035156 -9.632812 1.769531 -10.316406 2.5625 -11.203125 C 3.351562 -12.097656 3.867188 -12.820312 4.109375 -13.375 Z M 4.109375 -13.375 "/></g></g></g><g fill="#2f5597" fill-opacity="1"><g transform="translate(166.174307, 266.765447)"><g><path d="M 4.921875 -10.0625 C 5.773438 -10.0625 6.492188 -9.84375 7.078125 -9.40625 C 7.671875 -8.96875 8.113281 -8.40625 8.40625 -7.71875 C 8.707031 -7.03125 8.863281 -6.320312 8.875 -5.59375 L 8.875 -5.234375 L 3.3125 -5.234375 C 3.394531 -4.054688 3.695312 -3.109375 4.21875 -2.390625 C 4.75 -1.671875 5.410156 -1.3125 6.203125 -1.3125 C 6.710938 -1.3125 7.144531 -1.445312 7.5 -1.71875 C 7.863281 -2 8.195312 -2.398438 8.5 -2.921875 L 8.875 -2.6875 C 8.394531 -1.675781 7.820312 -0.925781 7.15625 -0.4375 C 6.5 0.0507812 5.71875 0.296875 4.8125 0.296875 C 3.90625 0.296875 3.128906 0.078125 2.484375 -0.359375 C 1.847656 -0.804688 1.359375 -1.410156 1.015625 -2.171875 C 0.679688 -2.941406 0.515625 -3.800781 0.515625 -4.75 C 0.515625 -5.695312 0.707031 -6.578125 1.09375 -7.390625 C 1.488281 -8.203125 2.023438 -8.847656 2.703125 -9.328125 C 3.390625 -9.816406 4.128906 -10.0625 4.921875 -10.0625 Z M 6.296875 -6.46875 C 6.296875 -7.46875 6.1875 -8.207031 5.96875 -8.6875 C 5.75 -9.164062 5.398438 -9.40625 4.921875 -9.40625 C 4.410156 -9.40625 4.015625 -9.085938 3.734375 -8.453125 C 3.453125 -7.828125 3.3125 -7.109375 3.3125 -6.296875 L 3.3125 -5.9375 L 6.296875 -5.9375 Z M 6.296875 -6.46875 "/></g></g></g><g fill="#2f5597" fill-opacity="1"><g transform="translate(175.454424, 266.765447)"><g><path d="M 6.5625 -10.0625 C 6.90625 -10.0625 7.179688 -9.929688 7.390625 -9.671875 C 7.609375 -9.410156 7.71875 -9.078125 7.71875 -8.671875 C 7.71875 -8.234375 7.609375 -7.878906 7.390625 -7.609375 C 7.179688 -7.335938 6.894531 -7.203125 6.53125 -7.203125 C 6.351562 -7.203125 6.203125 -7.238281 6.078125 -7.3125 C 5.953125 -7.382812 5.796875 -7.484375 5.609375 -7.609375 C 5.347656 -7.785156 5.148438 -7.875 5.015625 -7.875 C 4.796875 -7.875 4.609375 -7.691406 4.453125 -7.328125 C 4.296875 -6.960938 4.21875 -6.546875 4.21875 -6.078125 L 4.21875 -1.671875 C 4.21875 -1.203125 4.304688 -0.867188 4.484375 -0.671875 C 4.671875 -0.472656 5.003906 -0.375 5.484375 -0.375 L 5.484375 0 L 0.234375 0 L 0.234375 -0.375 C 0.953125 -0.375 1.3125 -0.800781 1.3125 -1.65625 L 1.3125 -8.171875 C 1.3125 -9.003906 0.953125 -9.429688 0.234375 -9.453125 L 0.234375 -9.828125 L 4.21875 -9.828125 L 4.21875 -8.078125 L 4.265625 -8.078125 C 4.921875 -9.398438 5.6875 -10.0625 6.5625 -10.0625 Z M 6.5625 -10.0625 "/></g></g></g><g fill="#2f5597" fill-opacity="1"><g transform="translate(183.6116, 266.765447)"><g><path d="M 6.671875 -10.0625 C 7.328125 -10.0625 7.910156 -9.832031 8.421875 -9.375 C 8.941406 -8.925781 9.347656 -8.3125 9.640625 -7.53125 C 9.929688 -6.75 10.078125 -5.863281 10.078125 -4.875 C 10.078125 -3.71875 9.882812 -2.75 9.5 -1.96875 C 9.113281 -1.195312 8.640625 -0.625 8.078125 -0.25 C 7.523438 0.113281 6.976562 0.296875 6.4375 0.296875 C 5.59375 0.296875 4.921875 -0.078125 4.421875 -0.828125 L 4.390625 -0.828125 L 4.390625 2.859375 C 4.390625 3.335938 4.488281 3.660156 4.6875 3.828125 C 4.894531 4.003906 5.289062 4.097656 5.875 4.109375 L 5.875 4.484375 L 0.3125 4.484375 L 0.3125 4.109375 C 0.726562 4.109375 1.023438 4.007812 1.203125 3.8125 C 1.390625 3.613281 1.484375 3.289062 1.484375 2.84375 L 1.484375 -8.171875 C 1.484375 -8.640625 1.382812 -8.96875 1.1875 -9.15625 C 1 -9.351562 0.707031 -9.453125 0.3125 -9.453125 L 0.3125 -9.828125 L 4.390625 -9.828125 L 4.390625 -8.671875 L 4.421875 -8.671875 C 4.992188 -9.597656 5.742188 -10.0625 6.671875 -10.0625 Z M 4.390625 -7.546875 L 4.390625 -1.765625 C 4.941406 -1.066406 5.425781 -0.71875 5.84375 -0.71875 C 6.300781 -0.71875 6.613281 -1.015625 6.78125 -1.609375 C 6.945312 -2.210938 7.03125 -3.257812 7.03125 -4.75 C 7.03125 -6.175781 6.925781 -7.207031 6.71875 -7.84375 C 6.519531 -8.476562 6.179688 -8.796875 5.703125 -8.796875 C 5.441406 -8.796875 5.191406 -8.664062 4.953125 -8.40625 C 4.710938 -8.15625 4.523438 -7.867188 4.390625 -7.546875 Z M 4.390625 -7.546875 "/></g></g></g><g fill="#2f5597" fill-opacity="1"><g transform="translate(194.205338, 266.765447)"><g><path d="M 6.5625 -10.0625 C 6.90625 -10.0625 7.179688 -9.929688 7.390625 -9.671875 C 7.609375 -9.410156 7.71875 -9.078125 7.71875 -8.671875 C 7.71875 -8.234375 7.609375 -7.878906 7.390625 -7.609375 C 7.179688 -7.335938 6.894531 -7.203125 6.53125 -7.203125 C 6.351562 -7.203125 6.203125 -7.238281 6.078125 -7.3125 C 5.953125 -7.382812 5.796875 -7.484375 5.609375 -7.609375 C 5.347656 -7.785156 5.148438 -7.875 5.015625 -7.875 C 4.796875 -7.875 4.609375 -7.691406 4.453125 -7.328125 C 4.296875 -6.960938 4.21875 -6.546875 4.21875 -6.078125 L 4.21875 -1.671875 C 4.21875 -1.203125 4.304688 -0.867188 4.484375 -0.671875 C 4.671875 -0.472656 5.003906 -0.375 5.484375 -0.375 L 5.484375 0 L 0.234375 0 L 0.234375 -0.375 C 0.953125 -0.375 1.3125 -0.800781 1.3125 -1.65625 L 1.3125 -8.171875 C 1.3125 -9.003906 0.953125 -9.429688 0.234375 -9.453125 L 0.234375 -9.828125 L 4.21875 -9.828125 L 4.21875 -8.078125 L 4.265625 -8.078125 C 4.921875 -9.398438 5.6875 -10.0625 6.5625 -10.0625 Z M 6.5625 -10.0625 "/></g></g></g><g fill="#2f5597" fill-opacity="1"><g transform="translate(202.362514, 266.765447)"><g><path d="M 2.984375 -14.875 C 3.441406 -14.875 3.828125 -14.710938 4.140625 -14.390625 C 4.460938 -14.078125 4.625 -13.695312 4.625 -13.25 C 4.625 -12.789062 4.460938 -12.398438 4.140625 -12.078125 C 3.828125 -11.753906 3.441406 -11.59375 2.984375 -11.59375 C 2.535156 -11.59375 2.144531 -11.753906 1.8125 -12.078125 C 1.488281 -12.398438 1.328125 -12.789062 1.328125 -13.25 C 1.328125 -13.695312 1.488281 -14.078125 1.8125 -14.390625 C 2.144531 -14.710938 2.535156 -14.875 2.984375 -14.875 Z M 4.390625 -1.609375 C 4.390625 -0.804688 4.738281 -0.394531 5.4375 -0.375 L 5.4375 0 L 0.25 0 L 0.25 -0.375 C 0.6875 -0.375 1 -0.472656 1.1875 -0.671875 C 1.382812 -0.867188 1.484375 -1.21875 1.484375 -1.71875 L 1.484375 -8.140625 C 1.484375 -8.597656 1.390625 -8.929688 1.203125 -9.140625 C 1.023438 -9.347656 0.707031 -9.453125 0.25 -9.453125 L 0.25 -9.828125 L 4.390625 -9.828125 Z M 4.390625 -1.609375 "/></g></g></g><g fill="#2f5597" fill-opacity="1"><g transform="translate(208.104324, 266.765447)"><g><path d="M 3.515625 -10.0625 C 3.867188 -10.0625 4.175781 -10.023438 4.4375 -9.953125 C 4.695312 -9.890625 5.007812 -9.785156 5.375 -9.640625 C 5.664062 -9.515625 5.863281 -9.453125 5.96875 -9.453125 C 6.144531 -9.453125 6.289062 -9.5 6.40625 -9.59375 C 6.53125 -9.695312 6.660156 -9.851562 6.796875 -10.0625 L 7.03125 -10.0625 L 7.203125 -6.734375 L 6.953125 -6.734375 C 6.640625 -7.546875 6.1875 -8.179688 5.59375 -8.640625 C 5.007812 -9.097656 4.375 -9.328125 3.6875 -9.328125 C 3.28125 -9.328125 2.957031 -9.226562 2.71875 -9.03125 C 2.488281 -8.84375 2.375 -8.601562 2.375 -8.3125 C 2.375 -7.9375 2.546875 -7.617188 2.890625 -7.359375 C 3.234375 -7.109375 3.757812 -6.820312 4.46875 -6.5 C 5.175781 -6.175781 5.75 -5.875 6.1875 -5.59375 C 6.625 -5.3125 7 -4.945312 7.3125 -4.5 C 7.632812 -4.050781 7.796875 -3.507812 7.796875 -2.875 C 7.796875 -2.28125 7.644531 -1.738281 7.34375 -1.25 C 7.050781 -0.769531 6.644531 -0.390625 6.125 -0.109375 C 5.601562 0.160156 5.023438 0.296875 4.390625 0.296875 C 3.992188 0.296875 3.632812 0.253906 3.3125 0.171875 C 3 0.0859375 2.671875 -0.0234375 2.328125 -0.171875 C 2.285156 -0.179688 2.179688 -0.21875 2.015625 -0.28125 C 1.847656 -0.34375 1.707031 -0.375 1.59375 -0.375 C 1.332031 -0.375 1.113281 -0.15625 0.9375 0.28125 L 0.734375 0.28125 L 0.515625 -3.21875 L 0.734375 -3.21875 C 1.109375 -2.332031 1.59375 -1.644531 2.1875 -1.15625 C 2.78125 -0.675781 3.425781 -0.4375 4.125 -0.4375 C 4.5625 -0.4375 4.925781 -0.554688 5.21875 -0.796875 C 5.507812 -1.046875 5.65625 -1.34375 5.65625 -1.6875 C 5.65625 -2.039062 5.546875 -2.320312 5.328125 -2.53125 C 5.109375 -2.738281 4.765625 -2.96875 4.296875 -3.21875 C 4.097656 -3.332031 3.914062 -3.425781 3.75 -3.5 C 3.582031 -3.582031 3.441406 -3.648438 3.328125 -3.703125 C 2.679688 -4.015625 2.164062 -4.296875 1.78125 -4.546875 C 1.394531 -4.796875 1.0625 -5.125 0.78125 -5.53125 C 0.507812 -5.9375 0.375 -6.445312 0.375 -7.0625 C 0.375 -7.914062 0.664062 -8.628906 1.25 -9.203125 C 1.84375 -9.773438 2.597656 -10.0625 3.515625 -10.0625 Z M 3.515625 -10.0625 "/></g></g></g><g fill="#2f5597" fill-opacity="1"><g transform="translate(216.2615, 266.765447)"><g><path d="M 4.921875 -10.0625 C 5.773438 -10.0625 6.492188 -9.84375 7.078125 -9.40625 C 7.671875 -8.96875 8.113281 -8.40625 8.40625 -7.71875 C 8.707031 -7.03125 8.863281 -6.320312 8.875 -5.59375 L 8.875 -5.234375 L 3.3125 -5.234375 C 3.394531 -4.054688 3.695312 -3.109375 4.21875 -2.390625 C 4.75 -1.671875 5.410156 -1.3125 6.203125 -1.3125 C 6.710938 -1.3125 7.144531 -1.445312 7.5 -1.71875 C 7.863281 -2 8.195312 -2.398438 8.5 -2.921875 L 8.875 -2.6875 C 8.394531 -1.675781 7.820312 -0.925781 7.15625 -0.4375 C 6.5 0.0507812 5.71875 0.296875 4.8125 0.296875 C 3.90625 0.296875 3.128906 0.078125 2.484375 -0.359375 C 1.847656 -0.804688 1.359375 -1.410156 1.015625 -2.171875 C 0.679688 -2.941406 0.515625 -3.800781 0.515625 -4.75 C 0.515625 -5.695312 0.707031 -6.578125 1.09375 -7.390625 C 1.488281 -8.203125 2.023438 -8.847656 2.703125 -9.328125 C 3.390625 -9.816406 4.128906 -10.0625 4.921875 -10.0625 Z M 6.296875 -6.46875 C 6.296875 -7.46875 6.1875 -8.207031 5.96875 -8.6875 C 5.75 -9.164062 5.398438 -9.40625 4.921875 -9.40625 C 4.410156 -9.40625 4.015625 -9.085938 3.734375 -8.453125 C 3.453125 -7.828125 3.3125 -7.109375 3.3125 -6.296875 L 3.3125 -5.9375 L 6.296875 -5.9375 Z M 6.296875 -6.46875 "/></g></g></g></svg>