<svg xmlns="http://www.w3.org/2000/svg" xmlns:xlink="http://www.w3.org/1999/xlink" width="500" zoomAndPan="magnify" viewBox="0 0 375 374.999991" height="500" preserveAspectRatio="xMidYMid meet" version="1.0"><defs><clipPath id="f8747ddfc4"><path d="M 26.074219 22.851562 L 367.183594 22.851562 L 367.183594 337.851562 L 26.074219 337.851562 Z M 26.074219 22.851562 " clip-rule="nonzero"/></clipPath></defs><g clip-path="url(#f8747ddfc4)"><path fill="#2f5597" d="M 64.914062 298.933594 L 356.824219 298.933594 C 362.484375 298.933594 367.078125 303.535156 367.078125 309.210938 C 367.078125 314.886719 362.484375 319.488281 356.824219 319.488281 L 64.914062 319.488281 L 64.914062 327.613281 C 64.914062 333.289062 60.316406 337.894531 54.65625 337.894531 C 48.992188 337.894531 44.398438 333.289062 44.398438 327.613281 L 44.398438 319.488281 L 36.292969 319.488281 C 30.628906 319.488281 26.035156 314.886719 26.035156 309.210938 C 26.035156 303.535156 30.628906 298.933594 36.292969 298.933594 L 44.398438 298.933594 L 44.398438 33.152344 C 44.398438 27.476562 48.992188 22.871094 54.65625 22.871094 C 60.316406 22.871094 64.914062 27.476562 64.914062 33.152344 Z M 64.914062 298.933594 " fill-opacity="1" fill-rule="evenodd"/></g><path fill="#2f5597" d="M 183.488281 108.515625 C 186.496094 108.15625 189.632812 109.125 191.941406 111.441406 L 229.960938 149.542969 L 303.339844 76.007812 C 307.34375 71.996094 313.839844 71.996094 317.84375 76.007812 C 321.847656 80.019531 321.847656 86.53125 317.84375 90.542969 L 237.214844 171.347656 C 233.210938 175.359375 226.714844 175.359375 222.710938 171.347656 L 184.746094 133.300781 L 96.203125 223.1875 C 92.230469 227.21875 85.75 227.273438 81.722656 223.300781 C 77.6875 219.324219 77.632812 212.808594 81.609375 208.769531 C 100.320312 189.773438 163.339844 117.84375 183.488281 108.515625 Z M 183.488281 108.515625 " fill-opacity="1" fill-rule="evenodd"/><path fill="#2f5597" d="M 293.359375 66.515625 L 335.289062 47.949219 L 335.285156 47.945312 C 337.230469 47.085938 339.503906 47.96875 340.359375 49.914062 C 340.746094 50.792969 340.78125 51.734375 340.523438 52.585938 L 330.199219 97.285156 L 330.207031 97.296875 C 329.726562 99.371094 327.660156 100.660156 325.59375 100.183594 C 324.921875 100.027344 324.335938 99.707031 323.863281 99.269531 L 292.277344 73.089844 L 292.273438 73.089844 C 290.636719 71.734375 290.410156 69.304688 291.761719 67.664062 C 292.203125 67.128906 292.757812 66.746094 293.359375 66.515625 Z M 293.359375 66.515625 " fill-opacity="1" fill-rule="nonzero"/><path fill="#2f5597" d="M 122.503906 310.785156 C 123.101562 312.128906 124.449219 313.066406 126.015625 313.066406 C 128.136719 313.066406 129.859375 311.339844 129.859375 309.210938 L 129.859375 243.546875 C 129.859375 238.589844 127.832031 234.074219 124.566406 230.792969 L 124.558594 230.785156 L 124.566406 230.777344 C 124.488281 230.695312 124.402344 230.621094 124.320312 230.550781 C 121.066406 227.410156 116.65625 225.46875 111.824219 225.46875 C 106.859375 225.46875 102.347656 227.503906 99.082031 230.777344 C 95.816406 234.050781 93.789062 238.570312 93.789062 243.546875 L 93.789062 309.210938 C 93.789062 311.339844 95.511719 313.066406 97.632812 313.066406 C 99.199219 313.066406 100.546875 312.128906 101.148438 310.785156 Z M 122.503906 310.785156 " fill-opacity="1" fill-rule="nonzero"/><path fill="#2f5597" d="M 194.992188 310.449219 C 195.503906 311.96875 196.941406 313.066406 198.636719 313.066406 C 200.757812 313.066406 202.480469 311.339844 202.480469 309.210938 L 202.480469 195.027344 C 202.480469 190.050781 200.453125 185.53125 197.1875 182.257812 C 193.921875 178.984375 189.410156 176.949219 184.445312 176.949219 C 179.480469 176.949219 174.96875 178.984375 171.703125 182.257812 C 168.4375 185.53125 166.40625 190.050781 166.40625 195.027344 L 166.40625 309.210938 C 166.40625 311.339844 168.128906 313.066406 170.253906 313.066406 C 171.945312 313.066406 173.382812 311.96875 173.898438 310.449219 Z M 194.992188 310.449219 " fill-opacity="1" fill-rule="nonzero"/><path fill="#2f5597" d="M 268.125 311.453125 C 268.820312 312.429688 269.964844 313.066406 271.253906 313.066406 C 273.378906 313.066406 275.101562 311.339844 275.101562 309.210938 L 275.101562 221.796875 C 275.101562 216.820312 273.074219 212.300781 269.804688 209.027344 C 269.730469 208.949219 269.648438 208.875 269.566406 208.804688 C 266.3125 205.660156 261.898438 203.71875 257.066406 203.71875 L 257.0625 203.71875 C 252.113281 203.71875 247.605469 205.753906 244.332031 209.035156 L 244.324219 209.027344 L 244.257812 209.09375 C 241.03125 212.359375 239.027344 216.855469 239.027344 221.796875 L 239.027344 309.210938 C 239.027344 311.339844 240.75 313.066406 242.875 313.066406 C 244.164062 313.066406 245.308594 312.429688 246.003906 311.453125 Z M 268.125 311.453125 " fill-opacity="1" fill-rule="nonzero"/><path fill="#2f5597" d="M 340.9375 311.703125 C 341.644531 312.535156 342.699219 313.066406 343.875 313.066406 C 345.996094 313.066406 347.71875 311.339844 347.71875 309.210938 L 347.71875 146.507812 C 347.71875 141.546875 345.691406 137.035156 342.425781 133.753906 L 342.417969 133.746094 L 342.425781 133.738281 C 342.347656 133.65625 342.261719 133.582031 342.179688 133.511719 C 338.925781 130.371094 334.515625 128.429688 329.683594 128.429688 C 324.71875 128.429688 320.207031 130.464844 316.941406 133.738281 C 316.863281 133.816406 316.792969 133.894531 316.722656 133.976562 C 313.585938 137.238281 311.648438 141.660156 311.648438 146.507812 L 311.648438 309.210938 C 311.648438 311.339844 313.371094 313.066406 315.492188 313.066406 C 316.667969 313.066406 317.722656 312.535156 318.429688 311.703125 Z M 340.9375 311.703125 " fill-opacity="1" fill-rule="nonzero"/></svg>